AndadaPro-Italic.ufo
<glyph name="exclam" format="2">
  <advance width="298.9"/>
  <unicode hex="0021"/>
  <outline>
    <contour>
      <point x="166" y="216" type="line"/>
      <point x="176" y="221" type="line"/>
      <point x="190" y="307" type="line" smooth="yes"/>
      <point x="199" y="367"/>
      <point x="256" y="633"/>
      <point x="284" y="754" type="curve"/>
      <point x="268" y="771" type="line"/>
      <point x="191" y="764" type="line"/>
      <point x="109" y="285" type="line"/>
      <point x="95" y="219" type="line"/>
    </contour>
    <contour>
      <point x="92" y="-10" type="curve" smooth="yes"/>
      <point x="131" y="-10"/>
      <point x="160" y="24"/>
      <point x="160" y="68" type="curve" smooth="yes"/>
      <point x="160" y="97"/>
      <point x="144" y="116"/>
      <point x="117" y="116" type="curve" smooth="yes"/>
      <point x="77" y="116"/>
      <point x="49" y="84"/>
      <point x="49" y="38" type="curve" smooth="yes"/>
      <point x="49" y="8"/>
      <point x="64" y="-10"/>
    </contour>
  </outline>
</glyph>
<glyph name="numbersign" format="2">
  <advance width="633.8"/>
  <unicode hex="0023"/>
  <outline>
    <contour>
      <point x="163" y="-15" type="line"/>
      <point x="329" y="562" type="line"/>
      <point x="272" y="572" type="line"/>
      <point x="107" y="-5" type="line"/>
    </contour>
    <contour>
      <point x="52" y="151" type="line"/>
      <point x="536" y="151" type="line"/>
      <point x="545" y="220" type="line"/>
      <point x="61" y="215" type="line"/>
    </contour>
    <contour>
      <point x="365" y="-15" type="line"/>
      <point x="531" y="562" type="line"/>
      <point x="474" y="572" type="line"/>
      <point x="309" y="-5" type="line"/>
    </contour>
    <contour>
      <point x="96" y="338" type="line"/>
      <point x="581" y="343" type="line"/>
      <point x="589" y="407" type="line"/>
      <point x="106" y="407" type="line"/>
    </contour>
  </outline>
</glyph>
<glyph name="dollar" format="2">
  <advance width="541.7"/>
  <unicode hex="0024"/>
  <outline>
    <contour>
      <point x="227" y="-13" type="curve" smooth="yes"/>
      <point x="368" y="-13"/>
      <point x="462" y="69"/>
      <point x="462" y="187" type="curve" smooth="yes"/>
      <point x="462" y="358"/>
      <point x="207" y="359"/>
      <point x="207" y="480" type="curve" smooth="yes"/>
      <point x="207" y="542"/>
      <point x="256" y="590"/>
      <point x="319" y="590" type="curve" smooth="yes"/>
      <point x="366" y="590"/>
      <point x="398" y="584"/>
      <point x="442" y="559" type="curve"/>
      <point x="414" y="595" type="line"/>
      <point x="417" y="569"/>
      <point x="423" y="534"/>
      <point x="421" y="521" type="curve"/>
      <point x="416" y="481" type="line"/>
      <point x="467" y="476" type="line"/>
      <point x="500" y="612" type="line"/>
      <point x="444" y="626"/>
      <point x="382" y="640"/>
      <point x="327" y="640" type="curve" smooth="yes"/>
      <point x="201" y="640"/>
      <point x="112" y="562"/>
      <point x="112" y="452" type="curve" smooth="yes"/>
      <point x="112" y="288"/>
      <point x="364" y="291"/>
      <point x="364" y="164" type="curve" smooth="yes"/>
      <point x="364" y="93"/>
      <point x="311" y="42"/>
      <point x="236" y="42" type="curve" smooth="yes"/>
      <point x="184" y="42"/>
      <point x="140" y="58"/>
      <point x="111" y="73" type="curve"/>
      <point x="131" y="47" type="line"/>
      <point x="128" y="60"/>
      <point x="126" y="115"/>
      <point x="127" y="123" type="curve" smooth="yes"/>
      <point x="135" y="167" type="line"/>
      <point x="74" y="172" type="line"/>
      <point x="42" y="33" type="line"/>
      <point x="42" y="33"/>
      <point x="112" y="-13"/>
    </contour>
    <contour>
      <point x="217" y="-154" type="line"/>
      <point x="247" y="15" type="line"/>
      <point x="204" y="15" type="line"/>
      <point x="174" y="-151" type="line"/>
    </contour>
    <contour>
      <point x="310" y="616" type="line"/>
      <point x="352" y="616" type="line"/>
      <point x="382" y="785" type="line"/>
      <point x="340" y="788" type="line"/>
    </contour>
  </outline>
</glyph>
<glyph name="parenright" format="2">
  <advance width="384.9"/>
  <unicode hex="0029"/>
  <outline>
    <contour>
      <point x="167" y="818" type="curve"/>
      <point x="144" y="804" type="line"/>
      <point x="200" y="684"/>
      <point x="228" y="564"/>
      <point x="228" y="447" type="curve" smooth="yes"/>
      <point x="228" y="260"/>
      <point x="152" y="79"/>
      <point x="34" y="-86" type="curve"/>
      <point x="56" y="-106" type="line"/>
      <point x="211" y="40"/>
      <point x="312" y="222"/>
      <point x="312" y="431" type="curve" smooth="yes"/>
      <point x="312" y="578"/>
      <point x="259" y="707"/>
    </contour>
  </outline>
</glyph>
<glyph name="comma" format="2">
  <advance width="298"/>
  <unicode hex="002C"/>
  <outline>
    <contour>
      <point x="30" y="-150" type="line"/>
      <point x="114" y="-131"/>
      <point x="191" y="-30"/>
      <point x="191" y="67" type="curve" smooth="yes"/>
      <point x="191" y="99"/>
      <point x="180" y="127"/>
      <point x="148" y="127" type="curve" smooth="yes"/>
      <point x="109" y="127"/>
      <point x="78" y="90"/>
      <point x="78" y="45" type="curve" smooth="yes"/>
      <point x="78" y="12"/>
      <point x="96" y="-11"/>
      <point x="130" y="-11" type="curve" smooth="yes"/>
      <point x="136" y="-11"/>
      <point x="143" y="-10"/>
      <point x="151" y="-8" type="curve"/>
      <point x="119" y="13" type="line"/>
      <point x="120" y="-44"/>
      <point x="77" y="-97"/>
      <point x="27" y="-118" type="curve"/>
    </contour>
  </outline>
</glyph>
<glyph name="slash" format="2">
  <advance width="396.6"/>
  <unicode hex="002F"/>
  <outline>
    <contour>
      <point x="34" y="-67" type="line"/>
      <point x="448" y="754" type="line"/>
      <point x="390" y="773" type="line"/>
      <point x="-25" y="-48" type="line"/>
    </contour>
  </outline>
</glyph>
<glyph name="five" format="2">
  <advance width="456.6"/>
  <unicode hex="0035"/>
  <outline>
    <contour>
      <point x="6" y="-105" type="line"/>
      <point x="250" y="-81"/>
      <point x="400" y="40"/>
      <point x="400" y="207" type="curve" smooth="yes"/>
      <point x="400" y="310"/>
      <point x="327" y="362"/>
      <point x="210" y="362" type="curve" smooth="yes"/>
      <point x="173" y="362"/>
      <point x="137" y="355"/>
      <point x="111" y="348" type="curve"/>
      <point x="126" y="327" type="line"/>
      <point x="172" y="577" type="line"/>
      <point x="233" y="577" type="line"/>
      <point x="437" y="601" type="line"/>
      <point x="441" y="662" type="line"/>
      <point x="206" y="652" type="line"/>
      <point x="140" y="652" type="line"/>
      <point x="120" y="634" type="line"/>
      <point x="57" y="304" type="line"/>
      <point x="89" y="286" type="line"/>
      <point x="132" y="296"/>
      <point x="161" y="299"/>
      <point x="184" y="299" type="curve" smooth="yes"/>
      <point x="263" y="299"/>
      <point x="308" y="261"/>
      <point x="308" y="191" type="curve" smooth="yes"/>
      <point x="308" y="65"/>
      <point x="195" y="-27"/>
      <point x="-4" y="-54" type="curve"/>
    </contour>
  </outline>
</glyph>
<glyph name="nine" format="2">
  <advance width="530.8"/>
  <unicode hex="0039"/>
  <outline>
    <contour>
      <point x="25" y="-107" type="line"/>
      <point x="298" y="-49"/>
      <point x="502" y="188"/>
      <point x="502" y="451" type="curve" smooth="yes"/>
      <point x="502" y="575"/>
      <point x="437" y="662"/>
      <point x="308" y="662" type="curve" smooth="yes"/>
      <point x="171" y="662"/>
      <point x="62" y="551"/>
      <point x="62" y="419" type="curve" smooth="yes"/>
      <point x="62" y="314"/>
      <point x="137" y="249"/>
      <point x="246" y="249" type="curve" smooth="yes"/>
      <point x="272" y="249"/>
      <point x="302" y="255"/>
      <point x="324" y="265" type="curve"/>
      <point x="323" y="309" type="line"/>
      <point x="302" y="306"/>
      <point x="283" y="306"/>
      <point x="262" y="306" type="curve" smooth="yes"/>
      <point x="195" y="306"/>
      <point x="155" y="362"/>
      <point x="155" y="429" type="curve" smooth="yes"/>
      <point x="155" y="525"/>
      <point x="220" y="609"/>
      <point x="298" y="609" type="curve" smooth="yes"/>
      <point x="377" y="609"/>
      <point x="409" y="528"/>
      <point x="409" y="445" type="curve" smooth="yes"/>
      <point x="409" y="236"/>
      <point x="271" y="23"/>
      <point x="18" y="-57" type="curve"/>
    </contour>
  </outline>
</glyph>
<glyph name="colon" format="2">
  <advance width="266.6"/>
  <unicode hex="003A"/>
  <outline>
    <contour>
      <point x="151" y="345" type="curve" smooth="yes"/>
      <point x="192" y="345"/>
      <point x="220" y="377"/>
      <point x="220" y="423" type="curve" smooth="yes"/>
      <point x="220" y="453"/>
      <point x="205" y="471"/>
      <point x="178" y="471" type="curve" smooth="yes"/>
      <point x="138" y="471"/>
      <point x="109" y="437"/>
      <point x="109" y="392" type="curve" smooth="yes"/>
      <point x="109" y="364"/>
      <point x="124" y="345"/>
    </contour>
    <contour>
      <point x="85" y="-10" type="curve" smooth="yes"/>
      <point x="125" y="-10"/>
      <point x="153" y="23"/>
      <point x="153" y="69" type="curve" smooth="yes"/>
      <point x="153" y="99"/>
      <point x="137" y="117"/>
      <point x="111" y="117" type="curve" smooth="yes"/>
      <point x="71" y="117"/>
      <point x="43" y="83"/>
      <point x="43" y="38" type="curve" smooth="yes"/>
      <point x="43" y="10"/>
      <point x="57" y="-10"/>
    </contour>
  </outline>
</glyph>
<glyph name="equal" format="2">
  <advance width="719.5"/>
  <unicode hex="003D"/>
  <outline>
    <contour>
      <point x="145" y="309" type="line"/>
      <point x="590" y="314" type="line"/>
      <point x="599" y="376" type="line"/>
      <point x="154" y="376" type="line"/>
    </contour>
    <contour>
      <point x="121" y="121" type="line"/>
      <point x="566" y="121" type="line"/>
      <point x="575" y="189" type="line"/>
      <point x="128" y="183" type="line"/>
    </contour>
  </outline>
</glyph>
<glyph name="at" format="2">
  <advance width="988.8"/>
  <unicode hex="0040"/>
  <outline>
    <contour>
      <point x="441" y="-214" type="curve" smooth="yes"/>
      <point x="499" y="-214"/>
      <point x="671" y="-144"/>
      <point x="662" y="-146" type="curve"/>
      <point x="657" y="-117" type="line"/>
      <point x="657" y="-117"/>
      <point x="495" y="-154"/>
      <point x="445" y="-154" type="curve" smooth="yes"/>
      <point x="248" y="-154"/>
      <point x="166" y="-34"/>
      <point x="166" y="144" type="curve" smooth="yes"/>
      <point x="166" y="395"/>
      <point x="299" y="620"/>
      <point x="550" y="620" type="curve" smooth="yes"/>
      <point x="726" y="620"/>
      <point x="842" y="519"/>
      <point x="842" y="342" type="curve" smooth="yes"/>
      <point x="842" y="180"/>
      <point x="769" y="58"/>
      <point x="639" y="44" type="curve"/>
      <point x="650" y="18" type="line"/>
      <point x="646" y="190"/>
      <point x="678" y="335"/>
      <point x="716" y="490" type="curve"/>
      <point x="695" y="502" type="line"/>
      <point x="625" y="488" type="line"/>
      <point x="623" y="437" type="line" smooth="yes"/>
      <point x="617" y="283"/>
      <point x="493" y="42"/>
      <point x="428" y="42" type="curve" smooth="yes"/>
      <point x="401" y="42"/>
      <point x="381" y="84"/>
      <point x="381" y="145" type="curve" smooth="yes"/>
      <point x="381" y="267"/>
      <point x="453" y="455"/>
      <point x="506" y="455" type="curve" smooth="yes"/>
      <point x="558" y="455"/>
      <point x="636" y="412"/>
      <point x="650" y="405" type="curve"/>
      <point x="651" y="489" type="line"/>
      <point x="631" y="490"/>
      <point x="553" y="502"/>
      <point x="520" y="502" type="curve" smooth="yes"/>
      <point x="428" y="502"/>
      <point x="301" y="290"/>
      <point x="301" y="139" type="curve" smooth="yes"/>
      <point x="301" y="38"/>
      <point x="337" y="-9"/>
      <point x="404" y="-9" type="curve" smooth="yes"/>
      <point x="475" y="-9"/>
      <point x="548" y="73"/>
      <point x="604" y="194" type="curve"/>
      <point x="598" y="213" type="line"/>
      <point x="583" y="109"/>
      <point x="582" y="60"/>
      <point x="572" y="0" type="curve"/>
      <point x="596" y="-15" type="line"/>
      <point x="796" y="1"/>
      <point x="920" y="167"/>
      <point x="920" y="349" type="curve" smooth="yes"/>
      <point x="920" y="564"/>
      <point x="769" y="667"/>
      <point x="555" y="667" type="curve" smooth="yes"/>
      <point x="255" y="667"/>
      <point x="76" y="441"/>
      <point x="76" y="141" type="curve" smooth="yes"/>
      <point x="76" y="-83"/>
      <point x="210" y="-214"/>
    </contour>
  </outline>
</glyph>
<glyph name="B" format="2">
  <advance width="596.2"/>
  <unicode hex="0042"/>
  <anchor x="268" y="0" name="bottom"/>
  <anchor x="365" y="705" name="top"/>
  <outline>
    <contour>
      <point x="9" y="-5" type="line"/>
      <point x="54" y="-3"/>
      <point x="118" y="0"/>
      <point x="143" y="0" type="curve" smooth="yes"/>
      <point x="194" y="0"/>
      <point x="262" y="-5"/>
      <point x="313" y="-5" type="curve" smooth="yes"/>
      <point x="437" y="-5"/>
      <point x="537" y="80"/>
      <point x="537" y="208" type="curve" smooth="yes"/>
      <point x="537" y="304"/>
      <point x="466" y="361"/>
      <point x="366" y="366" type="curve"/>
      <point x="387" y="329" type="line"/>
      <point x="398" y="404" type="line"/>
      <point x="369" y="365" type="line"/>
      <point x="474" y="380"/>
      <point x="559" y="458"/>
      <point x="559" y="566" type="curve" smooth="yes"/>
      <point x="559" y="656"/>
      <point x="477" y="710"/>
      <point x="384" y="710" type="curve" smooth="yes"/>
      <point x="344" y="710"/>
      <point x="269" y="705"/>
      <point x="230" y="705" type="curve" smooth="yes"/>
      <point x="212" y="705"/>
      <point x="153" y="708"/>
      <point x="115" y="710" type="curve"/>
      <point x="102" y="658" type="line"/>
      <point x="210" y="640" type="line"/>
      <point x="177" y="678" type="line"/>
      <point x="176" y="651"/>
      <point x="176" y="589"/>
      <point x="174" y="572" type="curve" smooth="yes"/>
      <point x="110" y="135" type="line" smooth="yes"/>
      <point x="107" y="116"/>
      <point x="89" y="55"/>
      <point x="82" y="31" type="curve"/>
      <point x="125" y="67" type="line"/>
      <point x="11" y="44" type="line"/>
    </contour>
    <contour>
      <point x="191" y="34" type="line"/>
      <point x="189" y="53"/>
      <point x="196" y="131"/>
      <point x="201" y="165" type="curve" smooth="yes"/>
      <point x="255" y="538" type="line" smooth="yes"/>
      <point x="261" y="577"/>
      <point x="278" y="647"/>
      <point x="282" y="667" type="curve"/>
      <point x="253" y="652" type="line"/>
      <point x="296" y="655"/>
      <point x="336" y="658"/>
      <point x="368" y="658" type="curve" smooth="yes"/>
      <point x="430" y="658"/>
      <point x="469" y="616"/>
      <point x="469" y="554" type="curve" smooth="yes"/>
      <point x="469" y="451"/>
      <point x="391" y="393"/>
      <point x="301" y="393" type="curve" smooth="yes"/>
      <point x="294" y="393" type="line"/>
      <point x="279" y="338" type="line"/>
      <point x="290" y="338" type="line" smooth="yes"/>
      <point x="373" y="338"/>
      <point x="440" y="298"/>
      <point x="440" y="211" type="curve" smooth="yes"/>
      <point x="440" y="109"/>
      <point x="372" y="51"/>
      <point x="283" y="51" type="curve" smooth="yes"/>
      <point x="238" y="51"/>
      <point x="200" y="56"/>
      <point x="174" y="60" type="curve"/>
    </contour>
  </outline>
</glyph>
<glyph name="C" format="2">
  <advance width="629.2"/>
  <unicode hex="0043"/>
  <anchor x="307" y="0" name="bottom"/>
  <anchor x="448" y="720" name="top"/>
  <outline>
    <contour>
      <point x="334" y="-15" type="curve" smooth="yes"/>
      <point x="413" y="-15"/>
      <point x="474" y="3"/>
      <point x="538" y="19" type="curve"/>
      <point x="554" y="168" type="line"/>
      <point x="497" y="166" type="line"/>
      <point x="495" y="153"/>
      <point x="492" y="135"/>
      <point x="489" y="120" type="curve" smooth="yes"/>
      <point x="483" y="101"/>
      <point x="467" y="61"/>
      <point x="455" y="31" type="curve"/>
      <point x="501" y="69" type="line"/>
      <point x="447" y="55"/>
      <point x="396" y="40"/>
      <point x="341" y="40" type="curve" smooth="yes"/>
      <point x="226" y="40"/>
      <point x="162" y="146"/>
      <point x="162" y="283" type="curve" smooth="yes"/>
      <point x="162" y="483"/>
      <point x="255" y="665"/>
      <point x="423" y="665" type="curve" smooth="yes"/>
      <point x="475" y="665"/>
      <point x="526" y="648"/>
      <point x="576" y="634" type="curve"/>
      <point x="540" y="675" type="line"/>
      <point x="543" y="646"/>
      <point x="548" y="600"/>
      <point x="546" y="590" type="curve" smooth="yes"/>
      <point x="539" y="544" type="line"/>
      <point x="596" y="540" type="line"/>
      <point x="626" y="686" type="line"/>
      <point x="567" y="702"/>
      <point x="511" y="720"/>
      <point x="431" y="720" type="curve" smooth="yes"/>
      <point x="194" y="720"/>
      <point x="64" y="529"/>
      <point x="64" y="281" type="curve" smooth="yes"/>
      <point x="64" y="105"/>
      <point x="160" y="-15"/>
    </contour>
  </outline>
</glyph>
<glyph name="E" format="2">
  <advance width="583.9"/>
  <unicode hex="0045"/>
  <anchor x="259" y="0" name="bottom"/>
  <anchor x="467" y="0" name="ogonek"/>
  <anchor x="360" y="720" name="top"/>
  <anchor x="94" y="705" name="topleft"/>
  <outline>
    <contour>
      <point x="9" y="-5" type="line"/>
      <point x="53" y="-3"/>
      <point x="111" y="0"/>
      <point x="143" y="0" type="curve" smooth="yes"/>
      <point x="353" y="0" type="line" smooth="yes"/>
      <point x="380" y="0"/>
      <point x="430" y="0"/>
      <point x="467" y="0" type="curve"/>
      <point x="484" y="14" type="line"/>
      <point x="521" y="163" type="line"/>
      <point x="469" y="168" type="line"/>
      <point x="464" y="152"/>
      <point x="451" y="116"/>
      <point x="443" y="100" type="curve" smooth="yes"/>
      <point x="437" y="86"/>
      <point x="417" y="61"/>
      <point x="402" y="44" type="curve"/>
      <point x="433" y="67" type="line"/>
      <point x="414" y="63"/>
      <point x="369" y="55"/>
      <point x="332" y="55" type="curve" smooth="yes"/>
      <point x="158" y="55" type="line"/>
      <point x="190" y="20" type="line"/>
      <point x="190" y="50"/>
      <point x="196" y="133"/>
      <point x="201" y="165" type="curve" smooth="yes"/>
      <point x="231" y="374" type="line"/>
      <point x="192" y="340" type="line"/>
      <point x="320" y="340" type="line" smooth="yes"/>
      <point x="337" y="340"/>
      <point x="394" y="335"/>
      <point x="431" y="331" type="curve"/>
      <point x="399" y="368" type="line"/>
      <point x="394" y="266" type="line"/>
      <point x="441" y="272" type="line"/>
      <point x="447" y="327"/>
      <point x="458" y="391"/>
      <point x="471" y="464" type="curve"/>
      <point x="427" y="469" type="line"/>
      <point x="395" y="367" type="line"/>
      <point x="440" y="403" type="line"/>
      <point x="410" y="400"/>
      <point x="358" y="394"/>
      <point x="347" y="394" type="curve" smooth="yes"/>
      <point x="200" y="394" type="line"/>
      <point x="229" y="360" type="line"/>
      <point x="255" y="538" type="line" smooth="yes"/>
      <point x="260" y="573"/>
      <point x="280" y="657"/>
      <point x="284" y="675" type="curve"/>
      <point x="245" y="651" type="line"/>
      <point x="406" y="651" type="line" smooth="yes"/>
      <point x="420" y="651"/>
      <point x="491" y="646"/>
      <point x="509" y="644" type="curve"/>
      <point x="466" y="676" type="line"/>
      <point x="481" y="654"/>
      <point x="498" y="624"/>
      <point x="499" y="612" type="curve" smooth="yes"/>
      <point x="500" y="604"/>
      <point x="501" y="574"/>
      <point x="502" y="558" type="curve"/>
      <point x="558" y="563" type="line"/>
      <point x="571" y="692" type="line"/>
      <point x="555" y="710" type="line"/>
      <point x="518" y="708"/>
      <point x="459" y="705"/>
      <point x="443" y="705" type="curve" smooth="yes"/>
      <point x="230" y="705" type="line" smooth="yes"/>
      <point x="213" y="705"/>
      <point x="153" y="708"/>
      <point x="115" y="710" type="curve"/>
      <point x="102" y="658" type="line"/>
      <point x="210" y="640" type="line"/>
      <point x="176" y="666" type="line"/>
      <point x="176" y="653"/>
      <point x="176" y="591"/>
      <point x="174" y="572" type="curve" smooth="yes"/>
      <point x="110" y="135" type="line" smooth="yes"/>
      <point x="107" y="116"/>
      <point x="87" y="46"/>
      <point x="81" y="23" type="curve"/>
      <point x="125" y="67" type="line"/>
      <point x="11" y="44" type="line"/>
    </contour>
  </outline>
</glyph>
<glyph name="F" format="2">
  <advance width="558.1"/>
  <unicode hex="0046"/>
  <anchor x="241" y="0" name="bottom"/>
  <anchor x="342" y="720" name="top"/>
  <outline>
    <contour>
      <point x="9" y="-5" type="line"/>
      <point x="54" y="-3"/>
      <point x="118" y="0"/>
      <point x="143" y="0" type="curve" smooth="yes"/>
      <point x="275" y="0" type="line"/>
      <point x="289" y="53" type="line"/>
      <point x="158" y="63" type="line"/>
      <point x="191" y="31" type="line"/>
      <point x="191" y="54"/>
      <point x="196" y="134"/>
      <point x="201" y="165" type="curve" smooth="yes"/>
      <point x="231" y="374" type="line"/>
      <point x="189" y="330" type="line"/>
      <point x="317" y="330" type="line" smooth="yes"/>
      <point x="333" y="330"/>
      <point x="391" y="325"/>
      <point x="428" y="321" type="curve"/>
      <point x="396" y="358" type="line"/>
      <point x="391" y="256" type="line"/>
      <point x="438" y="262" type="line"/>
      <point x="443" y="317"/>
      <point x="455" y="381"/>
      <point x="468" y="454" type="curve"/>
      <point x="424" y="459" type="line"/>
      <point x="392" y="357" type="line"/>
      <point x="437" y="393" type="line"/>
      <point x="406" y="390"/>
      <point x="354" y="384"/>
      <point x="343" y="384" type="curve" smooth="yes"/>
      <point x="197" y="384" type="line"/>
      <point x="229" y="360" type="line"/>
      <point x="255" y="538" type="line" smooth="yes"/>
      <point x="260" y="573"/>
      <point x="280" y="657"/>
      <point x="284" y="675" type="curve"/>
      <point x="245" y="651" type="line"/>
      <point x="406" y="651" type="line" smooth="yes"/>
      <point x="420" y="651"/>
      <point x="491" y="646"/>
      <point x="509" y="644" type="curve"/>
      <point x="466" y="676" type="line"/>
      <point x="481" y="654"/>
      <point x="498" y="624"/>
      <point x="499" y="612" type="curve" smooth="yes"/>
      <point x="500" y="604"/>
      <point x="501" y="574"/>
      <point x="502" y="558" type="curve"/>
      <point x="558" y="563" type="line"/>
      <point x="571" y="692" type="line"/>
      <point x="555" y="710" type="line"/>
      <point x="518" y="708"/>
      <point x="459" y="705"/>
      <point x="443" y="705" type="curve" smooth="yes"/>
      <point x="230" y="705" type="line" smooth="yes"/>
      <point x="213" y="705"/>
      <point x="153" y="708"/>
      <point x="115" y="710" type="curve"/>
      <point x="102" y="658" type="line"/>
      <point x="210" y="640" type="line"/>
      <point x="176" y="666" type="line"/>
      <point x="176" y="653"/>
      <point x="176" y="591"/>
      <point x="174" y="572" type="curve" smooth="yes"/>
      <point x="110" y="135" type="line" smooth="yes"/>
      <point x="107" y="116"/>
      <point x="88" y="53"/>
      <point x="82" y="32" type="curve"/>
      <point x="125" y="67" type="line"/>
      <point x="11" y="44" type="line"/>
    </contour>
  </outline>
</glyph>
<glyph name="H" format="2">
  <advance width="753.1"/>
  <unicode hex="0048"/>
  <anchor x="340" y="0" name="bottom"/>
  <anchor x="413" y="520" name="center"/>
  <anchor x="441" y="720" name="top"/>
  <anchor x="94" y="705" name="topleft"/>
  <outline>
    <contour>
      <point x="417" y="-5" type="line"/>
      <point x="462" y="-3"/>
      <point x="526" y="0"/>
      <point x="551" y="0" type="curve" smooth="yes"/>
      <point x="673" y="0" type="line"/>
      <point x="687" y="53" type="line"/>
      <point x="566" y="63" type="line"/>
      <point x="600" y="27" type="line"/>
      <point x="598" y="59"/>
      <point x="604" y="130"/>
      <point x="609" y="165" type="curve" smooth="yes"/>
      <point x="663" y="538" type="line" smooth="yes"/>
      <point x="669" y="579"/>
      <point x="687" y="656"/>
      <point x="694" y="681" type="curve"/>
      <point x="651" y="643" type="line"/>
      <point x="762" y="653" type="line"/>
      <point x="767" y="710" type="line"/>
      <point x="724" y="708"/>
      <point x="671" y="705"/>
      <point x="638" y="705" type="curve" smooth="yes"/>
      <point x="620" y="705"/>
      <point x="561" y="708"/>
      <point x="523" y="710" type="curve"/>
      <point x="510" y="658" type="line"/>
      <point x="618" y="640" type="line"/>
      <point x="584" y="681" type="line"/>
      <point x="585" y="658"/>
      <point x="584" y="589"/>
      <point x="582" y="572" type="curve" smooth="yes"/>
      <point x="518" y="135" type="line" smooth="yes"/>
      <point x="515" y="115"/>
      <point x="496" y="49"/>
      <point x="489" y="22" type="curve"/>
      <point x="533" y="67" type="line"/>
      <point x="419" y="44" type="line"/>
    </contour>
    <contour>
      <point x="9" y="-5" type="line"/>
      <point x="54" y="-3"/>
      <point x="118" y="0"/>
      <point x="143" y="0" type="curve" smooth="yes"/>
      <point x="265" y="0" type="line"/>
      <point x="279" y="53" type="line"/>
      <point x="158" y="63" type="line"/>
      <point x="192" y="27" type="line"/>
      <point x="190" y="59"/>
      <point x="196" y="130"/>
      <point x="201" y="165" type="curve" smooth="yes"/>
      <point x="255" y="538" type="line" smooth="yes"/>
      <point x="261" y="580"/>
      <point x="279" y="657"/>
      <point x="286" y="681" type="curve"/>
      <point x="243" y="643" type="line"/>
      <point x="354" y="653" type="line"/>
      <point x="359" y="710" type="line"/>
      <point x="316" y="708"/>
      <point x="263" y="705"/>
      <point x="230" y="705" type="curve" smooth="yes"/>
      <point x="212" y="705"/>
      <point x="153" y="708"/>
      <point x="115" y="710" type="curve"/>
      <point x="102" y="658" type="line"/>
      <point x="210" y="640" type="line"/>
      <point x="176" y="681" type="line"/>
      <point x="177" y="658"/>
      <point x="176" y="590"/>
      <point x="174" y="572" type="curve" smooth="yes"/>
      <point x="110" y="135" type="line" smooth="yes"/>
      <point x="107" y="116"/>
      <point x="88" y="49"/>
      <point x="81" y="22" type="curve"/>
      <point x="125" y="67" type="line"/>
      <point x="11" y="44" type="line"/>
    </contour>
    <contour>
      <point x="198" y="329" type="line"/>
      <point x="571" y="329" type="line"/>
      <point x="579" y="382" type="line"/>
      <point x="206" y="377" type="line"/>
    </contour>
  </outline>
</glyph>
<glyph name="J" format="2">
  <advance width="314.5"/>
  <unicode hex="004A"/>
  <anchor x="121" y="0" name="bottom"/>
  <anchor x="207" y="705" name="top"/>
  <outline>
    <contour>
      <point x="-4" y="-200" type="line"/>
      <point x="47" y="-147"/>
      <point x="151" y="-38"/>
      <point x="155" y="-12" type="curve" smooth="yes"/>
      <point x="235" y="538" type="line" smooth="yes"/>
      <point x="241" y="580"/>
      <point x="259" y="657"/>
      <point x="266" y="681" type="curve"/>
      <point x="223" y="643" type="line"/>
      <point x="334" y="653" type="line"/>
      <point x="339" y="710" type="line"/>
      <point x="295" y="708"/>
      <point x="242" y="705"/>
      <point x="209" y="705" type="curve" smooth="yes"/>
      <point x="191" y="705"/>
      <point x="132" y="708"/>
      <point x="95" y="710" type="curve"/>
      <point x="82" y="658" type="line"/>
      <point x="190" y="640" type="line"/>
      <point x="156" y="681" type="line"/>
      <point x="157" y="657"/>
      <point x="156" y="589"/>
      <point x="153" y="572" type="curve" smooth="yes"/>
      <point x="72" y="11" type="line" smooth="yes"/>
      <point x="69" y="-9"/>
      <point x="-34" y="-179"/>
      <point x="-34" y="-179" type="curve"/>
    </contour>
  </outline>
</glyph>
<glyph name="K" format="2">
  <advance width="693.9"/>
  <unicode hex="004B"/>
  <anchor x="309" y="0" name="bottom"/>
  <anchor x="410" y="720" name="top"/>
  <outline>
    <contour>
      <point x="361" y="-5" type="line"/>
      <point x="406" y="-3"/>
      <point x="470" y="0"/>
      <point x="495" y="0" type="curve" smooth="yes"/>
      <point x="622" y="0" type="line"/>
      <point x="636" y="53" type="line"/>
      <point x="534" y="63" type="line"/>
      <point x="581" y="47" type="line"/>
      <point x="565" y="63"/>
      <point x="517" y="109"/>
      <point x="503" y="129" type="curve" smooth="yes"/>
      <point x="321" y="388" type="line"/>
      <point x="309" y="345" type="line"/>
      <point x="494" y="546" type="line" smooth="yes"/>
      <point x="511" y="564"/>
      <point x="585" y="633"/>
      <point x="614" y="655" type="curve"/>
      <point x="568" y="643" type="line"/>
      <point x="677" y="653" type="line"/>
      <point x="681" y="710" type="line"/>
      <point x="639" y="708"/>
      <point x="588" y="705"/>
      <point x="557" y="705" type="curve" smooth="yes"/>
      <point x="537" y="705"/>
      <point x="490" y="708"/>
      <point x="456" y="710" type="curve"/>
      <point x="443" y="658" type="line"/>
      <point x="529" y="639" type="line"/>
      <point x="516" y="676" type="line"/>
      <point x="495" y="644"/>
      <point x="459" y="589"/>
      <point x="447" y="577" type="curve" smooth="yes"/>
      <point x="237" y="353" type="line"/>
      <point x="370" y="164" type="line" smooth="yes"/>
      <point x="388" y="138"/>
      <point x="422" y="60"/>
      <point x="428" y="46" type="curve"/>
      <point x="456" y="66" type="line"/>
      <point x="363" y="44" type="line"/>
    </contour>
    <contour>
      <point x="9" y="-5" type="line"/>
      <point x="54" y="-3"/>
      <point x="118" y="0"/>
      <point x="143" y="0" type="curve" smooth="yes"/>
      <point x="265" y="0" type="line"/>
      <point x="279" y="53" type="line"/>
      <point x="158" y="63" type="line"/>
      <point x="192" y="27" type="line"/>
      <point x="190" y="59"/>
      <point x="196" y="130"/>
      <point x="201" y="165" type="curve" smooth="yes"/>
      <point x="255" y="538" type="line" smooth="yes"/>
      <point x="261" y="580"/>
      <point x="279" y="657"/>
      <point x="286" y="681" type="curve"/>
      <point x="243" y="643" type="line"/>
      <point x="354" y="653" type="line"/>
      <point x="359" y="710" type="line"/>
      <point x="316" y="708"/>
      <point x="263" y="705"/>
      <point x="230" y="705" type="curve" smooth="yes"/>
      <point x="212" y="705"/>
      <point x="153" y="708"/>
      <point x="115" y="710" type="curve"/>
      <point x="102" y="658" type="line"/>
      <point x="210" y="640" type="line"/>
      <point x="176" y="681" type="line"/>
      <point x="177" y="658"/>
      <point x="176" y="590"/>
      <point x="174" y="572" type="curve" smooth="yes"/>
      <point x="110" y="135" type="line" smooth="yes"/>
      <point x="107" y="116"/>
      <point x="88" y="49"/>
      <point x="81" y="22" type="curve"/>
      <point x="125" y="67" type="line"/>
      <point x="11" y="44" type="line"/>
    </contour>
  </outline>
</glyph>
<glyph name="O" format="2">
  <advance width="749.6"/>
  <unicode hex="004F"/>
  <anchor x="337" y="0" name="bottom"/>
  <anchor x="387" y="353" name="center"/>
  <anchor x="474" y="0" name="ogonek"/>
  <anchor x="438" y="720" name="top"/>
  <anchor x="83" y="705" name="topleft"/>
  <anchor x="621" y="620" name="topright"/>
  <outline>
    <contour>
      <point x="336" y="-15" type="curve" smooth="yes"/>
      <point x="581" y="-15"/>
      <point x="711" y="175"/>
      <point x="711" y="421" type="curve" smooth="yes"/>
      <point x="711" y="598"/>
      <point x="620" y="720"/>
      <point x="438" y="720" type="curve" smooth="yes"/>
      <point x="194" y="720"/>
      <point x="63" y="530"/>
      <point x="63" y="283" type="curve" smooth="yes"/>
      <point x="63" y="107"/>
      <point x="155" y="-15"/>
    </contour>
    <contour>
      <point x="341" y="35" type="curve" smooth="yes"/>
      <point x="220" y="35"/>
      <point x="165" y="145"/>
      <point x="165" y="284" type="curve" smooth="yes"/>
      <point x="165" y="481"/>
      <point x="261" y="670"/>
      <point x="434" y="670" type="curve" smooth="yes"/>
      <point x="555" y="670"/>
      <point x="610" y="560"/>
      <point x="610" y="420" type="curve" smooth="yes"/>
      <point x="610" y="223"/>
      <point x="513" y="35"/>
    </contour>
  </outline>
</glyph>
<glyph name="P" format="2">
  <advance width="586.9"/>
  <unicode hex="0050"/>
  <anchor x="261" y="0" name="bottom"/>
  <anchor x="348" y="705" name="top"/>
  <outline>
    <contour>
      <point x="9" y="-5" type="line"/>
      <point x="54" y="-3"/>
      <point x="118" y="0"/>
      <point x="143" y="0" type="curve" smooth="yes"/>
      <point x="275" y="0" type="line"/>
      <point x="289" y="53" type="line"/>
      <point x="158" y="63" type="line"/>
      <point x="192" y="27" type="line"/>
      <point x="190" y="59"/>
      <point x="196" y="130"/>
      <point x="201" y="165" type="curve" smooth="yes"/>
      <point x="255" y="538" type="line" smooth="yes"/>
      <point x="261" y="580"/>
      <point x="279" y="657"/>
      <point x="286" y="681" type="curve"/>
      <point x="235" y="655" type="line" smooth="yes"/>
      <point x="274" y="658"/>
      <point x="323" y="662"/>
      <point x="342" y="662" type="curve" smooth="yes"/>
      <point x="432" y="662"/>
      <point x="488" y="616"/>
      <point x="488" y="530" type="curve" smooth="yes"/>
      <point x="488" y="405"/>
      <point x="409" y="341"/>
      <point x="294" y="341" type="curve" smooth="yes"/>
      <point x="253" y="341"/>
      <point x="199" y="349"/>
      <point x="159" y="355" type="curve"/>
      <point x="151" y="298" type="line"/>
      <point x="206" y="295"/>
      <point x="261" y="293"/>
      <point x="317" y="293" type="curve" smooth="yes"/>
      <point x="459" y="293"/>
      <point x="578" y="379"/>
      <point x="578" y="540" type="curve" smooth="yes"/>
      <point x="578" y="652"/>
      <point x="497" y="710"/>
      <point x="379" y="710" type="curve" smooth="yes"/>
      <point x="340" y="710"/>
      <point x="269" y="705"/>
      <point x="230" y="705" type="curve" smooth="yes"/>
      <point x="212" y="705"/>
      <point x="153" y="708"/>
      <point x="115" y="710" type="curve"/>
      <point x="102" y="658" type="line"/>
      <point x="210" y="640" type="line"/>
      <point x="176" y="681" type="line"/>
      <point x="177" y="658"/>
      <point x="176" y="590"/>
      <point x="174" y="572" type="curve" smooth="yes"/>
      <point x="110" y="135" type="line" smooth="yes"/>
      <point x="107" y="116"/>
      <point x="88" y="49"/>
      <point x="81" y="22" type="curve"/>
      <point x="125" y="67" type="line"/>
      <point x="11" y="44" type="line"/>
    </contour>
  </outline>
</glyph>
<glyph name="S" format="2">
  <advance width="551.3"/>
  <unicode hex="0053"/>
  <anchor x="240" y="0" name="bottom"/>
  <anchor x="350" y="720" name="top"/>
  <outline>
    <contour>
      <point x="235" y="-15" type="curve" smooth="yes"/>
      <point x="375" y="-15"/>
      <point x="494" y="58"/>
      <point x="494" y="205" type="curve" smooth="yes"/>
      <point x="494" y="399"/>
      <point x="198" y="403"/>
      <point x="198" y="542" type="curve" smooth="yes"/>
      <point x="198" y="623"/>
      <point x="260" y="668"/>
      <point x="327" y="668" type="curve" smooth="yes"/>
      <point x="380" y="668"/>
      <point x="416" y="663"/>
      <point x="468" y="633" type="curve"/>
      <point x="440" y="665" type="line"/>
      <point x="441" y="648"/>
      <point x="446" y="609"/>
      <point x="446" y="593" type="curve" smooth="yes"/>
      <point x="446" y="584"/>
      <point x="441" y="562"/>
      <point x="439" y="547" type="curve"/>
      <point x="494" y="540" type="line"/>
      <point x="530" y="688" type="line"/>
      <point x="470" y="704"/>
      <point x="399" y="720"/>
      <point x="336" y="720" type="curve" smooth="yes"/>
      <point x="204" y="720"/>
      <point x="100" y="645"/>
      <point x="100" y="514" type="curve" smooth="yes"/>
      <point x="100" y="330"/>
      <point x="391" y="328"/>
      <point x="391" y="184" type="curve" smooth="yes"/>
      <point x="391" y="97"/>
      <point x="331" y="42"/>
      <point x="242" y="42" type="curve" smooth="yes"/>
      <point x="187" y="42"/>
      <point x="135" y="60"/>
      <point x="103" y="77" type="curve"/>
      <point x="120" y="59" type="line"/>
      <point x="119" y="68"/>
      <point x="118" y="101"/>
      <point x="118" y="121" type="curve" smooth="yes"/>
      <point x="118" y="135"/>
      <point x="126" y="183"/>
      <point x="126" y="183" type="curve"/>
      <point x="63" y="189" type="line"/>
      <point x="27" y="38" type="line"/>
      <point x="90" y="1"/>
      <point x="163" y="-15"/>
    </contour>
  </outline>
</glyph>
<glyph name="V" format="2">
  <advance width="657.1"/>
  <unicode hex="0056"/>
  <anchor x="287" y="0" name="bottom"/>
  <anchor x="388" y="720" name="top"/>
  <outline>
    <contour>
      <point x="270" y="0" type="line"/>
      <point x="328" y="0" type="line"/>
      <point x="585" y="538" type="line" smooth="yes"/>
      <point x="602" y="573"/>
      <point x="650" y="651"/>
      <point x="665" y="667" type="curve"/>
      <point x="615" y="641" type="line"/>
      <point x="675" y="653" type="line"/>
      <point x="680" y="710" type="line"/>
      <point x="643" y="708"/>
      <point x="606" y="705"/>
      <point x="588" y="705" type="curve" smooth="yes"/>
      <point x="571" y="705"/>
      <point x="493" y="708"/>
      <point x="456" y="710" type="curve"/>
      <point x="442" y="657" type="line"/>
      <point x="589" y="640" type="line"/>
      <point x="561" y="664" type="line"/>
      <point x="557" y="649"/>
      <point x="541" y="593"/>
      <point x="532" y="572" type="curve" smooth="yes"/>
      <point x="311" y="112" type="line"/>
      <point x="334" y="110" type="line"/>
      <point x="238" y="539" type="line" smooth="yes"/>
      <point x="229" y="575"/>
      <point x="224" y="656"/>
      <point x="223" y="680" type="curve"/>
      <point x="191" y="643" type="line"/>
      <point x="337" y="653" type="line"/>
      <point x="341" y="710" type="line"/>
      <point x="296" y="708"/>
      <point x="208" y="705"/>
      <point x="183" y="705" type="curve" smooth="yes"/>
      <point x="166" y="705"/>
      <point x="130" y="708"/>
      <point x="93" y="710" type="curve"/>
      <point x="80" y="658" type="line"/>
      <point x="144" y="641" type="line"/>
      <point x="99" y="676" type="line"/>
      <point x="106" y="657"/>
      <point x="133" y="590"/>
      <point x="137" y="572" type="curve" smooth="yes"/>
    </contour>
  </outline>
</glyph>
<glyph name="X" format="2">
  <advance width="733.9"/>
  <unicode hex="0058"/>
  <anchor x="339" y="0" name="bottom"/>
  <anchor x="424" y="705" name="top"/>
  <outline>
    <contour>
      <point x="8" y="-5" type="line"/>
      <point x="56" y="-3"/>
      <point x="126" y="0"/>
      <point x="154" y="0" type="curve" smooth="yes"/>
      <point x="249" y="0" type="line"/>
      <point x="261" y="53" type="line"/>
      <point x="149" y="68" type="line"/>
      <point x="175" y="49" type="line"/>
      <point x="184" y="66"/>
      <point x="217" y="119"/>
      <point x="232" y="137" type="curve" smooth="yes"/>
      <point x="387" y="332" type="line"/>
      <point x="349" y="335" type="line"/>
      <point x="438" y="169" type="line" smooth="yes"/>
      <point x="457" y="132"/>
      <point x="485" y="71"/>
      <point x="484" y="50" type="curve"/>
      <point x="516" y="72" type="line"/>
      <point x="406" y="42" type="line"/>
      <point x="404" y="-5" type="line"/>
      <point x="458" y="-3"/>
      <point x="533" y="0"/>
      <point x="567" y="0" type="curve" smooth="yes"/>
      <point x="659" y="0" type="line"/>
      <point x="671" y="53" type="line"/>
      <point x="575" y="69" type="line"/>
      <point x="620" y="49" type="line"/>
      <point x="609" y="61"/>
      <point x="566" y="117"/>
      <point x="556" y="137" type="curve" smooth="yes"/>
      <point x="414" y="398" type="line"/>
      <point x="409" y="340" type="line"/>
      <point x="559" y="536" type="line" smooth="yes"/>
      <point x="587" y="572"/>
      <point x="663" y="640"/>
      <point x="678" y="651" type="curve"/>
      <point x="637" y="642" type="line"/>
      <point x="739" y="653" type="line"/>
      <point x="744" y="710" type="line"/>
      <point x="703" y="708"/>
      <point x="652" y="705"/>
      <point x="619" y="705" type="curve" smooth="yes"/>
      <point x="588" y="705"/>
      <point x="539" y="708"/>
      <point x="499" y="710" type="curve"/>
      <point x="485" y="657" type="line"/>
      <point x="595" y="639" type="line"/>
      <point x="569" y="656" type="line"/>
      <point x="559" y="643"/>
      <point x="527" y="588"/>
      <point x="512" y="568" type="curve" smooth="yes"/>
      <point x="380" y="391" type="line"/>
      <point x="417" y="388" type="line"/>
      <point x="337" y="538" type="line" smooth="yes"/>
      <point x="317" y="574"/>
      <point x="298" y="644"/>
      <point x="297" y="655" type="curve"/>
      <point x="264" y="643" type="line"/>
      <point x="379" y="653" type="line"/>
      <point x="383" y="710" type="line"/>
      <point x="335" y="708"/>
      <point x="280" y="705"/>
      <point x="241" y="705" type="curve" smooth="yes"/>
      <point x="208" y="705"/>
      <point x="158" y="708"/>
      <point x="116" y="710" type="curve"/>
      <point x="103" y="658" type="line"/>
      <point x="212" y="643" type="line"/>
      <point x="170" y="660" type="line"/>
      <point x="178" y="649"/>
      <point x="208" y="594"/>
      <point x="221" y="570" type="curve" smooth="yes"/>
      <point x="352" y="326" type="line"/>
      <point x="358" y="382" type="line"/>
      <point x="183" y="167" type="line" smooth="yes"/>
      <point x="153" y="131"/>
      <point x="85" y="71"/>
      <point x="63" y="51" type="curve"/>
      <point x="106" y="70" type="line"/>
      <point x="11" y="42" type="line"/>
    </contour>
  </outline>
</glyph>
<glyph name="Y" format="2">
  <advance width="629.1"/>
  <unicode hex="0059"/>
  <anchor x="273" y="0" name="bottom"/>
  <anchor x="374" y="720" name="top"/>
  <anchor x="87" y="705" name="topleft"/>
  <outline>
    <contour>
      <point x="275" y="238" type="line"/>
      <point x="332" y="238" type="line"/>
      <point x="527" y="538" type="line" smooth="yes"/>
      <point x="551" y="575"/>
      <point x="613" y="650"/>
      <point x="626" y="667" type="curve"/>
      <point x="577" y="641" type="line"/>
      <point x="648" y="653" type="line"/>
      <point x="653" y="710" type="line"/>
      <point x="616" y="708"/>
      <point x="568" y="705"/>
      <point x="550" y="705" type="curve" smooth="yes"/>
      <point x="533" y="705"/>
      <point x="476" y="708"/>
      <point x="439" y="710" type="curve"/>
      <point x="425" y="657" type="line"/>
      <point x="551" y="640" type="line"/>
      <point x="520" y="664" type="line"/>
      <point x="517" y="649"/>
      <point x="485" y="592"/>
      <point x="473" y="572" type="curve" smooth="yes"/>
      <point x="313" y="313" type="line"/>
      <point x="343" y="310" type="line"/>
      <point x="256" y="537" type="line" smooth="yes"/>
      <point x="246" y="564"/>
      <point x="229" y="654"/>
      <point x="229" y="680" type="curve"/>
      <point x="200" y="643" type="line"/>
      <point x="325" y="653" type="line"/>
      <point x="329" y="710" type="line"/>
      <point x="284" y="708"/>
      <point x="218" y="705"/>
      <point x="192" y="705" type="curve" smooth="yes"/>
      <point x="176" y="705"/>
      <point x="129" y="708"/>
      <point x="92" y="710" type="curve"/>
      <point x="79" y="658" type="line"/>
      <point x="153" y="641" type="line"/>
      <point x="106" y="676" type="line"/>
      <point x="116" y="657"/>
      <point x="149" y="590"/>
      <point x="155" y="572" type="curve" smooth="yes"/>
    </contour>
    <contour>
      <point x="138" y="-5" type="line"/>
      <point x="182" y="-3"/>
      <point x="257" y="0"/>
      <point x="282" y="0" type="curve" smooth="yes"/>
      <point x="414" y="0" type="line"/>
      <point x="428" y="53" type="line"/>
      <point x="297" y="63" type="line"/>
      <point x="331" y="27" type="line"/>
      <point x="329" y="59"/>
      <point x="335" y="130"/>
      <point x="340" y="165" type="curve" smooth="yes"/>
      <point x="361" y="310" type="line"/>
      <point x="275" y="310" type="line"/>
      <point x="249" y="135" type="line" smooth="yes"/>
      <point x="246" y="116"/>
      <point x="226" y="49"/>
      <point x="219" y="22" type="curve"/>
      <point x="264" y="67" type="line"/>
      <point x="140" y="44" type="line"/>
    </contour>
  </outline>
</glyph>
<glyph name="bracketleft" format="2">
  <advance width="396"/>
  <unicode hex="005B"/>
  <outline>
    <contour>
      <point x="274" y="-107" type="line"/>
      <point x="282" y="-66" type="line"/>
      <point x="148" y="-49" type="line"/>
      <point x="174" y="-87" type="line"/>
      <point x="171" y="-49"/>
      <point x="173" y="25"/>
      <point x="178" y="64" type="curve" smooth="yes"/>
      <point x="250" y="654" type="line" smooth="yes"/>
      <point x="254" y="684"/>
      <point x="268" y="751"/>
      <point x="284" y="806" type="curve"/>
      <point x="248" y="771" type="line"/>
      <point x="388" y="789" type="line"/>
      <point x="389" y="829" type="line"/>
      <point x="214" y="825" type="line"/>
      <point x="193" y="809" type="line"/>
      <point x="188" y="727"/>
      <point x="181" y="626"/>
      <point x="179" y="606" type="curve" smooth="yes"/>
      <point x="120" y="120" type="line" smooth="yes"/>
      <point x="118" y="100"/>
      <point x="92" y="-36"/>
      <point x="84" y="-83" type="curve"/>
      <point x="101" y="-103" type="line"/>
    </contour>
  </outline>
</glyph>
<glyph name="bracketright" format="2">
  <advance width="395"/>
  <unicode hex="005D"/>
  <outline>
    <contour>
      <point x="149" y="829" type="line"/>
      <point x="141" y="788" type="line"/>
      <point x="275" y="771" type="line"/>
      <point x="249" y="809" type="line"/>
      <point x="252" y="771"/>
      <point x="250" y="697"/>
      <point x="245" y="658" type="curve" smooth="yes"/>
      <point x="173" y="68" type="line" smooth="yes"/>
      <point x="169" y="38"/>
      <point x="154" y="-34"/>
      <point x="139" y="-84" type="curve"/>
      <point x="175" y="-49" type="line"/>
      <point x="35" y="-67" type="line"/>
      <point x="34" y="-107" type="line"/>
      <point x="209" y="-103" type="line"/>
      <point x="230" y="-87" type="line"/>
      <point x="235" y="-5"/>
      <point x="241" y="96"/>
      <point x="244" y="116" type="curve"/>
      <point x="303" y="602" type="line"/>
      <point x="306" y="622"/>
      <point x="331" y="758"/>
      <point x="339" y="805" type="curve"/>
      <point x="322" y="825" type="line"/>
    </contour>
  </outline>
</glyph>
<glyph name="c" format="2">
  <advance width="409.8"/>
  <unicode hex="0063"/>
  <anchor x="143" y="0" name="bottom"/>
  <anchor x="278" y="494" name="top"/>
  <outline>
    <contour>
      <point x="141" y="-10" type="curve" smooth="yes"/>
      <point x="226" y="-10"/>
      <point x="307" y="39"/>
      <point x="363" y="134" type="curve"/>
      <point x="334" y="154" type="line"/>
      <point x="285" y="84"/>
      <point x="227" y="46"/>
      <point x="174" y="46" type="curve" smooth="yes"/>
      <point x="135" y="46"/>
      <point x="112" y="83"/>
      <point x="112" y="150" type="curve" smooth="yes"/>
      <point x="112" y="266"/>
      <point x="181" y="447"/>
      <point x="228" y="447" type="curve" smooth="yes"/>
      <point x="247" y="447"/>
      <point x="268" y="442"/>
      <point x="357" y="410" type="curve"/>
      <point x="312" y="454" type="line"/>
      <point x="321" y="328" type="line"/>
      <point x="354" y="326" type="line"/>
      <point x="392" y="472" type="line"/>
      <point x="379" y="493" type="line"/>
      <point x="301" y="503"/>
      <point x="251" y="508"/>
      <point x="230" y="508" type="curve" smooth="yes"/>
      <point x="147" y="508"/>
      <point x="30" y="293"/>
      <point x="30" y="141" type="curve" smooth="yes"/>
      <point x="30" y="44"/>
      <point x="67" y="-10"/>
    </contour>
  </outline>
</glyph>
<glyph name="e" format="2">
  <advance width="403.8"/>
  <unicode hex="0065"/>
  <anchor x="126" y="0" name="bottom"/>
  <anchor x="228" y="0" name="ogonek"/>
  <anchor x="240" y="494" name="top"/>
  <outline>
    <contour>
      <point x="142" y="-10" type="curve" smooth="yes"/>
      <point x="226" y="-10"/>
      <point x="305" y="39"/>
      <point x="360" y="133" type="curve"/>
      <point x="330" y="153" type="line"/>
      <point x="279" y="82"/>
      <point x="221" y="47"/>
      <point x="173" y="47" type="curve" smooth="yes"/>
      <point x="132" y="47"/>
      <point x="112" y="84"/>
      <point x="112" y="150" type="curve" smooth="yes"/>
      <point x="112" y="270"/>
      <point x="185" y="453"/>
      <point x="235" y="453" type="curve" smooth="yes"/>
      <point x="281" y="453"/>
      <point x="301" y="438"/>
      <point x="301" y="404" type="curve" smooth="yes"/>
      <point x="301" y="330"/>
      <point x="218" y="270"/>
      <point x="97" y="252" type="curve"/>
      <point x="96" y="210" type="line"/>
      <point x="274" y="242"/>
      <point x="382" y="325"/>
      <point x="382" y="430" type="curve" smooth="yes"/>
      <point x="382" y="481"/>
      <point x="330" y="508"/>
      <point x="237" y="508" type="curve" smooth="yes"/>
      <point x="152" y="508"/>
      <point x="30" y="295"/>
      <point x="30" y="141" type="curve" smooth="yes"/>
      <point x="30" y="43"/>
      <point x="69" y="-10"/>
    </contour>
  </outline>
</glyph>
<glyph name="h" format="2">
  <advance width="529.5"/>
  <unicode hex="0068"/>
  <anchor x="223" y="0" name="bottom"/>
  <anchor x="179" y="610" name="center"/>
  <anchor x="154" y="718" name="top"/>
  <outline>
    <contour>
      <point x="51" y="-10" type="line"/>
      <point x="110" y="5" type="line"/>
      <point x="115" y="50"/>
      <point x="117" y="81"/>
      <point x="125" y="137" type="curve"/>
      <point x="178" y="338"/>
      <point x="286" y="441"/>
      <point x="329" y="441" type="curve" smooth="yes"/>
      <point x="356" y="441"/>
      <point x="363" y="415"/>
      <point x="363" y="386" type="curve" smooth="yes"/>
      <point x="363" y="290"/>
      <point x="329" y="131"/>
      <point x="301" y="5" type="curve"/>
      <point x="324" y="-10" type="line"/>
      <point x="490" y="35" type="line"/>
      <point x="492" y="68" type="line"/>
      <point x="363" y="75" type="line"/>
      <point x="394" y="46" type="line"/>
      <point x="398" y="180"/>
      <point x="449" y="329"/>
      <point x="449" y="424" type="curve" smooth="yes"/>
      <point x="449" y="470"/>
      <point x="427" y="508"/>
      <point x="377" y="508" type="curve" smooth="yes"/>
      <point x="267" y="508"/>
      <point x="179" y="378"/>
      <point x="142" y="306" type="curve"/>
      <point x="150" y="303" type="line"/>
      <point x="173" y="460"/>
      <point x="200" y="607"/>
      <point x="225" y="752" type="curve"/>
      <point x="204" y="770" type="line"/>
      <point x="45" y="743" type="line"/>
      <point x="48" y="707" type="line"/>
      <point x="165" y="689" type="line"/>
      <point x="135" y="712" type="line"/>
      <point x="121" y="515"/>
      <point x="72" y="177"/>
      <point x="28" y="5" type="curve"/>
    </contour>
  </outline>
</glyph>
<glyph name="k" format="2">
  <advance width="490"/>
  <unicode hex="006B"/>
  <anchor x="216" y="0" name="bottom"/>
  <anchor x="295" y="750" name="top"/>
  <outline>
    <contour>
      <point x="51" y="-10" type="line"/>
      <point x="110" y="5" type="line"/>
      <point x="110" y="5"/>
      <point x="122" y="98"/>
      <point x="128" y="140" type="curve"/>
      <point x="171" y="313"/>
      <point x="270" y="437"/>
      <point x="345" y="437" type="curve" smooth="yes"/>
      <point x="360" y="437"/>
      <point x="371" y="426"/>
      <point x="371" y="406" type="curve" smooth="yes"/>
      <point x="371" y="337"/>
      <point x="300" y="271"/>
      <point x="176" y="233" type="curve"/>
      <point x="176" y="197" type="line"/>
      <point x="306" y="-10" type="line"/>
      <point x="446" y="35" type="line"/>
      <point x="450" y="68" type="line"/>
      <point x="324" y="68" type="line"/>
      <point x="368" y="54" type="line"/>
      <point x="326" y="94"/>
      <point x="272" y="169"/>
      <point x="237" y="229" type="curve"/>
      <point x="221" y="209" type="line"/>
      <point x="354" y="244"/>
      <point x="440" y="335"/>
      <point x="440" y="428" type="curve" smooth="yes"/>
      <point x="440" y="476"/>
      <point x="418" y="508"/>
      <point x="376" y="508" type="curve" smooth="yes"/>
      <point x="293" y="508"/>
      <point x="204" y="436"/>
      <point x="144" y="306" type="curve"/>
      <point x="153" y="310" type="line"/>
      <point x="174" y="457"/>
      <point x="183" y="493"/>
      <point x="226" y="752" type="curve"/>
      <point x="206" y="770" type="line"/>
      <point x="46" y="743" type="line"/>
      <point x="47" y="707" type="line"/>
      <point x="165" y="689" type="line"/>
      <point x="136" y="712" type="line"/>
      <point x="117" y="483"/>
      <point x="67" y="160"/>
      <point x="28" y="5" type="curve"/>
    </contour>
  </outline>
</glyph>
<glyph name="n" format="2">
  <advance width="554.1"/>
  <unicode hex="006E"/>
  <anchor x="238" y="0" name="bottom"/>
  <anchor x="310" y="494" name="top"/>
  <outline>
    <contour>
      <point x="79" y="-10" type="line"/>
      <point x="138" y="5" type="line"/>
      <point x="142" y="43"/>
      <point x="146" y="75"/>
      <point x="153" y="115" type="curve"/>
      <point x="206" y="336"/>
      <point x="313" y="442"/>
      <point x="354" y="442" type="curve" smooth="yes"/>
      <point x="382" y="442"/>
      <point x="389" y="415"/>
      <point x="389" y="387" type="curve" smooth="yes"/>
      <point x="389" y="290"/>
      <point x="354" y="136"/>
      <point x="326" y="5" type="curve"/>
      <point x="349" y="-10" type="line"/>
      <point x="515" y="35" type="line"/>
      <point x="518" y="68" type="line"/>
      <point x="390" y="74" type="line"/>
      <point x="420" y="51" type="line"/>
      <point x="425" y="187"/>
      <point x="473" y="330"/>
      <point x="473" y="426" type="curve" smooth="yes"/>
      <point x="473" y="470"/>
      <point x="454" y="508"/>
      <point x="403" y="508" type="curve" smooth="yes"/>
      <point x="300" y="508"/>
      <point x="214" y="386"/>
      <point x="180" y="312" type="curve"/>
      <point x="185" y="303" type="line"/>
      <point x="197" y="375"/>
      <point x="205" y="442"/>
      <point x="219" y="489" type="curve"/>
      <point x="200" y="508" type="line"/>
      <point x="39" y="463" type="line"/>
      <point x="39" y="428" type="line"/>
      <point x="156" y="422" type="line"/>
      <point x="127" y="448" type="line"/>
      <point x="109" y="270"/>
      <point x="107" y="216"/>
      <point x="55" y="5" type="curve"/>
    </contour>
  </outline>
</glyph>
<glyph name="w" format="2">
  <advance width="746.9"/>
  <unicode hex="0077"/>
  <anchor x="342" y="0" name="bottom"/>
  <anchor x="402" y="494" name="top"/>
  <outline>
    <contour>
      <point x="143" y="-10" type="curve" smooth="yes"/>
      <point x="209" y="-10"/>
      <point x="303" y="45"/>
      <point x="376" y="164" type="curve"/>
      <point x="368" y="168" type="line"/>
      <point x="358" y="119"/>
      <point x="349" y="80"/>
      <point x="349" y="62" type="curve" smooth="yes"/>
      <point x="349" y="25"/>
      <point x="367" y="-10"/>
      <point x="400" y="-10" type="curve" smooth="yes"/>
      <point x="524" y="-10"/>
      <point x="731" y="178"/>
      <point x="731" y="495" type="curve"/>
      <point x="708" y="508" type="line"/>
      <point x="556" y="463" type="line"/>
      <point x="563" y="428" type="line"/>
      <point x="676" y="422" type="line"/>
      <point x="639" y="464" type="line"/>
      <point x="645" y="416"/>
      <point x="650" y="369"/>
      <point x="650" y="355" type="curve" smooth="yes"/>
      <point x="650" y="208"/>
      <point x="514" y="61"/>
      <point x="452" y="61" type="curve" smooth="yes"/>
      <point x="433" y="61"/>
      <point x="428" y="73"/>
      <point x="428" y="94" type="curve" smooth="yes"/>
      <point x="428" y="164"/>
      <point x="460" y="340"/>
      <point x="460" y="376" type="curve"/>
      <point x="456" y="493" type="line"/>
      <point x="434" y="507" type="line"/>
      <point x="371" y="489" type="line"/>
      <point x="377" y="432"/>
      <point x="386" y="364"/>
      <point x="386" y="355" type="curve" smooth="yes"/>
      <point x="386" y="210"/>
      <point x="255" y="61"/>
      <point x="195" y="61" type="curve" smooth="yes"/>
      <point x="178" y="61"/>
      <point x="171" y="75"/>
      <point x="171" y="95" type="curve" smooth="yes"/>
      <point x="171" y="165"/>
      <point x="208" y="340"/>
      <point x="208" y="376" type="curve" smooth="yes"/>
      <point x="208" y="495" type="line"/>
      <point x="184" y="508" type="line"/>
      <point x="39" y="463" type="line"/>
      <point x="45" y="428" type="line"/>
      <point x="160" y="422" type="line"/>
      <point x="127" y="451" type="line"/>
      <point x="130" y="429"/>
      <point x="131" y="378"/>
      <point x="131" y="349" type="curve" smooth="yes"/>
      <point x="131" y="271"/>
      <point x="86" y="110"/>
      <point x="86" y="58" type="curve" smooth="yes"/>
      <point x="86" y="21"/>
      <point x="104" y="-10"/>
    </contour>
  </outline>
</glyph>
<glyph name="x" format="2">
  <advance width="507"/>
  <unicode hex="0078"/>
  <anchor x="220" y="0" name="bottom"/>
  <anchor x="289" y="494" name="top"/>
  <outline>
    <contour>
      <point x="324" y="-10" type="line"/>
      <point x="459" y="35" type="line"/>
      <point x="463" y="68" type="line"/>
      <point x="328" y="74" type="line"/>
      <point x="370" y="50" type="line"/>
      <point x="300" y="211"/>
      <point x="252" y="349"/>
      <point x="210" y="496" type="curve"/>
      <point x="189" y="508" type="line"/>
      <point x="51" y="468" type="line"/>
      <point x="58" y="433" type="line"/>
      <point x="171" y="428" type="line"/>
      <point x="130" y="444" type="line"/>
      <point x="202" y="321"/>
      <point x="242" y="192"/>
      <point x="304" y="5" type="curve"/>
    </contour>
    <contour>
      <point x="50" y="-10" type="line"/>
      <point x="133" y="53" type="line"/>
      <point x="175" y="101"/>
      <point x="221" y="171"/>
      <point x="254" y="218" type="curve"/>
      <point x="230" y="271" type="line"/>
      <point x="189" y="207"/>
      <point x="120" y="113"/>
      <point x="113" y="108" type="curve" smooth="yes"/>
      <point x="106" y="103"/>
      <point x="30" y="72"/>
      <point x="7" y="63" type="curve"/>
      <point x="29" y="5" type="line"/>
    </contour>
    <contour>
      <point x="279" y="228" type="line"/>
      <point x="306" y="269"/>
      <point x="376" y="379"/>
      <point x="392" y="390" type="curve" smooth="yes"/>
      <point x="401" y="396"/>
      <point x="451" y="422"/>
      <point x="489" y="435" type="curve"/>
      <point x="475" y="493" type="line"/>
      <point x="455" y="508" type="line"/>
      <point x="373" y="444" type="line"/>
      <point x="338" y="404"/>
      <point x="293" y="330"/>
      <point x="256" y="279" type="curve"/>
    </contour>
  </outline>
</glyph>
<glyph name="asciitilde" format="2">
  <advance width="683.7"/>
  <unicode hex="007E"/>
  <outline>
    <contour>
      <point x="454" y="177" type="curve" smooth="yes"/>
      <point x="504" y="177"/>
      <point x="575" y="283"/>
      <point x="573" y="279" type="curve"/>
      <point x="539" y="311" type="line"/>
      <point x="540" y="313"/>
      <point x="491" y="256"/>
      <point x="462" y="256" type="curve" smooth="yes"/>
      <point x="409" y="256"/>
      <point x="298" y="316"/>
      <point x="230" y="316" type="curve" smooth="yes"/>
      <point x="181" y="316"/>
      <point x="109" y="209"/>
      <point x="111" y="213" type="curve"/>
      <point x="146" y="181" type="line"/>
      <point x="144" y="179"/>
      <point x="194" y="237"/>
      <point x="223" y="237" type="curve" smooth="yes"/>
      <point x="275" y="237"/>
      <point x="396" y="177"/>
    </contour>
  </outline>
</glyph>
<glyph name="cent" format="2">
  <advance width="523"/>
  <unicode hex="00A2"/>
  <outline>
    <contour>
      <point x="269" y="70" type="curve" smooth="yes"/>
      <point x="371" y="70"/>
      <point x="441" y="127"/>
      <point x="441" y="123" type="curve"/>
      <point x="420" y="169" type="line"/>
      <point x="420" y="169"/>
      <point x="354" y="133"/>
      <point x="278" y="133" type="curve" smooth="yes"/>
      <point x="198" y="133"/>
      <point x="168" y="199"/>
      <point x="168" y="278" type="curve" smooth="yes"/>
      <point x="168" y="420"/>
      <point x="239" y="528"/>
      <point x="332" y="528" type="curve" smooth="yes"/>
      <point x="366" y="528"/>
      <point x="398" y="511"/>
      <point x="431" y="493" type="curve"/>
      <point x="402" y="525" type="line"/>
      <point x="408" y="496"/>
      <point x="411" y="476"/>
      <point x="410" y="464" type="curve" smooth="yes"/>
      <point x="405" y="429" type="line"/>
      <point x="461" y="426" type="line"/>
      <point x="487" y="547" type="line"/>
      <point x="432" y="569"/>
      <point x="396" y="583"/>
      <point x="340" y="583" type="curve" smooth="yes"/>
      <point x="182" y="583"/>
      <point x="77" y="458"/>
      <point x="77" y="273" type="curve" smooth="yes"/>
      <point x="77" y="151"/>
      <point x="140" y="70"/>
    </contour>
    <contour>
      <point x="253" y="-66" type="line"/>
      <point x="287" y="132" type="line"/>
      <point x="244" y="132" type="line"/>
      <point x="210" y="-63" type="line"/>
    </contour>
    <contour>
      <point x="317" y="553" type="line"/>
      <point x="360" y="553" type="line"/>
      <point x="388" y="716" type="line"/>
      <point x="346" y="719" type="line"/>
    </contour>
  </outline>
</glyph>
<glyph name="sterling" format="2">
  <advance width="642.1"/>
  <unicode hex="00A3"/>
  <outline>
    <contour>
      <point x="133" y="55" type="curve"/>
      <point x="237" y="55" type="line"/>
      <point x="238" y="122"/>
      <point x="240" y="127"/>
      <point x="244" y="164" type="curve" smooth="yes"/>
      <point x="290" y="511" type="line" smooth="yes"/>
      <point x="298" y="574"/>
      <point x="344" y="610"/>
      <point x="410" y="610" type="curve" smooth="yes"/>
      <point x="455" y="610"/>
      <point x="503" y="597"/>
      <point x="542" y="580" type="curve"/>
      <point x="506" y="621" type="line"/>
      <point x="511" y="595"/>
      <point x="516" y="546"/>
      <point x="514" y="530" type="curve" smooth="yes"/>
      <point x="509" y="490" type="line"/>
      <point x="565" y="484" type="line"/>
      <point x="598" y="630" type="line"/>
      <point x="545" y="644"/>
      <point x="479" y="662"/>
      <point x="419" y="662" type="curve" smooth="yes"/>
      <point x="308" y="662"/>
      <point x="215" y="604"/>
      <point x="201" y="498" type="curve" smooth="yes"/>
      <point x="153" y="134" type="line" smooth="yes"/>
      <point x="151" y="119"/>
      <point x="142" y="89"/>
    </contour>
    <contour>
      <point x="53" y="-5" type="line"/>
      <point x="91" y="-3"/>
      <point x="137" y="0"/>
      <point x="168" y="0" type="curve" smooth="yes"/>
      <point x="496" y="0" type="line"/>
      <point x="517" y="18" type="line"/>
      <point x="551" y="163" type="line"/>
      <point x="498" y="168" type="line"/>
      <point x="475" y="100" type="line" smooth="yes"/>
      <point x="470" y="85"/>
      <point x="443" y="52"/>
      <point x="427" y="34" type="curve"/>
      <point x="484" y="67" type="line"/>
      <point x="443" y="62"/>
      <point x="377" y="54"/>
      <point x="362" y="54" type="curve" smooth="yes"/>
      <point x="211" y="54" type="line"/>
      <point x="133" y="58" type="line"/>
      <point x="55" y="43" type="line"/>
    </contour>
    <contour>
      <point x="69" y="277" type="line"/>
      <point x="473" y="296" type="line"/>
      <point x="476" y="335" type="line"/>
      <point x="72" y="317" type="line"/>
    </contour>
  </outline>
</glyph>
<glyph name="yen" format="2">
  <advance width="717"/>
  <unicode hex="00A5"/>
  <outline>
    <contour>
      <point x="321" y="218" type="line"/>
      <point x="378" y="218" type="line"/>
      <point x="567" y="507" type="line"/>
      <point x="606" y="564"/>
      <point x="641" y="602"/>
      <point x="659" y="619" type="curve"/>
      <point x="604" y="594" type="line"/>
      <point x="703" y="604" type="line"/>
      <point x="708" y="659" type="line"/>
      <point x="708" y="659"/>
      <point x="618" y="655"/>
      <point x="572" y="655" type="curve" smooth="yes"/>
      <point x="553" y="655"/>
      <point x="487" y="659"/>
      <point x="487" y="659" type="curve"/>
      <point x="475" y="608" type="line"/>
      <point x="577" y="588" type="line"/>
      <point x="563" y="627" type="line"/>
      <point x="557" y="613"/>
      <point x="529" y="566"/>
      <point x="512" y="537" type="curve"/>
      <point x="355" y="289" type="line"/>
      <point x="387" y="290" type="line"/>
      <point x="304" y="497" type="line"/>
      <point x="276" y="559"/>
      <point x="271" y="605"/>
      <point x="273" y="619" type="curve"/>
      <point x="241" y="590" type="line"/>
      <point x="351" y="604" type="line"/>
      <point x="355" y="659" type="line"/>
      <point x="355" y="659"/>
      <point x="278" y="655"/>
      <point x="221" y="655" type="curve" smooth="yes"/>
      <point x="204" y="655"/>
      <point x="114" y="659"/>
      <point x="114" y="659" type="curve"/>
      <point x="103" y="608" type="line"/>
      <point x="195" y="587" type="line"/>
      <point x="148" y="619" type="line"/>
      <point x="157" y="606"/>
      <point x="188" y="563"/>
      <point x="206" y="518" type="curve" smooth="yes"/>
    </contour>
    <contour>
      <point x="204" y="-5" type="line"/>
      <point x="204" y="-5"/>
      <point x="308" y="0"/>
      <point x="331" y="0" type="curve"/>
      <point x="453" y="0" type="line"/>
      <point x="467" y="50" type="line"/>
      <point x="348" y="60" type="line"/>
      <point x="383" y="26" type="line"/>
      <point x="382" y="53"/>
      <point x="384" y="105"/>
      <point x="390" y="157" type="curve" smooth="yes"/>
      <point x="408" y="297" type="line"/>
      <point x="321" y="297" type="line"/>
      <point x="300" y="129" type="line" smooth="yes"/>
      <point x="297" y="106"/>
      <point x="277" y="39"/>
      <point x="272" y="26" type="curve"/>
      <point x="316" y="64" type="line"/>
      <point x="206" y="42" type="line"/>
    </contour>
    <contour>
      <point x="109" y="149" type="line"/>
      <point x="581" y="168" type="line"/>
      <point x="583" y="207" type="line"/>
      <point x="113" y="189" type="line"/>
    </contour>
    <contour>
      <point x="118" y="255" type="line"/>
      <point x="590" y="274" type="line"/>
      <point x="592" y="313" type="line"/>
      <point x="122" y="295" type="line"/>
    </contour>
  </outline>
</glyph>
<glyph name="brokenbar" format="2">
  <advance width="290.2"/>
  <unicode hex="00A6"/>
  <outline>
    <contour>
      <point x="192" y="392" type="line"/>
      <point x="239" y="752" type="line"/>
      <point x="178" y="760" type="line"/>
      <point x="127" y="400" type="line"/>
    </contour>
    <contour>
      <point x="122" y="-122" type="line"/>
      <point x="165" y="205" type="line"/>
      <point x="96" y="212" type="line"/>
      <point x="50" y="-113" type="line"/>
    </contour>
  </outline>
</glyph>
<glyph name="registered" format="2">
  <advance width="898.6"/>
  <unicode hex="00AE"/>
  <outline>
    <contour>
      <point x="461" y="-15" type="curve" smooth="yes"/>
      <point x="663" y="-15"/>
      <point x="827" y="152"/>
      <point x="827" y="350" type="curve" smooth="yes"/>
      <point x="827" y="554"/>
      <point x="664" y="715"/>
      <point x="461" y="715" type="curve" smooth="yes"/>
      <point x="261" y="715"/>
      <point x="96" y="552"/>
      <point x="96" y="350" type="curve" smooth="yes"/>
      <point x="96" y="144"/>
      <point x="263" y="-15"/>
    </contour>
    <contour>
      <point x="285" y="154" type="line"/>
      <point x="313" y="155"/>
      <point x="351" y="157"/>
      <point x="370" y="157" type="curve" smooth="yes"/>
      <point x="448" y="157" type="line"/>
      <point x="457" y="194" type="line"/>
      <point x="383" y="200" type="line"/>
      <point x="412" y="178" type="line"/>
      <point x="412" y="195"/>
      <point x="415" y="236"/>
      <point x="418" y="263" type="curve" smooth="yes"/>
      <point x="449" y="476" type="line" smooth="yes"/>
      <point x="452" y="499"/>
      <point x="462" y="535"/>
      <point x="468" y="553" type="curve"/>
      <point x="418" y="573" type="line"/>
      <point x="405" y="573"/>
      <point x="363" y="575"/>
      <point x="347" y="576" type="curve"/>
      <point x="338" y="538" type="line"/>
      <point x="408" y="525" type="line"/>
      <point x="379" y="553" type="line"/>
      <point x="379" y="540"/>
      <point x="380" y="501"/>
      <point x="376" y="475" type="curve" smooth="yes"/>
      <point x="342" y="246" type="line" smooth="yes"/>
      <point x="341" y="232"/>
      <point x="330" y="198"/>
      <point x="325" y="181" type="curve"/>
      <point x="359" y="204" type="line"/>
      <point x="287" y="189" type="line"/>
    </contour>
    <contour>
      <point x="461" y="27" type="curve" smooth="yes"/>
      <point x="284" y="27"/>
      <point x="138" y="173"/>
      <point x="138" y="350" type="curve" smooth="yes"/>
      <point x="138" y="531"/>
      <point x="284" y="674"/>
      <point x="461" y="674" type="curve" smooth="yes"/>
      <point x="640" y="674"/>
      <point x="785" y="526"/>
      <point x="785" y="350" type="curve" smooth="yes"/>
      <point x="785" y="173"/>
      <point x="641" y="27"/>
    </contour>
    <contour>
      <point x="533" y="157" type="curve"/>
      <point x="635" y="157" type="line"/>
      <point x="644" y="194" type="line"/>
      <point x="580" y="200" type="line"/>
      <point x="617" y="181" type="line"/>
      <point x="609" y="197"/>
      <point x="599" y="217"/>
      <point x="590" y="234" type="curve" smooth="yes"/>
      <point x="587" y="240"/>
      <point x="558" y="300"/>
      <point x="536" y="363" type="curve"/>
      <point x="461" y="361" type="line"/>
      <point x="511" y="225" type="line" smooth="yes"/>
      <point x="522" y="195"/>
      <point x="525" y="179"/>
    </contour>
    <contour>
      <point x="470" y="328" type="curve" smooth="yes"/>
      <point x="559" y="328"/>
      <point x="641" y="383"/>
      <point x="641" y="474" type="curve" smooth="yes"/>
      <point x="641" y="540"/>
      <point x="592" y="576"/>
      <point x="519" y="576" type="curve" smooth="yes"/>
      <point x="493" y="576"/>
      <point x="445" y="573"/>
      <point x="418" y="573" type="curve"/>
      <point x="400" y="531" type="line"/>
      <point x="408" y="532"/>
      <point x="470" y="537"/>
      <point x="487" y="537" type="curve" smooth="yes"/>
      <point x="538" y="537"/>
      <point x="565" y="514"/>
      <point x="565" y="470" type="curve" smooth="yes"/>
      <point x="565" y="406"/>
      <point x="532" y="367"/>
      <point x="464" y="367" type="curve" smooth="yes"/>
      <point x="439" y="367"/>
      <point x="415" y="369"/>
      <point x="378" y="371" type="curve"/>
      <point x="376" y="331" type="line"/>
      <point x="407" y="330"/>
      <point x="444" y="328"/>
    </contour>
  </outline>
</glyph>
<glyph name="micro" format="2">
  <advance width="693.3"/>
  <unicode hex="00B5"/>
  <outline>
    <contour>
      <point x="99" y="-277" type="line"/>
      <point x="161" y="-262" type="line"/>
      <point x="170" y="-183"/>
      <point x="185" y="-79"/>
      <point x="196" y="3" type="curve"/>
      <point x="193" y="1" type="line"/>
      <point x="270" y="-52"/>
      <point x="382" y="85"/>
      <point x="453" y="221" type="curve"/>
      <point x="438" y="209" type="line"/>
      <point x="421" y="124"/>
      <point x="407" y="54"/>
      <point x="393" y="0" type="curve"/>
      <point x="418" y="-15" type="line"/>
      <point x="578" y="30" type="line"/>
      <point x="580" y="64" type="line"/>
      <point x="459" y="69" type="line"/>
      <point x="489" y="42" type="line"/>
      <point x="506" y="214"/>
      <point x="523" y="293"/>
      <point x="572" y="488" type="curve"/>
      <point x="549" y="503" type="line"/>
      <point x="480" y="488" type="line"/>
      <point x="477" y="468"/>
      <point x="477" y="455"/>
      <point x="470" y="423" type="curve" smooth="yes"/>
      <point x="442" y="304"/>
      <point x="407" y="214"/>
      <point x="368" y="156" type="curve" smooth="yes"/>
      <point x="327" y="95"/>
      <point x="292" y="64"/>
      <point x="267" y="64" type="curve" smooth="yes"/>
      <point x="237" y="64"/>
      <point x="232" y="89"/>
      <point x="232" y="115" type="curve" smooth="yes"/>
      <point x="233" y="181"/>
      <point x="266" y="338"/>
      <point x="304" y="484" type="curve"/>
      <point x="284" y="503" type="line"/>
      <point x="120" y="460" type="line"/>
      <point x="120" y="423" type="line"/>
      <point x="237" y="417" type="line"/>
      <point x="206" y="435" type="line"/>
      <point x="187" y="276"/>
      <point x="120" y="-66"/>
      <point x="74" y="-262" type="curve"/>
    </contour>
  </outline>
</glyph>
<glyph name="paragraph" format="2">
  <advance width="616.5"/>
  <unicode hex="00B6"/>
  <outline>
    <contour>
      <point x="267" y="-200" type="line"/>
      <point x="298" y="-167"/>
      <point x="422" y="-39"/>
      <point x="424" y="-12" type="curve" smooth="yes"/>
      <point x="505" y="538" type="line" smooth="yes"/>
      <point x="510" y="575"/>
      <point x="529" y="656"/>
      <point x="536" y="682" type="curve"/>
      <point x="495" y="644" type="line"/>
      <point x="604" y="654" type="line"/>
      <point x="609" y="710" type="line"/>
      <point x="566" y="708"/>
      <point x="536" y="705"/>
      <point x="504" y="705" type="curve"/>
      <point x="447" y="705" type="line"/>
      <point x="344" y="11" type="line" smooth="yes"/>
      <point x="341" y="-9"/>
      <point x="239" y="-179"/>
      <point x="239" y="-179" type="curve"/>
    </contour>
    <contour>
      <point x="310" y="291" type="curve"/>
      <point x="340" y="316" type="line"/>
      <point x="395" y="712" type="line"/>
      <point x="379" y="714"/>
      <point x="363" y="715"/>
      <point x="348" y="715" type="curve" smooth="yes"/>
      <point x="205" y="715"/>
      <point x="100" y="620"/>
      <point x="100" y="470" type="curve" smooth="yes"/>
      <point x="100" y="350"/>
      <point x="197" y="291"/>
    </contour>
  </outline>
</glyph>
<glyph name="onesuperior" format="2">
  <advance width="317.3"/>
  <unicode hex="00B9"/>
  <outline>
    <contour>
      <point x="60" y="327" type="line"/>
      <point x="85" y="328"/>
      <point x="156" y="330"/>
      <point x="169" y="330" type="curve" smooth="yes"/>
      <point x="287" y="330" type="line"/>
      <point x="296" y="368" type="line"/>
      <point x="200" y="375" type="line"/>
      <point x="231" y="341" type="line"/>
      <point x="231" y="388"/>
      <point x="232" y="417"/>
      <point x="235" y="440" type="curve" smooth="yes"/>
      <point x="255" y="588" type="line" smooth="yes"/>
      <point x="259" y="618"/>
      <point x="279" y="730"/>
      <point x="279" y="730" type="curve"/>
      <point x="231" y="737" type="line"/>
      <point x="91" y="637" type="line"/>
      <point x="107" y="605" type="line"/>
      <point x="220" y="646" type="line"/>
      <point x="193" y="665" type="line"/>
      <point x="161" y="421" type="line" smooth="yes"/>
      <point x="159" y="405"/>
      <point x="145" y="362"/>
      <point x="140" y="341" type="curve"/>
      <point x="180" y="377" type="line"/>
      <point x="62" y="364" type="line"/>
    </contour>
  </outline>
</glyph>
<glyph name="questiondown" format="2">
  <advance width="455"/>
  <unicode hex="00BF"/>
  <outline>
    <contour>
      <point x="280" y="277" type="line"/>
      <point x="274" y="272" type="line"/>
      <point x="262" y="110" type="line"/>
      <point x="287" y="142" type="line"/>
      <point x="277" y="143"/>
      <point x="268" y="143"/>
      <point x="258" y="143" type="curve" smooth="yes"/>
      <point x="111" y="143"/>
      <point x="14" y="42"/>
      <point x="14" y="-101" type="curve" smooth="yes"/>
      <point x="14" y="-208"/>
      <point x="83" y="-274"/>
      <point x="191" y="-274" type="curve" smooth="yes"/>
      <point x="228" y="-274"/>
      <point x="272" y="-267"/>
      <point x="320" y="-252" type="curve"/>
      <point x="327" y="-105" type="line"/>
      <point x="274" y="-105" type="line"/>
      <point x="270" y="-139" type="line" smooth="yes"/>
      <point x="268" y="-158"/>
      <point x="256" y="-201"/>
      <point x="248" y="-231" type="curve"/>
      <point x="307" y="-197" type="line"/>
      <point x="268" y="-212"/>
      <point x="234" y="-221"/>
      <point x="203" y="-221" type="curve" smooth="yes"/>
      <point x="131" y="-221"/>
      <point x="98" y="-173"/>
      <point x="98" y="-103" type="curve" smooth="yes"/>
      <point x="98" y="-2"/>
      <point x="149" y="83"/>
      <point x="254" y="83" type="curve" smooth="yes"/>
      <point x="264" y="83"/>
      <point x="286" y="81"/>
      <point x="300" y="79" type="curve"/>
      <point x="326" y="102" type="line"/>
      <point x="345" y="274" type="line"/>
    </contour>
    <contour>
      <point x="342" y="503" type="curve" smooth="yes"/>
      <point x="305" y="503"/>
      <point x="283" y="472"/>
      <point x="283" y="430" type="curve" smooth="yes"/>
      <point x="283" y="398"/>
      <point x="300" y="376"/>
      <point x="332" y="376" type="curve" smooth="yes"/>
      <point x="370" y="376"/>
      <point x="393" y="406"/>
      <point x="393" y="448" type="curve" smooth="yes"/>
      <point x="393" y="482"/>
      <point x="374" y="503"/>
    </contour>
  </outline>
</glyph>
<glyph name="AE" format="2">
  <advance width="925.7"/>
  <unicode hex="00C6"/>
  <anchor x="578" y="0" name="bottom"/>
  <anchor x="679" y="720" name="top"/>
  <outline>
    <contour>
      <point x="1" y="-5" type="line"/>
      <point x="45" y="-3"/>
      <point x="108" y="0"/>
      <point x="133" y="0" type="curve" smooth="yes"/>
      <point x="215" y="0" type="line"/>
      <point x="227" y="53" type="line"/>
      <point x="135" y="68" type="line"/>
      <point x="160" y="43" type="line"/>
      <point x="168" y="68"/>
      <point x="193" y="119"/>
      <point x="206" y="139" type="curve" smooth="yes"/>
      <point x="483" y="576" type="line"/>
      <point x="472" y="576" type="line"/>
      <point x="481" y="170" type="line" smooth="yes"/>
      <point x="482" y="132"/>
      <point x="470" y="56"/>
      <point x="468" y="33" type="curve"/>
      <point x="506" y="73" type="line"/>
      <point x="390" y="42" type="line"/>
      <point x="386" y="-5" type="line"/>
      <point x="433" y="-3"/>
      <point x="501" y="0"/>
      <point x="528" y="0" type="curve" smooth="yes"/>
      <point x="623" y="0" type="line"/>
      <point x="588" y="41" type="line"/>
      <point x="585" y="54"/>
      <point x="576" y="119"/>
      <point x="575" y="138" type="curve" smooth="yes"/>
      <point x="552" y="705" type="line"/>
      <point x="494" y="705" type="line"/>
      <point x="154" y="168" type="line" smooth="yes"/>
      <point x="128" y="126"/>
      <point x="74" y="57"/>
      <point x="63" y="45" type="curve"/>
      <point x="110" y="69" type="line"/>
      <point x="4" y="42" type="line"/>
    </contour>
    <contour>
      <point x="251" y="236" type="line"/>
      <point x="489" y="236" type="line"/>
      <point x="494" y="288" type="line"/>
      <point x="282" y="284" type="line"/>
    </contour>
    <contour>
      <point x="527" y="0" type="line"/>
      <point x="704" y="0" type="line" smooth="yes"/>
      <point x="731" y="0"/>
      <point x="781" y="0"/>
      <point x="818" y="0" type="curve"/>
      <point x="835" y="14" type="line"/>
      <point x="872" y="163" type="line"/>
      <point x="820" y="168" type="line"/>
      <point x="815" y="152"/>
      <point x="801" y="116"/>
      <point x="794" y="100" type="curve" smooth="yes"/>
      <point x="788" y="87"/>
      <point x="767" y="62"/>
      <point x="753" y="44" type="curve"/>
      <point x="783" y="67" type="line"/>
      <point x="765" y="63"/>
      <point x="720" y="55"/>
      <point x="682" y="55" type="curve" smooth="yes"/>
      <point x="527" y="55" type="line"/>
    </contour>
    <contour>
      <point x="724" y="255" type="line"/>
      <point x="771" y="261" type="line"/>
      <point x="777" y="316"/>
      <point x="788" y="380"/>
      <point x="801" y="453" type="curve"/>
      <point x="757" y="458" type="line"/>
      <point x="725" y="356" type="line"/>
      <point x="770" y="393" type="line"/>
      <point x="739" y="389"/>
      <point x="688" y="383"/>
      <point x="677" y="383" type="curve" smooth="yes"/>
      <point x="506" y="383" type="line"/>
      <point x="506" y="329" type="line"/>
      <point x="650" y="329" type="line" smooth="yes"/>
      <point x="667" y="329"/>
      <point x="725" y="324"/>
      <point x="761" y="320" type="curve"/>
      <point x="729" y="357" type="line"/>
    </contour>
    <contour>
      <point x="823" y="556" type="curve"/>
      <point x="879" y="561" type="line"/>
      <point x="892" y="691" type="line"/>
      <point x="876" y="709" type="line"/>
      <point x="839" y="707"/>
      <point x="780" y="704"/>
      <point x="764" y="704" type="curve" smooth="yes"/>
      <point x="508" y="705" type="line"/>
      <point x="508" y="651" type="line"/>
      <point x="727" y="650" type="line" smooth="yes"/>
      <point x="741" y="650"/>
      <point x="814" y="644"/>
      <point x="830" y="643" type="curve"/>
      <point x="787" y="675" type="line"/>
      <point x="802" y="653"/>
      <point x="819" y="623"/>
      <point x="820" y="611" type="curve" smooth="yes"/>
      <point x="821" y="603"/>
      <point x="822" y="572"/>
    </contour>
  </outline>
</glyph>
<glyph name="multiply" format="2">
  <advance width="619.9"/>
  <unicode hex="00D7"/>
  <outline>
    <contour>
      <point x="126" y="42" type="line"/>
      <point x="536" y="406" type="line"/>
      <point x="492" y="457" type="line"/>
      <point x="84" y="90" type="line"/>
    </contour>
    <contour>
      <point x="442" y="43" type="line"/>
      <point x="499" y="94" type="line"/>
      <point x="174" y="455" type="line"/>
      <point x="121" y="407" type="line"/>
    </contour>
  </outline>
</glyph>
<glyph name="Thorn" format="2">
  <advance width="544.9"/>
  <unicode hex="00DE"/>
  <anchor x="242" y="0" name="bottom"/>
  <anchor x="328" y="705" name="top"/>
  <outline>
    <contour>
      <point x="9" y="-5" type="line"/>
      <point x="54" y="-3"/>
      <point x="118" y="0"/>
      <point x="143" y="0" type="curve" smooth="yes"/>
      <point x="265" y="0" type="line"/>
      <point x="279" y="53" type="line"/>
      <point x="158" y="63" type="line"/>
      <point x="192" y="27" type="line"/>
      <point x="190" y="59"/>
      <point x="196" y="130"/>
      <point x="201" y="165" type="curve" smooth="yes"/>
      <point x="255" y="538" type="line" smooth="yes"/>
      <point x="261" y="580"/>
      <point x="279" y="657"/>
      <point x="286" y="681" type="curve"/>
      <point x="243" y="643" type="line"/>
      <point x="354" y="653" type="line"/>
      <point x="359" y="710" type="line"/>
      <point x="316" y="708"/>
      <point x="263" y="705"/>
      <point x="230" y="705" type="curve" smooth="yes"/>
      <point x="212" y="705"/>
      <point x="153" y="708"/>
      <point x="115" y="710" type="curve"/>
      <point x="102" y="658" type="line"/>
      <point x="210" y="640" type="line"/>
      <point x="176" y="681" type="line"/>
      <point x="177" y="658"/>
      <point x="176" y="590"/>
      <point x="174" y="572" type="curve" smooth="yes"/>
      <point x="110" y="135" type="line" smooth="yes"/>
      <point x="107" y="116"/>
      <point x="88" y="49"/>
      <point x="81" y="22" type="curve"/>
      <point x="125" y="67" type="line"/>
      <point x="11" y="44" type="line"/>
    </contour>
    <contour>
      <point x="251" y="166" type="curve" smooth="yes"/>
      <point x="392" y="166"/>
      <point x="520" y="245"/>
      <point x="520" y="390" type="curve" smooth="yes"/>
      <point x="520" y="497"/>
      <point x="453" y="555"/>
      <point x="327" y="555" type="curve" smooth="yes"/>
      <point x="301" y="555"/>
      <point x="259" y="553"/>
      <point x="222" y="551" type="curve"/>
      <point x="215" y="503" type="line"/>
      <point x="245" y="506"/>
      <point x="270" y="508"/>
      <point x="284" y="508" type="curve" smooth="yes"/>
      <point x="376" y="508"/>
      <point x="432" y="462"/>
      <point x="432" y="382" type="curve" smooth="yes"/>
      <point x="432" y="272"/>
      <point x="353" y="214"/>
      <point x="240" y="214" type="curve" smooth="yes"/>
      <point x="221" y="214"/>
      <point x="189" y="217"/>
      <point x="169" y="219" type="curve"/>
      <point x="161" y="169" type="line"/>
      <point x="184" y="167"/>
      <point x="229" y="166"/>
    </contour>
  </outline>
</glyph>
<glyph name="ae" format="2">
  <advance width="666.4"/>
  <unicode hex="00E6"/>
  <anchor x="311" y="0" name="bottom"/>
  <anchor x="491" y="0" name="ogonek"/>
  <anchor x="381" y="494" name="top"/>
  <outline>
    <contour>
      <point x="108" y="-10" type="curve" smooth="yes"/>
      <point x="256" y="-10"/>
      <point x="369" y="180"/>
      <point x="402" y="330" type="curve" smooth="yes"/>
      <point x="426" y="441"/>
      <point x="373" y="509"/>
      <point x="289" y="509" type="curve" smooth="yes"/>
      <point x="227" y="509"/>
      <point x="149" y="469"/>
      <point x="83" y="387" type="curve"/>
      <point x="111" y="364" type="line"/>
      <point x="208" y="459"/>
      <point x="306" y="469"/>
      <point x="317" y="386" type="curve" smooth="yes"/>
      <point x="322" y="352"/>
      <point x="315" y="291"/>
      <point x="311" y="270" type="curve" smooth="yes"/>
      <point x="291" y="149"/>
      <point x="197" y="46"/>
      <point x="143" y="46" type="curve" smooth="yes"/>
      <point x="97" y="46"/>
      <point x="97" y="125"/>
      <point x="111" y="165" type="curve" smooth="yes"/>
      <point x="120" y="190"/>
      <point x="210" y="226"/>
      <point x="323" y="241" type="curve"/>
      <point x="324" y="287" type="line"/>
      <point x="255" y="274" type="line" smooth="yes"/>
      <point x="141" y="253"/>
      <point x="23" y="229"/>
      <point x="14" y="145" type="curve" smooth="yes"/>
      <point x="8" y="89"/>
      <point x="18" y="-10"/>
    </contour>
    <contour>
      <point x="404" y="-10" type="curve" smooth="yes"/>
      <point x="490" y="-10"/>
      <point x="567" y="39"/>
      <point x="623" y="131" type="curve"/>
      <point x="592" y="152" type="line"/>
      <point x="542" y="82"/>
      <point x="485" y="47"/>
      <point x="436" y="47" type="curve" smooth="yes"/>
      <point x="395" y="47"/>
      <point x="374" y="83"/>
      <point x="374" y="149" type="curve" smooth="yes"/>
      <point x="374" y="269"/>
      <point x="448" y="453"/>
      <point x="499" y="453" type="curve" smooth="yes"/>
      <point x="544" y="453"/>
      <point x="565" y="438"/>
      <point x="565" y="405" type="curve" smooth="yes"/>
      <point x="565" y="332"/>
      <point x="482" y="273"/>
      <point x="361" y="255" type="curve"/>
      <point x="360" y="213" type="line"/>
      <point x="538" y="245"/>
      <point x="646" y="327"/>
      <point x="646" y="430" type="curve" smooth="yes"/>
      <point x="646" y="481"/>
      <point x="594" y="508"/>
      <point x="501" y="508" type="curve" smooth="yes"/>
      <point x="415" y="508"/>
      <point x="292" y="291"/>
      <point x="292" y="140" type="curve" smooth="yes"/>
      <point x="292" y="42"/>
      <point x="331" y="-10"/>
    </contour>
  </outline>
</glyph>
<glyph name="eth" format="2">
  <advance width="471.8"/>
  <unicode hex="00F0"/>
  <outline>
    <contour>
      <point x="181" y="-10" type="curve" smooth="yes"/>
      <point x="349" y="-10"/>
      <point x="437" y="221"/>
      <point x="437" y="392" type="curve" smooth="yes"/>
      <point x="437" y="539"/>
      <point x="388" y="655"/>
      <point x="289" y="768" type="curve"/>
      <point x="242" y="748" type="line"/>
      <point x="295" y="672"/>
      <point x="356" y="591"/>
      <point x="356" y="400" type="curve" smooth="yes"/>
      <point x="356" y="269"/>
      <point x="310" y="42"/>
      <point x="188" y="42" type="curve" smooth="yes"/>
      <point x="131" y="42"/>
      <point x="125" y="117"/>
      <point x="125" y="174" type="curve" smooth="yes"/>
      <point x="125" y="288"/>
      <point x="170" y="459"/>
      <point x="284" y="459" type="curve" smooth="yes"/>
      <point x="299" y="459"/>
      <point x="347" y="454"/>
      <point x="385" y="421" type="curve"/>
      <point x="366" y="489" type="line"/>
      <point x="344" y="503"/>
      <point x="310" y="508"/>
      <point x="283" y="508" type="curve" smooth="yes"/>
      <point x="135" y="508"/>
      <point x="33" y="322"/>
      <point x="33" y="168" type="curve" smooth="yes"/>
      <point x="33" y="62"/>
      <point x="72" y="-10"/>
    </contour>
    <contour>
      <point x="192" y="551" type="line"/>
      <point x="500" y="699" type="line"/>
      <point x="479" y="741" type="line"/>
      <point x="171" y="590" type="line"/>
    </contour>
  </outline>
</glyph>
<glyph name="divide" format="2">
  <advance width="634.3"/>
  <unicode hex="00F7"/>
  <outline>
    <contour>
      <point x="90" y="214" type="line"/>
      <point x="535" y="214" type="line"/>
      <point x="544" y="282" type="line"/>
      <point x="98" y="276" type="line"/>
    </contour>
    <contour>
      <point x="287" y="7" type="curve" smooth="yes"/>
      <point x="326" y="7"/>
      <point x="353" y="38"/>
      <point x="353" y="83" type="curve" smooth="yes"/>
      <point x="353" y="115"/>
      <point x="334" y="133"/>
      <point x="303" y="133" type="curve" smooth="yes"/>
      <point x="265" y="133"/>
      <point x="238" y="102"/>
      <point x="238" y="58" type="curve" smooth="yes"/>
      <point x="238" y="28"/>
      <point x="254" y="7"/>
    </contour>
    <contour>
      <point x="331" y="359" type="curve" smooth="yes"/>
      <point x="370" y="359"/>
      <point x="398" y="390"/>
      <point x="398" y="435" type="curve" smooth="yes"/>
      <point x="398" y="467"/>
      <point x="379" y="485"/>
      <point x="348" y="485" type="curve" smooth="yes"/>
      <point x="309" y="485"/>
      <point x="282" y="454"/>
      <point x="282" y="410" type="curve" smooth="yes"/>
      <point x="282" y="380"/>
      <point x="299" y="359"/>
    </contour>
  </outline>
</glyph>
<glyph name="thorn" format="2">
  <advance width="469.9"/>
  <unicode hex="00FE"/>
  <anchor x="204" y="0" name="bottom"/>
  <anchor x="264" y="494" name="top"/>
  <outline>
    <contour>
      <point x="15" y="-277" type="line"/>
      <point x="73" y="-262" type="line"/>
      <point x="111" y="46"/>
      <point x="192" y="551"/>
      <point x="225" y="752" type="curve"/>
      <point x="204" y="770" type="line"/>
      <point x="45" y="744" type="line"/>
      <point x="48" y="708" type="line"/>
      <point x="165" y="690" type="line"/>
      <point x="141" y="712" type="line"/>
      <point x="114" y="433"/>
      <point x="68" y="59"/>
      <point x="-9" y="-262" type="curve"/>
    </contour>
    <contour>
      <point x="222" y="-8" type="curve" smooth="yes"/>
      <point x="312" y="-8"/>
      <point x="441" y="208"/>
      <point x="441" y="358" type="curve" smooth="yes"/>
      <point x="441" y="461"/>
      <point x="403" y="508"/>
      <point x="336" y="508" type="curve" smooth="yes"/>
      <point x="223" y="508"/>
      <point x="99" y="281"/>
      <point x="65" y="61" type="curve"/>
      <point x="119" y="80" type="line"/>
      <point x="136" y="235"/>
      <point x="254" y="461"/>
      <point x="316" y="461" type="curve" smooth="yes"/>
      <point x="343" y="461"/>
      <point x="364" y="416"/>
      <point x="364" y="355" type="curve" smooth="yes"/>
      <point x="364" y="230"/>
      <point x="289" y="35"/>
      <point x="236" y="35" type="curve" smooth="yes"/>
      <point x="192" y="35"/>
      <point x="114" y="74"/>
      <point x="114" y="74" type="curve"/>
      <point x="89" y="5" type="line"/>
      <point x="104" y="5"/>
      <point x="185" y="-8"/>
    </contour>
  </outline>
</glyph>
<glyph name="Iogonek" format="2">
  <advance width="324.3"/>
  <unicode hex="012E"/>
  <outline>
    <contour>
      <point x="48" y="-24" type="curve"/>
      <point x="76" y="-6"/>
      <point x="98" y="0"/>
      <point x="123" y="0" type="curve" smooth="yes"/>
      <point x="244" y="0" type="line"/>
      <point x="258" y="52" type="line"/>
      <point x="137" y="62" type="line"/>
      <point x="171" y="27" type="line"/>
      <point x="168" y="59"/>
      <point x="175" y="130"/>
      <point x="180" y="164" type="curve" smooth="yes"/>
      <point x="234" y="538" type="line" smooth="yes"/>
      <point x="239" y="575"/>
      <point x="257" y="653"/>
      <point x="265" y="682" type="curve"/>
      <point x="223" y="643" type="line"/>
      <point x="333" y="653" type="line"/>
      <point x="338" y="710" type="line"/>
      <point x="295" y="708"/>
      <point x="243" y="705"/>
      <point x="210" y="705" type="curve" smooth="yes"/>
      <point x="192" y="705"/>
      <point x="133" y="708"/>
      <point x="95" y="710" type="curve"/>
      <point x="83" y="658" type="line"/>
      <point x="190" y="641" type="line"/>
      <point x="157" y="682" type="line"/>
      <point x="158" y="658"/>
      <point x="157" y="590"/>
      <point x="154" y="574" type="curve" smooth="yes"/>
      <point x="90" y="134" type="line" smooth="yes"/>
      <point x="88" y="119"/>
      <point x="81" y="93"/>
    </contour>
    <component base="ogonekcomb" xOffset="-45" yOffset="1"/>
  </outline>
</glyph>
<glyph name="idotless" format="2">
  <advance width="278.3"/>
  <unicode hex="0131"/>
  <anchor x="133" y="0" name="bottom"/>
  <anchor x="124" y="0" name="ogonek"/>
  <anchor x="162" y="491" name="top"/>
  <outline>
    <contour>
      <point x="77" y="-10" type="line"/>
      <point x="238" y="35" type="line"/>
      <point x="242" y="68" type="line"/>
      <point x="118" y="75" type="line"/>
      <point x="146" y="47" type="line"/>
      <point x="171" y="226"/>
      <point x="196" y="385"/>
      <point x="225" y="488" type="curve"/>
      <point x="203" y="508" type="line"/>
      <point x="41" y="463" type="line"/>
      <point x="42" y="426" type="line"/>
      <point x="158" y="420" type="line"/>
      <point x="127" y="447" type="line"/>
      <point x="111" y="276"/>
      <point x="101" y="199"/>
      <point x="53" y="5" type="curve"/>
    </contour>
  </outline>
</glyph>
<glyph name="OE" format="2">
  <advance width="929.6"/>
  <unicode hex="0152"/>
  <anchor x="631" y="0" name="bottom"/>
  <anchor x="732" y="720" name="top"/>
  <outline>
    <contour>
      <point x="336" y="-15" type="curve" smooth="yes"/>
      <point x="408" y="-15"/>
      <point x="477" y="0"/>
      <point x="549" y="0" type="curve" smooth="yes"/>
      <point x="699" y="0" type="line" smooth="yes"/>
      <point x="726" y="0"/>
      <point x="776" y="0"/>
      <point x="813" y="0" type="curve"/>
      <point x="830" y="14" type="line"/>
      <point x="866" y="163" type="line"/>
      <point x="815" y="168" type="line"/>
      <point x="810" y="152"/>
      <point x="796" y="116"/>
      <point x="789" y="100" type="curve" smooth="yes"/>
      <point x="783" y="87"/>
      <point x="762" y="62"/>
      <point x="748" y="44" type="curve"/>
      <point x="778" y="67" type="line"/>
      <point x="760" y="63"/>
      <point x="715" y="55"/>
      <point x="677" y="55" type="curve" smooth="yes"/>
      <point x="504" y="55" type="line"/>
      <point x="536" y="20" type="line"/>
      <point x="536" y="50"/>
      <point x="542" y="133"/>
      <point x="547" y="165" type="curve" smooth="yes"/>
      <point x="577" y="374" type="line"/>
      <point x="538" y="340" type="line"/>
      <point x="666" y="340" type="line" smooth="yes"/>
      <point x="682" y="340"/>
      <point x="740" y="335"/>
      <point x="777" y="331" type="curve"/>
      <point x="745" y="368" type="line"/>
      <point x="740" y="266" type="line"/>
      <point x="786" y="272" type="line"/>
      <point x="792" y="327"/>
      <point x="804" y="392"/>
      <point x="817" y="464" type="curve"/>
      <point x="773" y="469" type="line"/>
      <point x="741" y="367" type="line"/>
      <point x="786" y="403" type="line"/>
      <point x="755" y="400"/>
      <point x="703" y="394"/>
      <point x="692" y="394" type="curve" smooth="yes"/>
      <point x="546" y="394" type="line"/>
      <point x="575" y="360" type="line"/>
      <point x="601" y="538" type="line" smooth="yes"/>
      <point x="606" y="573"/>
      <point x="626" y="658"/>
      <point x="630" y="675" type="curve"/>
      <point x="590" y="651" type="line"/>
      <point x="752" y="651" type="line" smooth="yes"/>
      <point x="765" y="651"/>
      <point x="837" y="646"/>
      <point x="855" y="644" type="curve"/>
      <point x="812" y="676" type="line"/>
      <point x="826" y="654"/>
      <point x="844" y="624"/>
      <point x="845" y="612" type="curve" smooth="yes"/>
      <point x="846" y="604"/>
      <point x="847" y="574"/>
      <point x="848" y="558" type="curve"/>
      <point x="904" y="563" type="line"/>
      <point x="917" y="692" type="line"/>
      <point x="901" y="710" type="line"/>
      <point x="864" y="708"/>
      <point x="805" y="705"/>
      <point x="789" y="705" type="curve" smooth="yes"/>
      <point x="678" y="705" type="line" smooth="yes"/>
      <point x="606" y="705"/>
      <point x="510" y="720"/>
      <point x="438" y="720" type="curve" smooth="yes"/>
      <point x="194" y="720"/>
      <point x="63" y="530"/>
      <point x="63" y="283" type="curve" smooth="yes"/>
      <point x="63" y="107"/>
      <point x="154" y="-15"/>
    </contour>
    <contour>
      <point x="434" y="23" type="curve"/>
      <point x="471" y="56" type="line"/>
      <point x="428" y="42"/>
      <point x="384" y="35"/>
      <point x="341" y="35" type="curve" smooth="yes"/>
      <point x="220" y="35"/>
      <point x="165" y="145"/>
      <point x="165" y="284" type="curve" smooth="yes"/>
      <point x="165" y="481"/>
      <point x="261" y="670"/>
      <point x="434" y="670" type="curve" smooth="yes"/>
      <point x="475" y="670"/>
      <point x="541" y="660"/>
      <point x="582" y="650" type="curve"/>
      <point x="530" y="666" type="line"/>
      <point x="530" y="653"/>
      <point x="522" y="591"/>
      <point x="519" y="572" type="curve" smooth="yes"/>
      <point x="455" y="135" type="line" smooth="yes"/>
      <point x="452" y="116"/>
      <point x="440" y="45"/>
    </contour>
  </outline>
</glyph>
<glyph name="Fhook" format="2">
  <advance width="537"/>
  <unicode hex="0191"/>
  <outline>
    <contour>
      <point x="-68" y="-195" type="line"/>
      <point x="61" y="-193"/>
      <point x="134" y="-133"/>
      <point x="155" y="6" type="curve" smooth="yes"/>
      <point x="210" y="374" type="line"/>
      <point x="168" y="330" type="line"/>
      <point x="295" y="330" type="line" smooth="yes"/>
      <point x="312" y="330"/>
      <point x="370" y="325"/>
      <point x="407" y="321" type="curve"/>
      <point x="375" y="358" type="line"/>
      <point x="369" y="256" type="line"/>
      <point x="416" y="262" type="line"/>
      <point x="422" y="317"/>
      <point x="433" y="381"/>
      <point x="446" y="454" type="curve"/>
      <point x="402" y="459" type="line"/>
      <point x="371" y="357" type="line"/>
      <point x="415" y="393" type="line"/>
      <point x="385" y="390"/>
      <point x="333" y="384"/>
      <point x="322" y="384" type="curve" smooth="yes"/>
      <point x="176" y="384" type="line"/>
      <point x="208" y="360" type="line"/>
      <point x="234" y="538" type="line" smooth="yes"/>
      <point x="239" y="573"/>
      <point x="259" y="657"/>
      <point x="263" y="675" type="curve"/>
      <point x="223" y="651" type="line"/>
      <point x="385" y="651" type="line" smooth="yes"/>
      <point x="398" y="651"/>
      <point x="470" y="646"/>
      <point x="487" y="644" type="curve"/>
      <point x="445" y="676" type="line"/>
      <point x="459" y="654"/>
      <point x="477" y="624"/>
      <point x="478" y="612" type="curve" smooth="yes"/>
      <point x="479" y="604"/>
      <point x="480" y="574"/>
      <point x="481" y="558" type="curve"/>
      <point x="537" y="563" type="line"/>
      <point x="550" y="692" type="line"/>
      <point x="534" y="710" type="line"/>
      <point x="497" y="708"/>
      <point x="438" y="705"/>
      <point x="422" y="705" type="curve" smooth="yes"/>
      <point x="208" y="705" type="line" smooth="yes"/>
      <point x="192" y="705"/>
      <point x="131" y="708"/>
      <point x="94" y="710" type="curve"/>
      <point x="81" y="658" type="line"/>
      <point x="189" y="640" type="line"/>
      <point x="155" y="666" type="line"/>
      <point x="155" y="653"/>
      <point x="155" y="591"/>
      <point x="152" y="572" type="curve" smooth="yes"/>
      <point x="70" y="11" type="line" smooth="yes"/>
      <point x="57" y="-81"/>
      <point x="23" y="-144"/>
      <point x="-62" y="-144" type="curve"/>
    </contour>
  </outline>
</glyph>
<glyph name="florin" format="2">
  <advance width="260"/>
  <unicode hex="0192"/>
  <outline>
    <contour>
      <point x="-110" y="-195" type="line"/>
      <point x="19" y="-193"/>
      <point x="76" y="-100"/>
      <point x="94" y="6" type="curve" smooth="yes"/>
      <point x="115" y="122"/>
      <point x="129" y="297"/>
      <point x="158" y="456" type="curve"/>
      <point x="123" y="426" type="line"/>
      <point x="262" y="426" type="line"/>
      <point x="275" y="477" type="line"/>
      <point x="131" y="477" type="line"/>
      <point x="159" y="454" type="line"/>
      <point x="178" y="629"/>
      <point x="200" y="680"/>
      <point x="216" y="704" type="curve" smooth="yes"/>
      <point x="235" y="732"/>
      <point x="277" y="747"/>
      <point x="341" y="745" type="curve"/>
      <point x="355" y="802" type="line"/>
      <point x="250" y="794"/>
      <point x="129" y="732"/>
      <point x="101" y="574" type="curve" smooth="yes"/>
      <point x="89" y="504"/>
      <point x="91" y="495"/>
      <point x="84" y="490" type="curve" smooth="yes"/>
      <point x="68" y="480"/>
      <point x="7" y="467"/>
      <point x="-4" y="466" type="curve"/>
      <point x="-8" y="426" type="line"/>
      <point x="111" y="426" type="line"/>
      <point x="83" y="451" type="line"/>
      <point x="74" y="313"/>
      <point x="51" y="140"/>
      <point x="27" y="11" type="curve" smooth="yes"/>
      <point x="9" y="-81"/>
      <point x="-20" y="-144"/>
      <point x="-104" y="-144" type="curve"/>
    </contour>
  </outline>
</glyph>
<glyph name="jdotless" format="2">
  <advance width="255"/>
  <unicode hex="0237"/>
  <anchor x="162" y="494" name="top"/>
  <outline>
    <contour>
      <point x="-13" y="-235" type="line"/>
      <point x="33" y="-177"/>
      <point x="130" y="-56"/>
      <point x="137" y="-16" type="curve" smooth="yes"/>
      <point x="176" y="214"/>
      <point x="195" y="383"/>
      <point x="226" y="489" type="curve"/>
      <point x="204" y="509" type="line"/>
      <point x="42" y="465" type="line"/>
      <point x="43" y="427" type="line"/>
      <point x="160" y="421" type="line"/>
      <point x="128" y="445" type="line"/>
      <point x="118" y="303"/>
      <point x="91" y="128"/>
      <point x="63" y="13" type="curve" smooth="yes"/>
      <point x="53" y="-30"/>
      <point x="-3" y="-143"/>
      <point x="-42" y="-209" type="curve"/>
    </contour>
  </outline>
</glyph>
<glyph name="schwa" format="2">
  <advance width="429.8"/>
  <unicode hex="0259"/>
  <outline>
    <contour>
      <point x="112" y="-10" type="curve" smooth="yes"/>
      <point x="186" y="-10"/>
      <point x="277" y="30"/>
      <point x="321" y="94" type="curve" smooth="yes"/>
      <point x="364" y="160"/>
      <point x="396" y="239"/>
      <point x="396" y="335" type="curve" smooth="yes"/>
      <point x="396" y="445"/>
      <point x="346" y="508"/>
      <point x="254" y="508" type="curve" smooth="yes"/>
      <point x="174" y="508"/>
      <point x="109" y="464"/>
      <point x="59" y="373" type="curve"/>
      <point x="90" y="349" type="line"/>
      <point x="133" y="418"/>
      <point x="185" y="454"/>
      <point x="232" y="454" type="curve" smooth="yes"/>
      <point x="283" y="454"/>
      <point x="304" y="415"/>
      <point x="304" y="337" type="curve" smooth="yes"/>
      <point x="304" y="168"/>
      <point x="241" y="46"/>
      <point x="155" y="48" type="curve" smooth="yes"/>
      <point x="92" y="50"/>
      <point x="82" y="93"/>
      <point x="106" y="140" type="curve" smooth="yes"/>
      <point x="134" y="193"/>
      <point x="207" y="233"/>
      <point x="304" y="248" type="curve"/>
      <point x="305" y="291" type="line"/>
      <point x="122" y="260"/>
      <point x="10" y="175"/>
      <point x="10" y="69" type="curve" smooth="yes"/>
      <point x="10" y="15"/>
      <point x="55" y="-10"/>
    </contour>
  </outline>
</glyph>
<glyph name="nhookleft" format="2">
  <advance width="556.1"/>
  <unicode hex="0272"/>
  <outline>
    <contour>
      <point x="-73" y="-195" type="line"/>
      <point x="55" y="-194"/>
      <point x="123" y="-99"/>
      <point x="139" y="7" type="curve" smooth="yes"/>
      <point x="147" y="53"/>
      <point x="151" y="78"/>
      <point x="158" y="117" type="curve"/>
      <point x="210" y="325"/>
      <point x="312" y="436"/>
      <point x="355" y="436" type="curve" smooth="yes"/>
      <point x="384" y="436"/>
      <point x="391" y="411"/>
      <point x="391" y="384" type="curve" smooth="yes"/>
      <point x="391" y="293"/>
      <point x="354" y="134"/>
      <point x="325" y="5" type="curve"/>
      <point x="349" y="-10" type="line"/>
      <point x="517" y="35" type="line"/>
      <point x="520" y="68" type="line"/>
      <point x="392" y="74" type="line"/>
      <point x="425" y="49" type="line"/>
      <point x="429" y="186"/>
      <point x="480" y="330"/>
      <point x="480" y="426" type="curve" smooth="yes"/>
      <point x="480" y="473"/>
      <point x="459" y="508"/>
      <point x="408" y="508" type="curve" smooth="yes"/>
      <point x="307" y="508"/>
      <point x="222" y="396"/>
      <point x="181" y="303" type="curve"/>
      <point x="187" y="294" type="line"/>
      <point x="197" y="374"/>
      <point x="209" y="437"/>
      <point x="224" y="488" type="curve"/>
      <point x="202" y="508" type="line"/>
      <point x="40" y="463" type="line"/>
      <point x="41" y="426" type="line"/>
      <point x="157" y="420" type="line"/>
      <point x="126" y="443" type="line"/>
      <point x="119" y="357"/>
      <point x="108" y="259"/>
      <point x="95" y="169" type="curve" smooth="yes"/>
      <point x="64" y="-26"/>
      <point x="43" y="-144"/>
      <point x="-68" y="-144" type="curve"/>
    </contour>
  </outline>
</glyph>
<glyph name="commaturnedmod" format="2">
  <advance width="223"/>
  <unicode hex="02BB"/>
  <outline>
    <contour>
      <point x="241" y="734" type="line"/>
      <point x="157" y="715"/>
      <point x="80" y="614"/>
      <point x="80" y="517" type="curve" smooth="yes"/>
      <point x="80" y="485"/>
      <point x="91" y="457"/>
      <point x="123" y="457" type="curve" smooth="yes"/>
      <point x="162" y="457"/>
      <point x="193" y="494"/>
      <point x="193" y="539" type="curve" smooth="yes"/>
      <point x="193" y="578"/>
      <point x="168" y="603"/>
      <point x="120" y="592" type="curve"/>
      <point x="152" y="571" type="line"/>
      <point x="151" y="628"/>
      <point x="194" y="681"/>
      <point x="244" y="702" type="curve"/>
    </contour>
  </outline>
</glyph>
<glyph name="ringhalfleft" format="2">
  <advance width="200.4"/>
  <unicode hex="02BF"/>
  <outline>
    <contour>
      <point x="178" y="545" type="curve"/>
      <point x="180" y="581" type="line"/>
      <point x="148" y="581"/>
      <point x="140" y="602"/>
      <point x="143" y="627" type="curve" smooth="yes"/>
      <point x="146" y="654"/>
      <point x="163" y="678"/>
      <point x="195" y="678" type="curve"/>
      <point x="196" y="715" type="line"/>
      <point x="136" y="715"/>
      <point x="105" y="682"/>
      <point x="99" y="634" type="curve" smooth="yes"/>
      <point x="92" y="581"/>
      <point x="118" y="545"/>
    </contour>
  </outline>
</glyph>
<glyph name="secondtonechinese" format="2">
  <advance width="245.1"/>
  <unicode hex="02CA"/>
  <outline>
    <contour>
      <point x="98" y="543" type="line"/>
      <point x="273" y="690" type="line"/>
      <point x="234" y="741" type="line"/>
      <point x="64" y="577" type="line"/>
    </contour>
  </outline>
</glyph>
<glyph name="fourthtonechinese" format="2">
  <advance width="273.8"/>
  <unicode hex="02CB"/>
  <outline>
    <contour>
      <point x="258" y="543" type="line"/>
      <point x="289" y="578" type="line"/>
      <point x="121" y="741" type="line"/>
      <point x="82" y="690" type="line"/>
    </contour>
  </outline>
</glyph>
<glyph name="verticallinelowmod" format="2">
  <advance width="207.4"/>
  <unicode hex="02CC"/>
  <outline>
    <contour>
      <point x="57" y="-382" type="line"/>
      <point x="97" y="-55" type="line"/>
      <point x="36" y="-48" type="line"/>
      <point x="-4" y="-373" type="line"/>
    </contour>
  </outline>
</glyph>
<glyph name="gravecomb" format="2">
  <unicode hex="0300"/>
  <anchor x="202" y="494" name="_top"/>
  <anchor x="200" y="660" name="top"/>
  <outline>
    <contour>
      <point x="258" y="543" type="line"/>
      <point x="289" y="578" type="line"/>
      <point x="121" y="741" type="line"/>
      <point x="82" y="690" type="line"/>
    </contour>
  </outline>
</glyph>
<glyph name="acutecomb" format="2">
  <unicode hex="0301"/>
  <anchor x="140" y="494" name="_top"/>
  <anchor x="156" y="660" name="top"/>
  <outline>
    <contour>
      <point x="98" y="543" type="line"/>
      <point x="273" y="690" type="line"/>
      <point x="234" y="741" type="line"/>
      <point x="64" y="577" type="line"/>
    </contour>
  </outline>
</glyph>
<glyph name="tildecomb" format="2">
  <unicode hex="0303"/>
  <anchor x="204" y="494" name="_top"/>
  <anchor x="246" y="629" name="top"/>
  <outline>
    <contour>
      <point x="114" y="560" type="line"/>
      <point x="114" y="560"/>
      <point x="147" y="613"/>
      <point x="175" y="613" type="curve" smooth="yes"/>
      <point x="214" y="613"/>
      <point x="272" y="572"/>
      <point x="312" y="572" type="curve" smooth="yes"/>
      <point x="351" y="572"/>
      <point x="408" y="671"/>
      <point x="408" y="671" type="curve"/>
      <point x="376" y="691" type="line"/>
      <point x="376" y="691"/>
      <point x="343" y="640"/>
      <point x="315" y="640" type="curve" smooth="yes"/>
      <point x="276" y="640"/>
      <point x="217" y="681"/>
      <point x="178" y="681" type="curve" smooth="yes"/>
      <point x="138" y="681"/>
      <point x="82" y="580"/>
      <point x="82" y="580" type="curve"/>
    </contour>
  </outline>
</glyph>
<glyph name="dotaccentcomb" format="2">
  <unicode hex="0307"/>
  <anchor x="143" y="494" name="_top"/>
  <anchor x="171" y="689" name="top"/>
  <outline>
    <contour>
      <point x="150" y="561" type="curve" smooth="yes"/>
      <point x="187" y="561"/>
      <point x="217" y="597"/>
      <point x="216" y="636" type="curve" smooth="yes"/>
      <point x="216" y="668"/>
      <point x="198" y="687"/>
      <point x="168" y="687" type="curve" smooth="yes"/>
      <point x="130" y="687"/>
      <point x="101" y="651"/>
      <point x="101" y="612" type="curve" smooth="yes"/>
      <point x="102" y="581"/>
      <point x="119" y="561"/>
    </contour>
  </outline>
</glyph>
<glyph name="ringcomb" format="2">
  <unicode hex="030A"/>
  <anchor x="153" y="494" name="_top"/>
  <anchor x="184" y="665" name="top"/>
  <outline>
    <contour>
      <point x="174" y="545" type="curve" smooth="yes"/>
      <point x="248" y="545"/>
      <point x="272" y="602"/>
      <point x="272" y="646" type="curve" smooth="yes"/>
      <point x="272" y="688"/>
      <point x="249" y="715"/>
      <point x="198" y="715" type="curve" smooth="yes"/>
      <point x="121" y="715"/>
      <point x="98" y="656"/>
      <point x="98" y="613" type="curve" smooth="yes"/>
      <point x="98" y="572"/>
      <point x="123" y="545"/>
    </contour>
    <contour>
      <point x="179" y="581" type="curve" smooth="yes"/>
      <point x="156" y="581"/>
      <point x="146" y="598"/>
      <point x="146" y="618" type="curve" smooth="yes"/>
      <point x="146" y="638"/>
      <point x="156" y="678"/>
      <point x="193" y="678" type="curve" smooth="yes"/>
      <point x="218" y="678"/>
      <point x="227" y="662"/>
      <point x="227" y="642" type="curve" smooth="yes"/>
      <point x="227" y="621"/>
      <point x="218" y="581"/>
    </contour>
  </outline>
</glyph>
<glyph name="hungarumlautcomb" format="2">
  <unicode hex="030B"/>
  <anchor x="159" y="494" name="_top"/>
  <anchor x="274" y="748" name="top"/>
  <outline>
    <contour>
      <point x="99" y="562" type="line"/>
      <point x="268" y="680" type="line"/>
      <point x="230" y="732" type="line"/>
      <point x="68" y="594" type="line"/>
    </contour>
    <contour>
      <point x="254" y="560" type="line"/>
      <point x="429" y="670" type="line"/>
      <point x="393" y="723" type="line"/>
      <point x="224" y="594" type="line"/>
    </contour>
  </outline>
</glyph>
<glyph name="caroncomb" format="2">
  <unicode hex="030C"/>
  <anchor x="194" y="494" name="_top"/>
  <anchor x="237" y="643" name="top"/>
  <outline>
    <contour>
      <point x="375" y="701" type="line"/>
      <point x="168" y="576" type="line"/>
      <point x="196" y="542" type="line"/>
      <point x="232" y="542" type="line"/>
      <point x="400" y="672" type="line"/>
    </contour>
    <contour>
      <point x="117" y="700" type="line"/>
      <point x="83" y="677" type="line"/>
      <point x="173" y="542" type="line"/>
      <point x="209" y="542" type="line"/>
      <point x="240" y="571" type="line"/>
    </contour>
  </outline>
</glyph>
<glyph name="hookcomb" format="2">
  <advance width="216.6"/>
  <unicode hex="0321"/>
  <outline>
    <contour>
      <point x="-3" y="-235" type="line"/>
      <point x="43" y="-177"/>
      <point x="129" y="-56"/>
      <point x="136" y="-15" type="curve" smooth="yes"/>
      <point x="141" y="11"/>
      <point x="148" y="59"/>
      <point x="157" y="118" type="curve"/>
      <point x="98" y="118" type="line"/>
      <point x="91" y="79"/>
      <point x="82" y="42"/>
      <point x="73" y="3" type="curve" smooth="yes"/>
      <point x="64" y="-40"/>
      <point x="7" y="-142"/>
      <point x="-32" y="-209" type="curve"/>
    </contour>
  </outline>
</glyph>
<glyph name="macronbelowcomb" format="2">
  <unicode hex="0331"/>
  <anchor x="183" y="0" name="_bottom"/>
  <anchor x="169" y="-105" name="bottom"/>
  <outline>
    <contour>
      <point x="24" y="-105" type="line"/>
      <point x="308" y="-105" type="line"/>
      <point x="318" y="-63" type="line"/>
      <point x="30" y="-63" type="line"/>
    </contour>
  </outline>
</glyph>
<glyph name="Omega" format="2">
  <advance width="786.8"/>
  <unicode hex="03A9"/>
  <outline>
    <contour>
      <point x="20" y="-4" type="line"/>
      <point x="63" y="-2"/>
      <point x="103" y="0"/>
      <point x="144" y="0" type="curve" smooth="yes"/>
      <point x="298" y="0" type="line"/>
      <point x="319" y="89" type="line"/>
      <point x="230" y="131"/>
      <point x="190" y="201"/>
      <point x="190" y="311" type="curve" smooth="yes"/>
      <point x="190" y="525"/>
      <point x="295" y="671"/>
      <point x="446" y="671" type="curve" smooth="yes"/>
      <point x="579" y="671"/>
      <point x="630" y="569"/>
      <point x="630" y="445" type="curve" smooth="yes"/>
      <point x="630" y="266"/>
      <point x="559" y="144"/>
      <point x="431" y="89" type="curve"/>
      <point x="429" y="0" type="line"/>
      <point x="583" y="0" type="line" smooth="yes"/>
      <point x="625" y="0"/>
      <point x="666" y="-2"/>
      <point x="707" y="-4" type="curve"/>
      <point x="717" y="6" type="line"/>
      <point x="751" y="163" type="line"/>
      <point x="699" y="168" type="line"/>
      <point x="694" y="146"/>
      <point x="681" y="116"/>
      <point x="675" y="101" type="curve" smooth="yes"/>
      <point x="672" y="91"/>
      <point x="663" y="79"/>
      <point x="649" y="63" type="curve"/>
      <point x="626" y="59"/>
      <point x="591" y="55"/>
      <point x="560" y="54" type="curve" smooth="yes"/>
      <point x="450" y="48" type="line"/>
      <point x="479" y="17" type="line"/>
      <point x="490" y="97" type="line"/>
      <point x="462" y="55" type="line"/>
      <point x="638" y="113"/>
      <point x="730" y="251"/>
      <point x="730" y="444" type="curve" smooth="yes"/>
      <point x="730" y="614"/>
      <point x="634" y="720"/>
      <point x="453" y="720" type="curve" smooth="yes"/>
      <point x="235" y="720"/>
      <point x="91" y="560"/>
      <point x="91" y="321" type="curve" smooth="yes"/>
      <point x="91" y="184"/>
      <point x="156" y="99"/>
      <point x="278" y="55" type="curve"/>
      <point x="262" y="97" type="line"/>
      <point x="252" y="17" type="line"/>
      <point x="289" y="48" type="line"/>
      <point x="180" y="54" type="line" smooth="yes"/>
      <point x="141" y="56"/>
      <point x="119" y="59"/>
      <point x="94" y="63" type="curve"/>
      <point x="83" y="80"/>
      <point x="78" y="93"/>
      <point x="77" y="100" type="curve" smooth="yes"/>
      <point x="73" y="133"/>
      <point x="70" y="149"/>
      <point x="70" y="168" type="curve"/>
      <point x="15" y="163" type="line"/>
      <point x="12" y="6" type="line"/>
    </contour>
  </outline>
</glyph>
<glyph name="mu" format="2">
  <advance width="529.2"/>
  <unicode hex="03BC"/>
  <outline>
    <contour>
      <point x="135" y="-10" type="curve" smooth="yes"/>
      <point x="215" y="-10"/>
      <point x="299" y="76"/>
      <point x="358" y="206" type="curve"/>
      <point x="350" y="207" type="line"/>
      <point x="331" y="101"/>
      <point x="320" y="55"/>
      <point x="307" y="5" type="curve"/>
      <point x="331" y="-10" type="line"/>
      <point x="489" y="35" type="line"/>
      <point x="492" y="68" type="line"/>
      <point x="369" y="72" type="line"/>
      <point x="398" y="41" type="line"/>
      <point x="415" y="223"/>
      <point x="430" y="288"/>
      <point x="480" y="495" type="curve"/>
      <point x="459" y="508" type="line"/>
      <point x="393" y="493" type="line"/>
      <point x="384" y="428" type="line"/>
      <point x="353" y="299"/>
      <point x="326" y="220"/>
      <point x="285" y="157" type="curve" smooth="yes"/>
      <point x="236" y="81"/>
      <point x="212" y="58"/>
      <point x="186" y="58" type="curve" smooth="yes"/>
      <point x="158" y="58"/>
      <point x="152" y="85"/>
      <point x="152" y="112" type="curve" smooth="yes"/>
      <point x="152" y="189"/>
      <point x="180" y="329"/>
      <point x="222" y="489" type="curve"/>
      <point x="203" y="508" type="line"/>
      <point x="43" y="463" type="line"/>
      <point x="43" y="428" type="line"/>
      <point x="159" y="422" type="line"/>
      <point x="68" y="80" type="line"/>
      <point x="68" y="38"/>
      <point x="89" y="-10"/>
    </contour>
    <contour>
      <point x="8" y="-278" type="line"/>
      <point x="67" y="-264" type="line"/>
      <point x="78" y="-189"/>
      <point x="105" y="-42"/>
      <point x="123" y="57" type="curve"/>
      <point x="183" y="421" type="line"/>
      <point x="129" y="437" type="line"/>
      <point x="102" y="267"/>
      <point x="41" y="-50"/>
      <point x="-15" y="-264" type="curve"/>
    </contour>
  </outline>
</glyph>
<glyph name="Germandbls" format="2">
  <advance width="714.7"/>
  <unicode hex="1E9E"/>
  <outline>
    <contour>
      <point x="2" y="-5" type="line"/>
      <point x="49" y="-3"/>
      <point x="103" y="0"/>
      <point x="142" y="0" type="curve" smooth="yes"/>
      <point x="166" y="0" type="line"/>
      <point x="185" y="16" type="line"/>
      <point x="188" y="39"/>
      <point x="195" y="139"/>
      <point x="199" y="165" type="curve" smooth="yes"/>
      <point x="239" y="439" type="line" smooth="yes"/>
      <point x="263" y="606"/>
      <point x="351" y="710"/>
      <point x="632" y="639" type="curve"/>
      <point x="635" y="670" type="line"/>
      <point x="339" y="385" type="line"/>
      <point x="420" y="384" type="line"/>
      <point x="714" y="668" type="line"/>
      <point x="707" y="698" type="line"/>
      <point x="407" y="755"/>
      <point x="192" y="714"/>
      <point x="156" y="465" type="curve" smooth="yes"/>
      <point x="108" y="135" type="line" smooth="yes"/>
      <point x="105" y="114"/>
      <point x="85" y="48"/>
      <point x="80" y="28" type="curve"/>
      <point x="122" y="67" type="line"/>
      <point x="4" y="44" type="line"/>
    </contour>
    <contour>
      <point x="425" y="-15" type="curve" smooth="yes"/>
      <point x="558" y="-15"/>
      <point x="640" y="70"/>
      <point x="655" y="162" type="curve" smooth="yes"/>
      <point x="672" y="274"/>
      <point x="621" y="339"/>
      <point x="536" y="391" type="curve" smooth="yes"/>
      <point x="440" y="451" type="line"/>
      <point x="339" y="385" type="line"/>
      <point x="449" y="323" type="line" smooth="yes"/>
      <point x="517" y="285"/>
      <point x="553" y="239"/>
      <point x="553" y="183" type="curve" smooth="yes"/>
      <point x="553" y="58"/>
      <point x="436" y="-1"/>
      <point x="319" y="82" type="curve"/>
      <point x="351" y="37" type="line"/>
      <point x="351" y="47"/>
      <point x="347" y="103"/>
      <point x="347" y="120" type="curve"/>
      <point x="355" y="182" type="line"/>
      <point x="290" y="188" type="line"/>
      <point x="252" y="36" type="line"/>
      <point x="319" y="-1"/>
      <point x="389" y="-15"/>
    </contour>
  </outline>
</glyph>
<glyph name="emdash" format="2">
  <advance width="1144.1"/>
  <unicode hex="2014"/>
  <outline>
    <contour>
      <point x="67" y="225" type="line"/>
      <point x="1068" y="225" type="line"/>
      <point x="1082" y="286" type="line"/>
      <point x="74" y="286" type="line"/>
    </contour>
  </outline>
</glyph>
<glyph name="quoteright" format="2">
  <advance width="302.2"/>
  <unicode hex="2019"/>
  <outline>
    <contour>
      <point x="141" y="468" type="line"/>
      <point x="223" y="498"/>
      <point x="270" y="618"/>
      <point x="270" y="692" type="curve" smooth="yes"/>
      <point x="270" y="737"/>
      <point x="251" y="771"/>
      <point x="209" y="771" type="curve" smooth="yes"/>
      <point x="170" y="771"/>
      <point x="138" y="735"/>
      <point x="138" y="689" type="curve" smooth="yes"/>
      <point x="138" y="646"/>
      <point x="168" y="620"/>
      <point x="217" y="631" type="curve"/>
      <point x="192" y="644" type="line"/>
      <point x="195" y="602"/>
      <point x="181" y="547"/>
      <point x="125" y="500" type="curve"/>
    </contour>
  </outline>
</glyph>
<glyph name="twodotenleader" format="2">
  <advance width="495.2"/>
  <unicode hex="2025"/>
  <outline>
    <contour>
      <point x="309" y="-6" type="curve" smooth="yes"/>
      <point x="350" y="-6"/>
      <point x="379" y="27"/>
      <point x="379" y="72" type="curve" smooth="yes"/>
      <point x="379" y="105"/>
      <point x="360" y="125"/>
      <point x="328" y="125" type="curve" smooth="yes"/>
      <point x="289" y="125"/>
      <point x="260" y="92"/>
      <point x="260" y="47" type="curve" smooth="yes"/>
      <point x="260" y="15"/>
      <point x="277" y="-6"/>
    </contour>
    <contour>
      <point x="120" y="-6" type="curve" smooth="yes"/>
      <point x="160" y="-6"/>
      <point x="189" y="27"/>
      <point x="189" y="72" type="curve" smooth="yes"/>
      <point x="189" y="105"/>
      <point x="170" y="125"/>
      <point x="139" y="125" type="curve" smooth="yes"/>
      <point x="99" y="125"/>
      <point x="70" y="92"/>
      <point x="70" y="47" type="curve" smooth="yes"/>
      <point x="70" y="16"/>
      <point x="87" y="-6"/>
    </contour>
  </outline>
</glyph>
<glyph name="minute" format="2">
  <advance width="311.7"/>
  <unicode hex="2032"/>
  <outline>
    <contour>
      <point x="176" y="398" type="line"/>
      <point x="264" y="666" type="line"/>
      <point x="196" y="686" type="line"/>
      <point x="127" y="406" type="line"/>
    </contour>
  </outline>
</glyph>
<glyph name="zerosuperior" format="2">
  <advance width="422"/>
  <unicode hex="2070"/>
  <outline>
    <contour>
      <point x="218" y="324" type="curve" smooth="yes"/>
      <point x="337" y="324"/>
      <point x="399" y="445"/>
      <point x="399" y="578" type="curve" smooth="yes"/>
      <point x="399" y="666"/>
      <point x="363" y="734"/>
      <point x="272" y="734" type="curve" smooth="yes"/>
      <point x="154" y="734"/>
      <point x="91" y="614"/>
      <point x="91" y="480" type="curve" smooth="yes"/>
      <point x="91" y="392"/>
      <point x="127" y="324"/>
    </contour>
    <contour>
      <point x="224" y="368" type="curve" smooth="yes"/>
      <point x="186" y="368"/>
      <point x="169" y="402"/>
      <point x="169" y="463" type="curve" smooth="yes"/>
      <point x="169" y="565"/>
      <point x="199" y="690"/>
      <point x="267" y="690" type="curve" smooth="yes"/>
      <point x="303" y="690"/>
      <point x="322" y="658"/>
      <point x="322" y="593" type="curve" smooth="yes"/>
      <point x="322" y="465"/>
      <point x="279" y="368"/>
    </contour>
  </outline>
</glyph>
<glyph name="sevensuperior" format="2">
  <advance width="358.3"/>
  <unicode hex="2077"/>
  <outline>
    <contour>
      <point x="139" y="266" type="line"/>
      <point x="377" y="692" type="line"/>
      <point x="372" y="725" type="line"/>
      <point x="194" y="725" type="line" smooth="yes"/>
      <point x="181" y="725"/>
      <point x="123" y="730"/>
      <point x="123" y="730" type="curve"/>
      <point x="110" y="718" type="line"/>
      <point x="90" y="608" type="line"/>
      <point x="132" y="606" type="line"/>
      <point x="140" y="635" type="line" smooth="yes"/>
      <point x="141" y="638"/>
      <point x="157" y="671"/>
      <point x="168" y="687" type="curve"/>
      <point x="119" y="655" type="line"/>
      <point x="146" y="658"/>
      <point x="181" y="661"/>
      <point x="191" y="661" type="curve" smooth="yes"/>
      <point x="317" y="661" type="line"/>
      <point x="299" y="691" type="line"/>
      <point x="282" y="650"/>
      <point x="257" y="587"/>
      <point x="247" y="571" type="curve" smooth="yes"/>
      <point x="78" y="288" type="line"/>
    </contour>
  </outline>
</glyph>
<glyph name="sixinferior" format="2">
  <advance width="386.1"/>
  <unicode hex="2086"/>
  <outline>
    <contour>
      <point x="151" y="-107" type="curve" smooth="yes"/>
      <point x="226" y="-107"/>
      <point x="309" y="-51"/>
      <point x="309" y="46" type="curve" smooth="yes"/>
      <point x="309" y="109"/>
      <point x="270" y="148"/>
      <point x="202" y="148" type="curve" smooth="yes"/>
      <point x="188" y="148"/>
      <point x="171" y="145"/>
      <point x="153" y="140" type="curve"/>
      <point x="152" y="103" type="line"/>
      <point x="160" y="104"/>
      <point x="171" y="105"/>
      <point x="180" y="105" type="curve" smooth="yes"/>
      <point x="215" y="105"/>
      <point x="229" y="77"/>
      <point x="229" y="44" type="curve" smooth="yes"/>
      <point x="229" y="-14"/>
      <point x="198" y="-61"/>
      <point x="157" y="-61" type="curve" smooth="yes"/>
      <point x="117" y="-61"/>
      <point x="103" y="-21"/>
      <point x="103" y="20" type="curve" smooth="yes"/>
      <point x="103" y="147"/>
      <point x="191" y="274"/>
      <point x="333" y="317" type="curve"/>
      <point x="329" y="353" type="line"/>
      <point x="158" y="322"/>
      <point x="24" y="173"/>
      <point x="24" y="22" type="curve" smooth="yes"/>
      <point x="24" y="-56"/>
      <point x="70" y="-107"/>
    </contour>
  </outline>
</glyph>
<glyph name="franc" format="2">
  <advance width="624.8"/>
  <unicode hex="20A3"/>
  <outline>
    <contour>
      <point x="72" y="-5" type="line"/>
      <point x="72" y="-5"/>
      <point x="175" y="0"/>
      <point x="198" y="0" type="curve"/>
      <point x="329" y="0" type="line"/>
      <point x="342" y="50" type="line"/>
      <point x="216" y="60" type="line"/>
      <point x="250" y="23" type="line"/>
      <point x="249" y="66"/>
      <point x="252" y="115"/>
      <point x="257" y="157" type="curve"/>
      <point x="303" y="499" type="line"/>
      <point x="309" y="545"/>
      <point x="328" y="622"/>
      <point x="330" y="629" type="curve"/>
      <point x="289" y="602" type="line"/>
      <point x="446" y="602" type="line" smooth="yes"/>
      <point x="483" y="602"/>
      <point x="520" y="597"/>
      <point x="535" y="596" type="curve"/>
      <point x="506" y="617" type="line"/>
      <point x="517" y="603"/>
      <point x="534" y="575"/>
      <point x="535" y="566" type="curve"/>
      <point x="538" y="541"/>
      <point x="538" y="526"/>
      <point x="538" y="515" type="curve"/>
      <point x="594" y="519" type="line"/>
      <point x="604" y="643" type="line"/>
      <point x="587" y="659" type="line"/>
      <point x="587" y="659"/>
      <point x="499" y="655"/>
      <point x="481" y="655" type="curve" smooth="yes"/>
      <point x="270" y="655" type="line" smooth="yes"/>
      <point x="252" y="655"/>
      <point x="163" y="659"/>
      <point x="163" y="659" type="curve"/>
      <point x="152" y="608" type="line"/>
      <point x="255" y="592" type="line"/>
      <point x="220" y="628" type="line"/>
      <point x="221" y="614"/>
      <point x="223" y="544"/>
      <point x="221" y="527" type="curve" smooth="yes"/>
      <point x="167" y="129" type="line" smooth="yes"/>
      <point x="164" y="108"/>
      <point x="146" y="48"/>
      <point x="138" y="20" type="curve"/>
      <point x="184" y="64" type="line"/>
      <point x="74" y="42" type="line"/>
    </contour>
    <contour>
      <point x="54" y="146" type="line"/>
      <point x="377" y="162" type="line"/>
      <point x="380" y="202" type="line"/>
      <point x="57" y="186" type="line"/>
    </contour>
    <contour>
      <point x="439" y="235" type="line"/>
      <point x="485" y="240" type="line"/>
      <point x="485" y="240"/>
      <point x="489" y="293"/>
      <point x="494" y="330" type="curve" smooth="yes"/>
      <point x="497" y="356"/>
      <point x="507" y="424"/>
      <point x="507" y="424" type="curve"/>
      <point x="465" y="429" type="line"/>
      <point x="441" y="338" type="line"/>
      <point x="476" y="372" type="line"/>
      <point x="458" y="368"/>
      <point x="419" y="358"/>
      <point x="392" y="358" type="curve" smooth="yes"/>
      <point x="252" y="358" type="line"/>
      <point x="244" y="305" type="line"/>
      <point x="366" y="305" type="line" smooth="yes"/>
      <point x="392" y="305"/>
      <point x="459" y="298"/>
      <point x="470" y="296" type="curve"/>
      <point x="440" y="326" type="line"/>
    </contour>
  </outline>
</glyph>
<glyph name="lira" format="2">
  <advance width="651"/>
  <unicode hex="20A4"/>
  <outline>
    <contour>
      <point x="142" y="55" type="curve"/>
      <point x="246" y="55" type="line"/>
      <point x="247" y="124"/>
      <point x="249" y="127"/>
      <point x="253" y="164" type="curve" smooth="yes"/>
      <point x="299" y="511" type="line" smooth="yes"/>
      <point x="307" y="574"/>
      <point x="351" y="610"/>
      <point x="419" y="610" type="curve" smooth="yes"/>
      <point x="464" y="610"/>
      <point x="512" y="597"/>
      <point x="551" y="580" type="curve"/>
      <point x="515" y="621" type="line"/>
      <point x="520" y="596"/>
      <point x="525" y="546"/>
      <point x="523" y="530" type="curve" smooth="yes"/>
      <point x="518" y="490" type="line"/>
      <point x="573" y="484" type="line"/>
      <point x="608" y="630" type="line"/>
      <point x="551" y="646"/>
      <point x="486" y="662"/>
      <point x="428" y="662" type="curve" smooth="yes"/>
      <point x="316" y="662"/>
      <point x="224" y="604"/>
      <point x="210" y="498" type="curve" smooth="yes"/>
      <point x="162" y="134" type="line" smooth="yes"/>
      <point x="160" y="119"/>
      <point x="151" y="89"/>
    </contour>
    <contour>
      <point x="62" y="-5" type="line"/>
      <point x="100" y="-3"/>
      <point x="146" y="0"/>
      <point x="177" y="0" type="curve" smooth="yes"/>
      <point x="505" y="0" type="line"/>
      <point x="526" y="18" type="line"/>
      <point x="560" y="163" type="line"/>
      <point x="507" y="168" type="line"/>
      <point x="484" y="100" type="line" smooth="yes"/>
      <point x="479" y="84"/>
      <point x="454" y="56"/>
      <point x="436" y="34" type="curve"/>
      <point x="493" y="67" type="line"/>
      <point x="452" y="62"/>
      <point x="386" y="54"/>
      <point x="371" y="54" type="curve" smooth="yes"/>
      <point x="221" y="54" type="line"/>
      <point x="142" y="58" type="line"/>
      <point x="64" y="43" type="line"/>
    </contour>
    <contour>
      <point x="76" y="231" type="line"/>
      <point x="481" y="250" type="line"/>
      <point x="484" y="289" type="line"/>
      <point x="80" y="271" type="line"/>
    </contour>
    <contour>
      <point x="85" y="337" type="line"/>
      <point x="490" y="356" type="line"/>
      <point x="493" y="395" type="line"/>
      <point x="89" y="377" type="line"/>
    </contour>
  </outline>
</glyph>
<glyph name="rupee" format="2">
  <advance width="998.5"/>
  <unicode hex="20A8"/>
  <outline>
    <contour>
      <point x="696" y="-10" type="curve" smooth="yes"/>
      <point x="831" y="-10"/>
      <point x="909" y="49"/>
      <point x="909" y="152" type="curve" smooth="yes"/>
      <point x="909" y="289"/>
      <point x="682" y="285"/>
      <point x="696" y="387" type="curve"/>
      <point x="701" y="428"/>
      <point x="734" y="454"/>
      <point x="781" y="454" type="curve" smooth="yes"/>
      <point x="813" y="454"/>
      <point x="845" y="448"/>
      <point x="876" y="436" type="curve"/>
      <point x="839" y="475" type="line"/>
      <point x="848" y="441"/>
      <point x="855" y="395"/>
      <point x="854" y="383" type="curve" smooth="yes"/>
      <point x="850" y="348" type="line"/>
      <point x="906" y="345" type="line"/>
      <point x="926" y="487" type="line"/>
      <point x="873" y="498"/>
      <point x="826" y="503"/>
      <point x="786" y="503" type="curve" smooth="yes"/>
      <point x="688" y="503"/>
      <point x="616" y="440"/>
      <point x="616" y="353" type="curve" smooth="yes"/>
      <point x="616" y="217"/>
      <point x="828" y="220"/>
      <point x="828" y="126" type="curve" smooth="yes"/>
      <point x="828" y="71"/>
      <point x="780" y="38"/>
      <point x="701" y="38" type="curve" smooth="yes"/>
      <point x="571" y="38"/>
      <point x="528" y="87"/>
      <point x="465" y="211" type="curve" smooth="yes"/>
      <point x="412" y="316" type="line"/>
      <point x="322" y="303" type="line"/>
      <point x="375" y="182" type="line" smooth="yes"/>
      <point x="421" y="76"/>
      <point x="475" y="-10"/>
    </contour>
    <contour>
      <point x="39" y="-5" type="line"/>
      <point x="39" y="-5"/>
      <point x="147" y="0"/>
      <point x="171" y="0" type="curve"/>
      <point x="299" y="0" type="line"/>
      <point x="312" y="52" type="line"/>
      <point x="189" y="62" type="line"/>
      <point x="223" y="28" type="line"/>
      <point x="221" y="54"/>
      <point x="224" y="112"/>
      <point x="230" y="164" type="curve" smooth="yes"/>
      <point x="271" y="487" type="line" smooth="yes"/>
      <point x="276" y="528"/>
      <point x="294" y="607"/>
      <point x="298" y="621" type="curve"/>
      <point x="240" y="654" type="line"/>
      <point x="221" y="654"/>
      <point x="127" y="659"/>
      <point x="127" y="659" type="curve"/>
      <point x="115" y="607" type="line"/>
      <point x="191" y="595" type="line"/>
      <point x="191" y="561"/>
      <point x="191" y="530"/>
      <point x="190" y="523" type="curve" smooth="yes"/>
      <point x="140" y="134" type="line" smooth="yes"/>
      <point x="137" y="113"/>
      <point x="118" y="47"/>
      <point x="113" y="28" type="curve"/>
      <point x="155" y="66" type="line"/>
      <point x="41" y="43" type="line"/>
    </contour>
    <contour>
      <point x="326" y="303" type="curve" smooth="yes"/>
      <point x="472" y="303"/>
      <point x="581" y="391"/>
      <point x="581" y="513" type="curve" smooth="yes"/>
      <point x="581" y="601"/>
      <point x="518" y="661"/>
      <point x="384" y="661" type="curve" smooth="yes"/>
      <point x="330" y="661"/>
      <point x="294" y="654"/>
      <point x="240" y="654" type="curve"/>
      <point x="233" y="601" type="line" smooth="yes"/>
      <point x="229" y="601"/>
      <point x="312" y="614"/>
      <point x="348" y="614" type="curve" smooth="yes"/>
      <point x="449" y="614"/>
      <point x="491" y="567"/>
      <point x="491" y="503" type="curve" smooth="yes"/>
      <point x="491" y="409"/>
      <point x="423" y="350"/>
      <point x="314" y="350" type="curve" smooth="yes"/>
      <point x="272" y="350"/>
      <point x="188" y="364"/>
      <point x="188" y="364" type="curve"/>
      <point x="180" y="308" type="line"/>
      <point x="180" y="308"/>
      <point x="256" y="303"/>
    </contour>
  </outline>
</glyph>
<glyph name="guarani" format="2">
  <advance width="654.4"/>
  <unicode hex="20B2"/>
  <outline>
    <contour>
      <point x="330" y="-13" type="curve" smooth="yes"/>
      <point x="408" y="-13"/>
      <point x="476" y="3"/>
      <point x="536" y="17" type="curve"/>
      <point x="554" y="148" type="line" smooth="yes"/>
      <point x="560" y="192"/>
      <point x="580" y="285"/>
      <point x="580" y="285" type="curve"/>
      <point x="566" y="300" type="line"/>
      <point x="566" y="300"/>
      <point x="519" y="297"/>
      <point x="500" y="297" type="curve"/>
      <point x="403" y="297" type="line"/>
      <point x="391" y="245" type="line"/>
      <point x="516" y="234" type="line"/>
      <point x="486" y="265" type="line"/>
      <point x="486" y="242"/>
      <point x="487" y="200"/>
      <point x="483" y="174" type="curve" smooth="yes"/>
      <point x="475" y="114" type="line" smooth="yes"/>
      <point x="475" y="107"/>
      <point x="457" y="52"/>
      <point x="449" y="32" type="curve"/>
      <point x="479" y="63" type="line"/>
      <point x="436" y="49"/>
      <point x="377" y="40"/>
      <point x="334" y="40" type="curve" smooth="yes"/>
      <point x="221" y="40"/>
      <point x="168" y="129"/>
      <point x="168" y="252" type="curve" smooth="yes"/>
      <point x="168" y="446"/>
      <point x="269" y="588"/>
      <point x="409" y="588" type="curve" smooth="yes"/>
      <point x="452" y="588"/>
      <point x="509" y="575"/>
      <point x="547" y="561" type="curve"/>
      <point x="526" y="590" type="line"/>
      <point x="529" y="572"/>
      <point x="535" y="534"/>
      <point x="534" y="523" type="curve" smooth="yes"/>
      <point x="529" y="481" type="line"/>
      <point x="581" y="477" type="line"/>
      <point x="608" y="610" type="line"/>
      <point x="552" y="624"/>
      <point x="494" y="640"/>
      <point x="419" y="640" type="curve" smooth="yes"/>
      <point x="213" y="640"/>
      <point x="74" y="483"/>
      <point x="74" y="249" type="curve" smooth="yes"/>
      <point x="74" y="92"/>
      <point x="159" y="-13"/>
    </contour>
    <contour>
      <point x="312" y="-154" type="line"/>
      <point x="343" y="15" type="line"/>
      <point x="300" y="15" type="line"/>
      <point x="270" y="-151" type="line"/>
    </contour>
    <contour>
      <point x="402" y="616" type="line"/>
      <point x="444" y="616" type="line"/>
      <point x="474" y="785" type="line"/>
      <point x="432" y="788" type="line"/>
    </contour>
  </outline>
</glyph>
<glyph name="cedi" format="2">
  <advance width="613.6"/>
  <unicode hex="20B5"/>
  <outline>
    <contour>
      <point x="317" y="-13" type="curve" smooth="yes"/>
      <point x="391" y="-13"/>
      <point x="454" y="3"/>
      <point x="511" y="17" type="curve"/>
      <point x="523" y="152" type="line"/>
      <point x="471" y="150" type="line"/>
      <point x="471" y="150"/>
      <point x="466" y="117"/>
      <point x="464" y="108" type="curve"/>
      <point x="462" y="96"/>
      <point x="445" y="59"/>
      <point x="432" y="34" type="curve"/>
      <point x="467" y="65" type="line"/>
      <point x="423" y="50"/>
      <point x="367" y="40"/>
      <point x="323" y="40" type="curve" smooth="yes"/>
      <point x="218" y="40"/>
      <point x="169" y="129"/>
      <point x="169" y="250" type="curve" smooth="yes"/>
      <point x="169" y="443"/>
      <point x="265" y="588"/>
      <point x="397" y="588" type="curve" smooth="yes"/>
      <point x="438" y="588"/>
      <point x="490" y="574"/>
      <point x="522" y="560" type="curve"/>
      <point x="500" y="590" type="line"/>
      <point x="502" y="572"/>
      <point x="511" y="535"/>
      <point x="509" y="523" type="curve" smooth="yes"/>
      <point x="503" y="481" type="line"/>
      <point x="556" y="477" type="line"/>
      <point x="583" y="610" type="line"/>
      <point x="529" y="624"/>
      <point x="475" y="640"/>
      <point x="404" y="640" type="curve" smooth="yes"/>
      <point x="207" y="640"/>
      <point x="74" y="480"/>
      <point x="74" y="246" type="curve" smooth="yes"/>
      <point x="74" y="90"/>
      <point x="154" y="-13"/>
    </contour>
    <contour>
      <point x="300" y="-154" type="line"/>
      <point x="329" y="15" type="line"/>
      <point x="286" y="15" type="line"/>
      <point x="257" y="-151" type="line"/>
    </contour>
    <contour>
      <point x="380" y="616" type="line"/>
      <point x="422" y="616" type="line"/>
      <point x="451" y="785" type="line"/>
      <point x="409" y="788" type="line"/>
    </contour>
  </outline>
</glyph>
<glyph name="rupeeIndian" format="2">
  <advance width="610.8"/>
  <unicode hex="20B9"/>
  <outline>
    <contour>
      <point x="81" y="279" type="line"/>
      <point x="216" y="279" type="line"/>
      <point x="339" y="279"/>
      <point x="471" y="352"/>
      <point x="471" y="505" type="curve" smooth="yes"/>
      <point x="471" y="606"/>
      <point x="404" y="659"/>
      <point x="292" y="659" type="curve" smooth="yes"/>
      <point x="240" y="659"/>
      <point x="188" y="656"/>
      <point x="133" y="653" type="curve"/>
      <point x="129" y="603" type="line" smooth="yes"/>
      <point x="124" y="601"/>
      <point x="213" y="612"/>
      <point x="244" y="612" type="curve" smooth="yes"/>
      <point x="329" y="612"/>
      <point x="381" y="572"/>
      <point x="381" y="495" type="curve" smooth="yes"/>
      <point x="381" y="392"/>
      <point x="312" y="327"/>
      <point x="204" y="327" type="curve"/>
      <point x="88" y="327" type="line"/>
    </contour>
    <contour>
      <point x="325" y="0" type="curve"/>
      <point x="399" y="0"/>
      <point x="471" y="0"/>
      <point x="471" y="0" type="curve"/>
      <point x="485" y="50" type="line"/>
      <point x="420" y="57" type="line"/>
      <point x="408" y="78"/>
      <point x="389" y="111"/>
      <point x="384" y="122" type="curve"/>
      <point x="380" y="130"/>
      <point x="336" y="226"/>
      <point x="300" y="325" type="curve"/>
      <point x="206" y="321" type="line"/>
      <point x="288" y="108" type="line"/>
      <point x="298" y="86"/>
      <point x="325" y="0"/>
    </contour>
    <contour>
      <point x="108" y="454" type="line"/>
      <point x="565" y="476" type="line"/>
      <point x="569" y="515" type="line"/>
      <point x="111" y="494" type="line"/>
    </contour>
    <contour>
      <point x="130" y="614" type="line"/>
      <point x="588" y="636" type="line"/>
      <point x="592" y="674" type="line"/>
      <point x="133" y="653" type="line"/>
    </contour>
  </outline>
</glyph>
<glyph name="ruble" format="2">
  <advance width="652.4"/>
  <unicode hex="20BD"/>
  <outline>
    <contour>
      <point x="71" y="-5" type="line"/>
      <point x="71" y="-5"/>
      <point x="175" y="0"/>
      <point x="197" y="0" type="curve"/>
      <point x="328" y="0" type="line"/>
      <point x="341" y="50" type="line"/>
      <point x="215" y="60" type="line"/>
      <point x="250" y="26" type="line"/>
      <point x="248" y="50"/>
      <point x="251" y="112"/>
      <point x="256" y="157" type="curve" smooth="yes"/>
      <point x="301" y="499" type="line" smooth="yes"/>
      <point x="310" y="556"/>
      <point x="324" y="606"/>
      <point x="329" y="628" type="curve"/>
      <point x="269" y="655" type="line"/>
      <point x="251" y="655"/>
      <point x="162" y="659"/>
      <point x="162" y="659" type="curve"/>
      <point x="150" y="608" type="line"/>
      <point x="254" y="592" type="line"/>
      <point x="220" y="629" type="line"/>
      <point x="220" y="548"/>
      <point x="222" y="554"/>
      <point x="219" y="527" type="curve" smooth="yes"/>
      <point x="167" y="129" type="line" smooth="yes"/>
      <point x="164" y="108"/>
      <point x="144" y="45"/>
      <point x="138" y="26" type="curve"/>
      <point x="183" y="64" type="line"/>
      <point x="72" y="42" type="line"/>
    </contour>
    <contour>
      <point x="54" y="146" type="line"/>
      <point x="377" y="162" type="line"/>
      <point x="380" y="202" type="line"/>
      <point x="57" y="186" type="line"/>
    </contour>
    <contour>
      <point x="353" y="268" type="curve" smooth="yes"/>
      <point x="478" y="268"/>
      <point x="613" y="343"/>
      <point x="613" y="500" type="curve" smooth="yes"/>
      <point x="613" y="604"/>
      <point x="544" y="659"/>
      <point x="428" y="659" type="curve" smooth="yes"/>
      <point x="376" y="659"/>
      <point x="321" y="655"/>
      <point x="269" y="655" type="curve"/>
      <point x="262" y="604" type="line"/>
      <point x="301" y="608"/>
      <point x="346" y="612"/>
      <point x="382" y="612" type="curve" smooth="yes"/>
      <point x="468" y="612"/>
      <point x="523" y="570"/>
      <point x="523" y="491" type="curve" smooth="yes"/>
      <point x="523" y="385"/>
      <point x="453" y="316"/>
      <point x="342" y="316" type="curve" smooth="yes"/>
      <point x="302" y="316"/>
      <point x="211" y="327"/>
      <point x="211" y="327" type="curve"/>
      <point x="204" y="272" type="line"/>
      <point x="204" y="272"/>
      <point x="289" y="268"/>
    </contour>
  </outline>
</glyph>
<glyph name="estimated" format="2">
  <advance width="890.8"/>
  <unicode hex="212E"/>
  <outline>
    <contour>
      <point x="461" y="-12" type="curve" smooth="yes"/>
      <point x="579" y="-12"/>
      <point x="686" y="39"/>
      <point x="753" y="117" type="curve" smooth="yes"/>
      <point x="699" y="117" type="line" smooth="yes"/>
      <point x="642" y="50"/>
      <point x="557" y="8"/>
      <point x="462" y="8" type="curve" smooth="yes"/>
      <point x="373" y="8"/>
      <point x="292" y="45"/>
      <point x="236" y="105" type="curve" smooth="yes"/>
      <point x="231" y="111"/>
      <point x="227" y="118"/>
      <point x="227" y="126" type="curve" smooth="yes"/>
      <point x="227" y="307" type="line" smooth="yes"/>
      <point x="227" y="310"/>
      <point x="229" y="311"/>
      <point x="232" y="311" type="curve" smooth="yes"/>
      <point x="829" y="311" type="line"/>
      <point x="829" y="319" type="line" smooth="yes"/>
      <point x="829" y="503"/>
      <point x="664" y="651"/>
      <point x="461" y="651" type="curve" smooth="yes"/>
      <point x="258" y="651"/>
      <point x="92" y="503"/>
      <point x="92" y="319" type="curve" smooth="yes"/>
      <point x="92" y="136"/>
      <point x="258" y="-12"/>
    </contour>
    <contour>
      <point x="232" y="329" type="line" smooth="yes"/>
      <point x="229" y="329"/>
      <point x="227" y="331"/>
      <point x="227" y="334" type="curve" smooth="yes"/>
      <point x="227" y="512" type="line" smooth="yes"/>
      <point x="227" y="521"/>
      <point x="231" y="529"/>
      <point x="237" y="535" type="curve" smooth="yes"/>
      <point x="294" y="594"/>
      <point x="373" y="631"/>
      <point x="462" y="631" type="curve" smooth="yes"/>
      <point x="549" y="631"/>
      <point x="628" y="595"/>
      <point x="685" y="538" type="curve" smooth="yes"/>
      <point x="691" y="532"/>
      <point x="695" y="525"/>
      <point x="695" y="516" type="curve" smooth="yes"/>
      <point x="695" y="334" type="line" smooth="yes"/>
      <point x="695" y="331"/>
      <point x="693" y="329"/>
      <point x="690" y="329" type="curve" smooth="yes"/>
    </contour>
  </outline>
</glyph>
<glyph name="leftRightArrow" format="2">
  <advance width="1102.7"/>
  <unicode hex="2194"/>
  <outline>
    <contour>
      <point x="774" y="-7" type="line"/>
      <point x="1091" y="249" type="line"/>
      <point x="1092" y="264" type="line"/>
      <point x="836" y="520" type="line"/>
      <point x="789" y="469" type="line"/>
      <point x="1025" y="234" type="line"/>
      <point x="1030" y="279" type="line"/>
      <point x="738" y="44" type="line"/>
    </contour>
    <contour>
      <point x="270" y="-7" type="line"/>
      <point x="316" y="44" type="line"/>
      <point x="80" y="278" type="line"/>
      <point x="76" y="233" type="line"/>
      <point x="366" y="469" type="line"/>
      <point x="331" y="520" type="line"/>
      <point x="14" y="263" type="line"/>
      <point x="13" y="248" type="line"/>
    </contour>
    <contour>
      <point x="41" y="226" type="line"/>
      <point x="1055" y="226" type="line"/>
      <point x="1063" y="284" type="line"/>
      <point x="49" y="284" type="line"/>
    </contour>
  </outline>
</glyph>
<glyph name="upDownArrow" format="2">
  <advance width="537.4"/>
  <unicode hex="2195"/>
  <outline>
    <contour>
      <point x="85" y="416" type="line"/>
      <point x="346" y="688" type="line"/>
      <point x="301" y="688" type="line"/>
      <point x="497" y="417" type="line"/>
      <point x="551" y="458" type="line"/>
      <point x="338" y="753" type="line"/>
      <point x="323" y="753" type="line"/>
      <point x="38" y="457" type="line"/>
    </contour>
    <contour>
      <point x="202" y="-244" type="line"/>
      <point x="217" y="-244" type="line"/>
      <point x="501" y="52" type="line"/>
      <point x="455" y="93" type="line"/>
      <point x="193" y="-179" type="line"/>
      <point x="240" y="-179" type="line"/>
      <point x="43" y="92" type="line"/>
      <point x="-12" y="51" type="line"/>
    </contour>
    <contour>
      <point x="184" y="-204" type="line"/>
      <point x="245" y="-204" type="line"/>
      <point x="356" y="713" type="line"/>
      <point x="295" y="713" type="line"/>
    </contour>
  </outline>
</glyph>
<glyph name="northWestArrow" format="2">
  <advance width="486.7"/>
  <unicode hex="2196"/>
  <outline>
    <contour>
      <point x="65" y="65" type="line"/>
      <point x="131" y="72" type="line"/>
      <point x="147" y="431" type="line"/>
      <point x="111" y="399" type="line"/>
      <point x="458" y="374" type="line"/>
      <point x="472" y="438" type="line"/>
      <point x="97" y="465" type="line"/>
      <point x="84" y="455" type="line"/>
    </contour>
    <contour>
      <point x="392" y="59" type="line"/>
      <point x="436" y="98" type="line"/>
      <point x="436" y="110" type="line"/>
      <point x="436" y="110"/>
      <point x="397" y="146"/>
      <point x="367" y="181" type="curve" smooth="yes"/>
      <point x="135" y="461" type="line"/>
      <point x="86" y="419" type="line"/>
    </contour>
  </outline>
</glyph>
<glyph name="northEastArrow" format="2">
  <advance width="487.7"/>
  <unicode hex="2197"/>
  <outline>
    <contour>
      <point x="378" y="60" type="line"/>
      <point x="452" y="450" type="line"/>
      <point x="443" y="460" type="line"/>
      <point x="60" y="431" type="line"/>
      <point x="60" y="366" type="line"/>
      <point x="411" y="393" type="line"/>
      <point x="382" y="425" type="line"/>
      <point x="315" y="67" type="line"/>
    </contour>
    <contour>
      <point x="61" y="55" type="line"/>
      <point x="61" y="55"/>
      <point x="106" y="96"/>
      <point x="143" y="132" type="curve" smooth="yes"/>
      <point x="441" y="412" type="line"/>
      <point x="403" y="456" type="line"/>
      <point x="13" y="95" type="line"/>
      <point x="48" y="56" type="line"/>
    </contour>
  </outline>
</glyph>
<glyph name="southEastArrow" format="2">
  <advance width="486.8"/>
  <unicode hex="2198"/>
  <outline>
    <contour>
      <point x="394" y="59" type="line"/>
      <point x="405" y="70" type="line"/>
      <point x="425" y="460" type="line"/>
      <point x="360" y="453" type="line"/>
      <point x="342" y="94" type="line"/>
      <point x="378" y="126" type="line"/>
      <point x="33" y="151" type="line"/>
      <point x="18" y="87" type="line"/>
    </contour>
    <contour>
      <point x="355" y="64" type="line"/>
      <point x="405" y="106" type="line"/>
      <point x="98" y="466" type="line"/>
      <point x="55" y="427" type="line"/>
      <point x="55" y="415" type="line"/>
      <point x="55" y="415"/>
      <point x="94" y="379"/>
      <point x="124" y="343" type="curve" smooth="yes"/>
    </contour>
  </outline>
</glyph>
<glyph name="partialdiff" format="2">
  <advance width="658.8"/>
  <unicode hex="2202"/>
  <outline>
    <contour>
      <point x="275" y="-11" type="curve" smooth="yes"/>
      <point x="443" y="-11"/>
      <point x="560" y="178"/>
      <point x="560" y="452" type="curve" smooth="yes"/>
      <point x="560" y="600"/>
      <point x="509" y="720"/>
      <point x="366" y="720" type="curve" smooth="yes"/>
      <point x="316" y="720"/>
      <point x="273" y="702"/>
      <point x="232" y="681" type="curve"/>
      <point x="243" y="638" type="line"/>
      <point x="275" y="648"/>
      <point x="309" y="664"/>
      <point x="360" y="664" type="curve" smooth="yes"/>
      <point x="445" y="664"/>
      <point x="470" y="568"/>
      <point x="470" y="463" type="curve" smooth="yes"/>
      <point x="470" y="225"/>
      <point x="388" y="44"/>
      <point x="281" y="44" type="curve" smooth="yes"/>
      <point x="214" y="44"/>
      <point x="183" y="100"/>
      <point x="183" y="166" type="curve" smooth="yes"/>
      <point x="183" y="265"/>
      <point x="247" y="346"/>
      <point x="325" y="346" type="curve" smooth="yes"/>
      <point x="356" y="346"/>
      <point x="385" y="341"/>
      <point x="406" y="338" type="curve"/>
      <point x="418" y="384" type="line"/>
      <point x="398" y="392"/>
      <point x="354" y="403"/>
      <point x="324" y="403" type="curve" smooth="yes"/>
      <point x="192" y="403"/>
      <point x="92" y="301"/>
      <point x="92" y="168" type="curve" smooth="yes"/>
      <point x="92" y="62"/>
      <point x="167" y="-11"/>
    </contour>
  </outline>
</glyph>
<glyph name="emptyset" format="2">
  <advance width="946.6"/>
  <unicode hex="2205"/>
  <outline>
    <contour>
      <point x="485" y="-16" type="curve" smooth="yes"/>
      <point x="687" y="-16"/>
      <point x="851" y="151"/>
      <point x="851" y="349" type="curve" smooth="yes"/>
      <point x="851" y="553"/>
      <point x="688" y="714"/>
      <point x="485" y="714" type="curve" smooth="yes"/>
      <point x="285" y="714"/>
      <point x="120" y="551"/>
      <point x="120" y="349" type="curve" smooth="yes"/>
      <point x="120" y="143"/>
      <point x="287" y="-16"/>
    </contour>
    <contour>
      <point x="486" y="49" type="curve" smooth="yes"/>
      <point x="322" y="49"/>
      <point x="186" y="184"/>
      <point x="186" y="349" type="curve" smooth="yes"/>
      <point x="186" y="518"/>
      <point x="322" y="649"/>
      <point x="486" y="649" type="curve" smooth="yes"/>
      <point x="651" y="649"/>
      <point x="785" y="513"/>
      <point x="785" y="349" type="curve" smooth="yes"/>
      <point x="785" y="184"/>
      <point x="652" y="49"/>
    </contour>
    <component base="fraction" xOffset="408" yOffset="13"/>
  </outline>
</glyph>
<glyph name="product" format="2">
  <advance width="743"/>
  <unicode hex="220F"/>
  <outline>
    <contour>
      <point x="75" y="-228" type="line"/>
      <point x="146" y="-228" type="line"/>
      <point x="253" y="649" type="line"/>
      <point x="186" y="649" type="line"/>
    </contour>
    <contour>
      <point x="479" y="-228" type="line"/>
      <point x="546" y="-228" type="line"/>
      <point x="657" y="649" type="line"/>
      <point x="585" y="649" type="line"/>
    </contour>
    <contour>
      <point x="134" y="632" type="line"/>
      <point x="703" y="637" type="line"/>
      <point x="712" y="704" type="line"/>
      <point x="143" y="704" type="line"/>
    </contour>
  </outline>
</glyph>
<glyph name="minus" format="2">
  <advance width="738.4"/>
  <unicode hex="2212"/>
  <outline>
    <contour>
      <point x="143" y="220" type="line"/>
      <point x="589" y="225" type="line"/>
      <point x="598" y="293" type="line"/>
      <point x="153" y="293" type="line"/>
    </contour>
  </outline>
</glyph>
<glyph name="divisionslash" format="2">
  <advance width="962.5"/>
  <unicode hex="2215"/>
  <outline>
    <contour>
      <point x="163" y="356" type="line"/>
      <point x="830" y="356" type="line"/>
      <point x="833" y="421" type="line"/>
      <point x="166" y="421" type="line"/>
    </contour>
  </outline>
</glyph>
<glyph name="radical" format="2">
  <advance width="799.7"/>
  <unicode hex="221A"/>
  <outline>
    <contour>
      <point x="387" y="-90" type="line"/>
      <point x="444" y="-90" type="line"/>
      <point x="763" y="701" type="line"/>
      <point x="695" y="721" type="line"/>
      <point x="418" y="0" type="line"/>
      <point x="436" y="0" type="line"/>
      <point x="370" y="513" type="line"/>
      <point x="112" y="446" type="line"/>
      <point x="122" y="376" type="line"/>
      <point x="342" y="437" type="line"/>
      <point x="303" y="461" type="line"/>
    </contour>
  </outline>
</glyph>
<glyph name="infinity" format="2">
  <advance width="894"/>
  <unicode hex="221E"/>
  <outline>
    <contour>
      <point x="264" y="142" type="curve" smooth="yes"/>
      <point x="359" y="142"/>
      <point x="408" y="204"/>
      <point x="457" y="274" type="curve" smooth="yes"/>
      <point x="472" y="297" type="line" smooth="yes"/>
      <point x="502" y="340"/>
      <point x="551" y="449"/>
      <point x="644" y="449" type="curve" smooth="yes"/>
      <point x="700" y="449"/>
      <point x="742" y="402"/>
      <point x="742" y="348" type="curve" smooth="yes"/>
      <point x="742" y="280"/>
      <point x="681" y="221"/>
      <point x="613" y="221" type="curve" smooth="yes"/>
      <point x="539" y="221"/>
      <point x="493" y="277"/>
      <point x="471" y="311" type="curve"/>
      <point x="445" y="272" type="line"/>
      <point x="469" y="218"/>
      <point x="519" y="141"/>
      <point x="602" y="141" type="curve" smooth="yes"/>
      <point x="704" y="141"/>
      <point x="788" y="243"/>
      <point x="788" y="367" type="curve" smooth="yes"/>
      <point x="788" y="455"/>
      <point x="741" y="529"/>
      <point x="653" y="529" type="curve" smooth="yes"/>
      <point x="549" y="529"/>
      <point x="500" y="457"/>
      <point x="459" y="396" type="curve" smooth="yes"/>
      <point x="449" y="379" type="line" smooth="yes"/>
      <point x="397" y="302"/>
      <point x="354" y="223"/>
      <point x="272" y="223" type="curve" smooth="yes"/>
      <point x="216" y="223"/>
      <point x="174" y="271"/>
      <point x="174" y="323" type="curve" smooth="yes"/>
      <point x="174" y="391"/>
      <point x="235" y="450"/>
      <point x="305" y="450" type="curve" smooth="yes"/>
      <point x="357" y="450"/>
      <point x="403" y="422"/>
      <point x="443" y="361" type="curve"/>
      <point x="471" y="398" type="line"/>
      <point x="446" y="452"/>
      <point x="396" y="530"/>
      <point x="315" y="530" type="curve" smooth="yes"/>
      <point x="212" y="530"/>
      <point x="128" y="428"/>
      <point x="128" y="304" type="curve" smooth="yes"/>
      <point x="128" y="216"/>
      <point x="175" y="142"/>
    </contour>
  </outline>
</glyph>
<glyph name="integral" format="2">
  <advance width="467.7"/>
  <unicode hex="222B"/>
  <outline>
    <contour>
      <point x="76" y="-235" type="curve" smooth="yes"/>
      <point x="174" y="-235"/>
      <point x="235" y="-165"/>
      <point x="248" y="-64" type="curve"/>
      <point x="270" y="106"/>
      <point x="268" y="404"/>
      <point x="287" y="544" type="curve"/>
      <point x="295" y="608"/>
      <point x="318" y="663"/>
      <point x="383" y="663" type="curve" smooth="yes"/>
      <point x="399" y="663"/>
      <point x="411" y="660"/>
      <point x="421" y="656" type="curve"/>
      <point x="439" y="706" type="line"/>
      <point x="425" y="712"/>
      <point x="407" y="715"/>
      <point x="390" y="715" type="curve" smooth="yes"/>
      <point x="293" y="715"/>
      <point x="231" y="645"/>
      <point x="218" y="544" type="curve"/>
      <point x="196" y="374"/>
      <point x="198" y="76"/>
      <point x="180" y="-64" type="curve"/>
      <point x="172" y="-128"/>
      <point x="147" y="-183"/>
      <point x="82" y="-183" type="curve" smooth="yes"/>
      <point x="68" y="-183"/>
      <point x="54" y="-180"/>
      <point x="44" y="-176" type="curve"/>
      <point x="27" y="-226" type="line"/>
      <point x="41" y="-232"/>
      <point x="59" y="-235"/>
    </contour>
  </outline>
</glyph>
<glyph name="notequal" format="2">
  <advance width="671.3"/>
  <unicode hex="2260"/>
  <outline>
    <contour>
      <point x="216" y="-17" type="line"/>
      <point x="516" y="500" type="line"/>
      <point x="450" y="512" type="line"/>
      <point x="149" y="-5" type="line"/>
    </contour>
    <contour>
      <point x="97" y="121" type="line"/>
      <point x="542" y="121" type="line"/>
      <point x="551" y="189" type="line"/>
      <point x="104" y="183" type="line"/>
    </contour>
    <contour>
      <point x="121" y="309" type="line"/>
      <point x="566" y="314" type="line"/>
      <point x="575" y="376" type="line"/>
      <point x="129" y="376" type="line"/>
    </contour>
  </outline>
</glyph>
<glyph name="greaterequal" format="2">
  <advance width="628.9"/>
  <unicode hex="2265"/>
  <outline>
    <contour>
      <point x="166" y="97" type="line"/>
      <point x="499" y="333" type="line"/>
      <point x="225" y="569" type="line"/>
      <point x="174" y="510" type="line"/>
      <point x="409" y="313" type="line"/>
      <point x="415" y="354" type="line"/>
      <point x="130" y="156" type="line"/>
    </contour>
    <contour>
      <point x="62" y="0" type="line"/>
      <point x="507" y="0" type="line"/>
      <point x="516" y="69" type="line"/>
      <point x="70" y="64" type="line"/>
    </contour>
  </outline>
</glyph>
<glyph name="squaredtimes" format="2">
  <advance width="945.4"/>
  <unicode hex="22A0"/>
  <outline>
    <contour>
      <point x="90" y="0" type="line"/>
      <point x="795" y="0" type="line"/>
      <point x="880" y="705" type="line"/>
      <point x="175" y="705" type="line"/>
    </contour>
    <contour>
      <point x="725" y="27" type="line"/>
      <point x="736" y="52" type="line"/>
      <point x="169" y="52" type="line"/>
      <point x="177" y="29" type="line"/>
      <point x="505" y="325" type="line"/>
      <point x="458" y="328" type="line"/>
    </contour>
    <contour>
      <point x="149" y="65" type="line"/>
      <point x="219" y="635" type="line"/>
      <point x="193" y="626" type="line"/>
      <point x="458" y="328" type="line"/>
      <point x="461" y="375" type="line"/>
      <point x="127" y="76" type="line"/>
    </contour>
    <contour>
      <point x="752" y="75" type="line"/>
      <point x="778" y="83" type="line"/>
      <point x="513" y="378" type="line"/>
      <point x="510" y="331" type="line"/>
      <point x="843" y="632" type="line"/>
      <point x="822" y="643" type="line"/>
    </contour>
    <contour>
      <point x="514" y="377" type="line"/>
      <point x="244" y="679" type="line"/>
      <point x="232" y="654" type="line"/>
      <point x="804" y="654" type="line"/>
      <point x="795" y="676" type="line"/>
      <point x="467" y="380" type="line"/>
    </contour>
  </outline>
</glyph>
<glyph name="squareddotoperator" format="2">
  <advance width="1008.6"/>
  <unicode hex="22A1"/>
  <outline>
    <contour>
      <point x="121" y="0" type="line"/>
      <point x="826" y="0" type="line"/>
      <point x="912" y="705" type="line"/>
      <point x="207" y="705" type="line"/>
    </contour>
    <contour>
      <point x="178" y="52" type="line"/>
      <point x="253" y="654" type="line"/>
      <point x="855" y="654" type="line"/>
      <point x="780" y="52" type="line"/>
    </contour>
    <contour>
      <point x="501" y="268" type="curve" smooth="yes"/>
      <point x="554" y="268"/>
      <point x="592" y="311"/>
      <point x="592" y="372" type="curve" smooth="yes"/>
      <point x="592" y="413"/>
      <point x="570" y="438"/>
      <point x="532" y="438" type="curve" smooth="yes"/>
      <point x="480" y="438"/>
      <point x="442" y="394"/>
      <point x="442" y="333" type="curve" smooth="yes"/>
      <point x="442" y="294"/>
      <point x="462" y="268"/>
    </contour>
  </outline>
</glyph>
<glyph name="downWhiteTriangle" format="2">
  <advance width="609.5"/>
  <unicode hex="25BD"/>
  <outline>
    <contour>
      <point x="348" y="90" type="line"/>
      <point x="640" y="615" type="line"/>
      <point x="55" y="615" type="line"/>
    </contour>
    <contour>
      <point x="331" y="185" type="line"/>
      <point x="364" y="185" type="line"/>
      <point x="141" y="585" type="line"/>
      <point x="124" y="555" type="line"/>
      <point x="571" y="555" type="line"/>
      <point x="554" y="585" type="line"/>
    </contour>
  </outline>
</glyph>
<glyph name="leftBlackTriangle" format="2">
  <advance width="425"/>
  <unicode hex="25C0"/>
  <outline>
    <contour>
      <point x="352" y="77" type="line"/>
      <point x="352" y="449" type="line"/>
      <point x="17" y="262" type="line"/>
    </contour>
  </outline>
</glyph>
<glyph name="leftWhiteTriangle" format="2">
  <advance width="612.4"/>
  <unicode hex="25C1"/>
  <outline>
    <contour>
      <point x="551" y="61" type="line"/>
      <point x="551" y="645" type="line"/>
      <point x="22" y="353" type="line"/>
    </contour>
    <contour>
      <point x="490" y="130" type="line"/>
      <point x="520" y="146" type="line"/>
      <point x="117" y="370" type="line"/>
      <point x="117" y="336" type="line"/>
      <point x="520" y="560" type="line"/>
      <point x="490" y="576" type="line"/>
    </contour>
  </outline>
</glyph>
<glyph name="blackDiamond" format="2">
  <advance width="548.6"/>
  <unicode hex="25C6"/>
  <outline>
    <contour>
      <point x="287" y="67" type="line"/>
      <point x="549" y="349" type="line"/>
      <point x="287" y="635" type="line"/>
      <point x="25" y="360" type="line"/>
    </contour>
  </outline>
</glyph>
<glyph name="fisheye" format="2">
  <advance width="668.4"/>
  <unicode hex="25C9"/>
  <outline>
    <contour>
      <point x="339" y="-14" type="curve" smooth="yes"/>
      <point x="504" y="-14"/>
      <point x="639" y="120"/>
      <point x="639" y="286" type="curve" smooth="yes"/>
      <point x="639" y="451"/>
      <point x="504" y="586"/>
      <point x="339" y="586" type="curve" smooth="yes"/>
      <point x="173" y="586"/>
      <point x="39" y="451"/>
      <point x="39" y="286" type="curve" smooth="yes"/>
      <point x="39" y="120"/>
      <point x="173" y="-14"/>
    </contour>
    <contour>
      <point x="339" y="24" type="curve" smooth="yes"/>
      <point x="195" y="24"/>
      <point x="78" y="142"/>
      <point x="78" y="286" type="curve" smooth="yes"/>
      <point x="78" y="429"/>
      <point x="195" y="548"/>
      <point x="339" y="548" type="curve" smooth="yes"/>
      <point x="483" y="548"/>
      <point x="601" y="429"/>
      <point x="601" y="286" type="curve" smooth="yes"/>
      <point x="601" y="142"/>
      <point x="483" y="24"/>
    </contour>
    <contour>
      <point x="339" y="123" type="curve" smooth="yes"/>
      <point x="430" y="123"/>
      <point x="503" y="195"/>
      <point x="503" y="286" type="curve" smooth="yes"/>
      <point x="503" y="377"/>
      <point x="430" y="449"/>
      <point x="339" y="449" type="curve" smooth="yes"/>
      <point x="249" y="449"/>
      <point x="176" y="377"/>
      <point x="176" y="286" type="curve" smooth="yes"/>
      <point x="176" y="195"/>
      <point x="249" y="123"/>
    </contour>
  </outline>
</glyph>
<glyph name="rightHalfBlackWhiteCircle" format="2">
  <advance width="785.5"/>
  <unicode hex="25D1"/>
  <outline>
    <contour>
      <point x="759" y="294" type="curve" smooth="yes"/>
      <point x="759" y="295" type="line" smooth="yes"/>
      <point x="759" y="495"/>
      <point x="596" y="658"/>
      <point x="396" y="658" type="curve" smooth="yes"/>
      <point x="195" y="658"/>
      <point x="32" y="495"/>
      <point x="32" y="294" type="curve" smooth="yes"/>
      <point x="32" y="94"/>
      <point x="195" y="-69"/>
      <point x="396" y="-69" type="curve" smooth="yes"/>
      <point x="596" y="-69"/>
      <point x="759" y="94"/>
    </contour>
    <contour>
      <point x="93" y="294" type="curve" smooth="yes"/>
      <point x="93" y="461"/>
      <point x="229" y="597"/>
      <point x="396" y="597" type="curve"/>
      <point x="396" y="-8" type="line"/>
      <point x="229" y="-8"/>
      <point x="93" y="128"/>
    </contour>
  </outline>
</glyph>
<glyph name="lowerHalfBlackWhiteCircle" format="2">
  <advance width="790.4"/>
  <unicode hex="25D2"/>
  <outline>
    <contour>
      <point x="407" y="-11" type="curve"/>
      <point x="407" y="-11"/>
      <point x="407" y="-11"/>
      <point x="407.5" y="-11" type="curve" smooth="yes"/>
      <point x="608" y="-11"/>
      <point x="771" y="152"/>
      <point x="771" y="352" type="curve" smooth="yes"/>
      <point x="771" y="553"/>
      <point x="608" y="716"/>
      <point x="407" y="716" type="curve" smooth="yes"/>
      <point x="207" y="716"/>
      <point x="44" y="553"/>
      <point x="44" y="352" type="curve" smooth="yes"/>
      <point x="44" y="152"/>
      <point x="207" y="-11"/>
    </contour>
    <contour>
      <point x="105" y="352" type="line"/>
      <point x="105" y="519"/>
      <point x="241" y="655"/>
      <point x="407" y="655" type="curve" smooth="yes"/>
      <point x="574" y="655"/>
      <point x="710" y="519"/>
      <point x="710" y="352" type="curve"/>
    </contour>
  </outline>
</glyph>
<glyph name="upperHalfBlackWhiteCircle" format="2">
  <advance width="791.4"/>
  <unicode hex="25D3"/>
  <outline>
    <contour>
      <point x="408" y="-11" type="curve" smooth="yes"/>
      <point x="609" y="-11"/>
      <point x="772" y="152"/>
      <point x="772" y="352" type="curve" smooth="yes"/>
      <point x="772" y="553"/>
      <point x="609" y="716"/>
      <point x="408" y="716" type="curve" smooth="yes"/>
      <point x="208" y="716"/>
      <point x="45" y="553"/>
      <point x="45" y="352" type="curve" smooth="yes"/>
      <point x="45" y="152"/>
      <point x="208" y="-11"/>
    </contour>
    <contour>
      <point x="408" y="50" type="curve" smooth="yes"/>
      <point x="242" y="50"/>
      <point x="106" y="186"/>
      <point x="106" y="352" type="curve" smooth="yes"/>
      <point x="106.002" y="353" type="line"/>
      <point x="710.998" y="353" type="line"/>
      <point x="711" y="352" type="line" smooth="yes"/>
      <point x="711" y="186"/>
      <point x="575" y="50"/>
    </contour>
  </outline>
</glyph>
<glyph name="longLeftWardsArrow" format="2">
  <advance width="1095.3"/>
  <unicode hex="27F5"/>
  <outline>
    <contour>
      <point x="327" y="-8" type="line"/>
      <point x="372" y="43" type="line"/>
      <point x="137" y="278" type="line"/>
      <point x="132" y="233" type="line"/>
      <point x="423" y="468" type="line"/>
      <point x="388" y="518" type="line"/>
      <point x="71" y="263" type="line"/>
      <point x="70" y="248" type="line"/>
    </contour>
    <contour>
      <point x="97" y="225" type="line"/>
      <point x="1075" y="225" type="line"/>
      <point x="1081" y="281" type="line"/>
      <point x="1075" y="291" type="line"/>
      <point x="1075" y="291"/>
      <point x="1014" y="286"/>
      <point x="966" y="286" type="curve" smooth="yes"/>
      <point x="106" y="286" type="line"/>
    </contour>
  </outline>
</glyph>
<glyph name="SquareWithUpperRightDiagonalHalfBlack" format="2">
  <advance width="858.4"/>
  <unicode hex="2B14"/>
  <outline>
    <contour>
      <point x="89" y="0" type="line"/>
      <point x="794" y="0" type="line"/>
      <point x="794" y="705" type="line"/>
      <point x="89" y="705" type="line"/>
    </contour>
    <contour>
      <point x="141" y="18" type="line"/>
      <point x="141" y="687" type="line"/>
      <point x="117" y="678" type="line"/>
      <point x="767" y="27" type="line"/>
      <point x="776" y="52" type="line"/>
      <point x="107" y="52" type="line"/>
    </contour>
  </outline>
</glyph>
<glyph name="SquareWithUpperLeftDiagonalHalfBlack" format="2">
  <advance width="858.4"/>
  <unicode hex="2B15"/>
  <outline>
    <contour>
      <point x="89" y="0" type="line"/>
      <point x="794" y="0" type="line"/>
      <point x="794" y="705" type="line"/>
      <point x="89" y="705" type="line"/>
    </contour>
    <contour>
      <point x="743" y="18" type="line"/>
      <point x="767" y="27" type="line"/>
      <point x="117" y="678" type="line"/>
      <point x="107" y="654" type="line"/>
      <point x="776" y="654" type="line"/>
      <point x="743" y="687" type="line"/>
    </contour>
  </outline>
</glyph>
<glyph name="Saltillo" format="2">
  <advance width="197"/>
  <unicode hex="A78B"/>
  <outline>
    <contour>
      <point x="113" y="314" type="line"/>
      <point x="202" y="688" type="line"/>
      <point x="186" y="705" type="line"/>
      <point x="114" y="705" type="line"/>
      <point x="114" y="705"/>
      <point x="106" y="509"/>
      <point x="104" y="494" type="curve"/>
      <point x="67" y="318" type="line"/>
    </contour>
  </outline>
</glyph>
<glyph name="fl" format="2">
  <advance width="549"/>
  <unicode hex="FB02"/>
  <anchor x="325" y="0" name="caret_1"/>
  <outline>
    <contour>
      <point x="-115" y="-234" type="line"/>
      <point x="9" y="-222"/>
      <point x="107" y="-149"/>
      <point x="132" y="-35" type="curve" smooth="yes"/>
      <point x="155" y="73"/>
      <point x="170" y="278"/>
      <point x="203" y="456" type="curve"/>
      <point x="168" y="426" type="line"/>
      <point x="307" y="426" type="line"/>
      <point x="319" y="477" type="line"/>
      <point x="176" y="477" type="line"/>
      <point x="204" y="454" type="line"/>
      <point x="222" y="629"/>
      <point x="240" y="668"/>
      <point x="257" y="692" type="curve" smooth="yes"/>
      <point x="263" y="703"/>
      <point x="287" y="708"/>
      <point x="317" y="708" type="curve" smooth="yes"/>
      <point x="364" y="708"/>
      <point x="422" y="697"/>
      <point x="454" y="683" type="curve"/>
      <point x="515" y="770" type="line"/>
      <point x="476" y="777"/>
      <point x="437" y="782"/>
      <point x="400" y="780" type="curve" smooth="yes"/>
      <point x="294" y="774"/>
      <point x="170" y="717"/>
      <point x="146" y="574" type="curve" smooth="yes"/>
      <point x="134" y="504"/>
      <point x="136" y="495"/>
      <point x="128" y="490" type="curve"/>
      <point x="112" y="479"/>
      <point x="52" y="463"/>
      <point x="41" y="461" type="curve"/>
      <point x="37" y="426" type="line"/>
      <point x="156" y="426" type="line"/>
      <point x="128" y="451" type="line"/>
      <point x="112" y="239"/>
      <point x="66" y="-82"/>
      <point x="30" y="-135" type="curve" smooth="yes"/>
      <point x="18" y="-151"/>
      <point x="-49" y="-176"/>
      <point x="-97" y="-177" type="curve"/>
    </contour>
    <contour>
      <point x="361" y="-10" type="line"/>
      <point x="515" y="35" type="line"/>
      <point x="518" y="68" type="line"/>
      <point x="396" y="74" type="line"/>
      <point x="424" y="49" type="line"/>
      <point x="456" y="321"/>
      <point x="498" y="541"/>
      <point x="535" y="752" type="curve"/>
      <point x="515" y="770" type="line"/>
      <point x="445" y="712" type="line"/>
      <point x="431" y="515"/>
      <point x="381" y="177"/>
      <point x="337" y="5" type="curve"/>
    </contour>
  </outline>
</glyph>
<glyph name="C.ss02" format="2">
  <advance width="708.2"/>
  <anchor x="378" y="34" name="bottom"/>
  <anchor x="463" y="669" name="top"/>
  <outline>
    <contour>
      <point x="372" y="21" type="curve" smooth="yes"/>
      <point x="449" y="21"/>
      <point x="517" y="37"/>
      <point x="577" y="51" type="curve"/>
      <point x="590" y="190" type="line"/>
      <point x="535" y="188" type="line"/>
      <point x="535" y="188"/>
      <point x="529" y="155"/>
      <point x="527" y="146" type="curve"/>
      <point x="525" y="134"/>
      <point x="508" y="99"/>
      <point x="493" y="70" type="curve"/>
      <point x="529" y="104" type="line"/>
      <point x="486" y="89"/>
      <point x="425" y="78"/>
      <point x="379" y="78" type="curve" smooth="yes"/>
      <point x="269" y="78"/>
      <point x="219" y="167"/>
      <point x="219" y="289" type="curve" smooth="yes"/>
      <point x="219" y="483"/>
      <point x="318" y="625"/>
      <point x="453" y="625" type="curve" smooth="yes"/>
      <point x="497" y="625"/>
      <point x="551" y="612"/>
      <point x="588" y="597" type="curve"/>
      <point x="562" y="631" type="line"/>
      <point x="566" y="609"/>
      <point x="574" y="574"/>
      <point x="572" y="562" type="curve" smooth="yes"/>
      <point x="566" y="517" type="line"/>
      <point x="621" y="513" type="line"/>
      <point x="650" y="651" type="line"/>
      <point x="590" y="667"/>
      <point x="538" y="682"/>
      <point x="462" y="682" type="curve" smooth="yes"/>
      <point x="256" y="682"/>
      <point x="117" y="522"/>
      <point x="117" y="285" type="curve" smooth="yes"/>
      <point x="117" y="126"/>
      <point x="201" y="21"/>
    </contour>
    <contour>
      <point x="13" y="0" type="line"/>
      <point x="629" y="0" type="line"/>
      <point x="640" y="42" type="line"/>
      <point x="14" y="42" type="line"/>
    </contour>
    <contour>
      <point x="98" y="659" type="line"/>
      <point x="723" y="659" type="line"/>
      <point x="724" y="705" type="line"/>
      <point x="109" y="705" type="line"/>
    </contour>
  </outline>
</glyph>
<glyph name="C.sups" format="2">
  <advance width="387.7"/>
  <anchor x="224" y="330" name="bottom"/>
  <anchor x="307" y="759" name="top"/>
  <outline>
    <contour>
      <point x="242" y="321" type="curve" smooth="yes"/>
      <point x="293" y="321"/>
      <point x="332" y="332"/>
      <point x="372" y="341" type="curve"/>
      <point x="381" y="437" type="line"/>
      <point x="341" y="436" type="line"/>
      <point x="340" y="429"/>
      <point x="338" y="412"/>
      <point x="336" y="407" type="curve" smooth="yes"/>
      <point x="334" y="400"/>
      <point x="320" y="367"/>
      <point x="312" y="350" type="curve"/>
      <point x="351" y="380" type="line"/>
      <point x="315" y="372"/>
      <point x="279" y="365"/>
      <point x="246" y="365" type="curve" smooth="yes"/>
      <point x="181" y="365"/>
      <point x="148" y="423"/>
      <point x="148" y="499" type="curve" smooth="yes"/>
      <point x="148" y="607"/>
      <point x="196" y="715"/>
      <point x="295" y="715" type="curve" smooth="yes"/>
      <point x="326" y="715"/>
      <point x="361" y="707"/>
      <point x="394" y="700" type="curve"/>
      <point x="362" y="732" type="line"/>
      <point x="364" y="714"/>
      <point x="368" y="683"/>
      <point x="368" y="677" type="curve" smooth="yes"/>
      <point x="364" y="646" type="line"/>
      <point x="404" y="643" type="line"/>
      <point x="424" y="739" type="line"/>
      <point x="388" y="748"/>
      <point x="351" y="759"/>
      <point x="301" y="759" type="curve" smooth="yes"/>
      <point x="149" y="759"/>
      <point x="68" y="646"/>
      <point x="68" y="501" type="curve" smooth="yes"/>
      <point x="68" y="391"/>
      <point x="131" y="321"/>
    </contour>
  </outline>
</glyph>
<glyph name="D.ss02" format="2">
  <advance width="743.7"/>
  <outline>
    <contour>
      <point x="299" y="30" type="line"/>
      <point x="515" y="30"/>
      <point x="667" y="185"/>
      <point x="667" y="409" type="curve" smooth="yes"/>
      <point x="667" y="571"/>
      <point x="570" y="673"/>
      <point x="387" y="673" type="curve" smooth="yes"/>
      <point x="181" y="673" type="line"/>
      <point x="179" y="632"/>
      <point x="179" y="549"/>
      <point x="178" y="542" type="curve" smooth="yes"/>
      <point x="126" y="161" type="line" smooth="yes"/>
      <point x="124" y="146"/>
      <point x="104" y="76"/>
      <point x="91" y="29" type="curve"/>
    </contour>
    <contour>
      <point x="13" y="0" type="line"/>
      <point x="659" y="0" type="line"/>
      <point x="670" y="42" type="line"/>
      <point x="14" y="42" type="line"/>
    </contour>
    <contour>
      <point x="213" y="66" type="line"/>
      <point x="214" y="86"/>
      <point x="213" y="131"/>
      <point x="222" y="188" type="curve" smooth="yes"/>
      <point x="266" y="515" type="line" smooth="yes"/>
      <point x="271" y="552"/>
      <point x="288" y="629"/>
      <point x="293" y="642" type="curve"/>
      <point x="270" y="615" type="line"/>
      <point x="291" y="615"/>
      <point x="332" y="615"/>
      <point x="380" y="615" type="curve" smooth="yes"/>
      <point x="512" y="615"/>
      <point x="570" y="522"/>
      <point x="570" y="402" type="curve" smooth="yes"/>
      <point x="570" y="218"/>
      <point x="461" y="87"/>
      <point x="309" y="87" type="curve" smooth="yes"/>
      <point x="260" y="87"/>
      <point x="222" y="90"/>
      <point x="198" y="90" type="curve"/>
    </contour>
    <contour>
      <point x="97" y="659" type="line"/>
      <point x="754" y="659" type="line"/>
      <point x="756" y="705" type="line"/>
      <point x="109" y="705" type="line"/>
    </contour>
  </outline>
</glyph>
<glyph name="D.sups" format="2">
  <advance width="444.5"/>
  <anchor x="208" y="330" name="bottom"/>
  <anchor x="151" y="541" name="center"/>
  <anchor x="267" y="759" name="top"/>
  <outline>
    <contour>
      <point x="31" y="327" type="line"/>
      <point x="50" y="328"/>
      <point x="99" y="330"/>
      <point x="117" y="330" type="curve" smooth="yes"/>
      <point x="151" y="330"/>
      <point x="179" y="327"/>
      <point x="212" y="327" type="curve" smooth="yes"/>
      <point x="363" y="327"/>
      <point x="449" y="433"/>
      <point x="449" y="578" type="curve" smooth="yes"/>
      <point x="449" y="686"/>
      <point x="381" y="753"/>
      <point x="266" y="753" type="curve" smooth="yes"/>
      <point x="240" y="753"/>
      <point x="193" y="750"/>
      <point x="166" y="750" type="curve" smooth="yes"/>
      <point x="149" y="750"/>
      <point x="115" y="752"/>
      <point x="95" y="753" type="curve"/>
      <point x="86" y="716" type="line"/>
      <point x="156" y="703" type="line"/>
      <point x="130" y="736" type="line"/>
      <point x="129" y="716"/>
      <point x="128" y="671"/>
      <point x="125" y="654" type="curve" smooth="yes"/>
      <point x="90" y="418" type="line" smooth="yes"/>
      <point x="87" y="397"/>
      <point x="78" y="372"/>
      <point x="73" y="351" type="curve"/>
      <point x="106" y="375" type="line"/>
      <point x="33" y="362" type="line"/>
    </contour>
    <contour>
      <point x="156" y="357" type="line"/>
      <point x="156" y="368"/>
      <point x="160" y="409"/>
      <point x="164" y="436" type="curve" smooth="yes"/>
      <point x="195" y="652" type="line" smooth="yes"/>
      <point x="198" y="670"/>
      <point x="208" y="711"/>
      <point x="212" y="732" type="curve"/>
      <point x="183" y="709" type="line"/>
      <point x="211" y="711"/>
      <point x="244" y="712"/>
      <point x="262" y="712" type="curve" smooth="yes"/>
      <point x="342" y="712"/>
      <point x="374" y="649"/>
      <point x="374" y="577" type="curve" smooth="yes"/>
      <point x="374" y="474"/>
      <point x="330" y="368"/>
      <point x="214" y="368" type="curve" smooth="yes"/>
      <point x="197" y="368"/>
      <point x="157" y="370"/>
      <point x="133" y="371" type="curve"/>
    </contour>
  </outline>
</glyph>
<glyph name="E.sups" format="2">
  <advance width="351.9"/>
  <anchor x="188" y="330" name="bottom"/>
  <anchor x="320" y="330" name="ogonek"/>
  <anchor x="248" y="759" name="top"/>
  <anchor x="83" y="750" name="topleft"/>
  <outline>
    <contour>
      <point x="31" y="327" type="line"/>
      <point x="68" y="329"/>
      <point x="101" y="330"/>
      <point x="117" y="330" type="curve" smooth="yes"/>
      <point x="250" y="330" type="line" smooth="yes"/>
      <point x="267" y="330"/>
      <point x="296" y="330"/>
      <point x="320" y="330" type="curve"/>
      <point x="330" y="338" type="line"/>
      <point x="354" y="435" type="line"/>
      <point x="318" y="438" type="line"/>
      <point x="315" y="429"/>
      <point x="310" y="414"/>
      <point x="304" y="401" type="curve" smooth="yes"/>
      <point x="300" y="391"/>
      <point x="287" y="373"/>
      <point x="272" y="356" type="curve"/>
      <point x="300" y="379" type="line"/>
      <point x="289" y="377"/>
      <point x="262" y="372"/>
      <point x="238" y="372" type="curve" smooth="yes"/>
      <point x="130" y="372" type="line"/>
      <point x="156" y="353" type="line"/>
      <point x="156" y="364"/>
      <point x="159" y="409"/>
      <point x="163" y="436" type="curve" smooth="yes"/>
      <point x="181" y="554" type="line"/>
      <point x="149" y="526" type="line"/>
      <point x="225" y="526" type="line" smooth="yes"/>
      <point x="237" y="526"/>
      <point x="272" y="522"/>
      <point x="296" y="519" type="curve"/>
      <point x="269" y="550" type="line"/>
      <point x="267" y="484" type="line"/>
      <point x="301" y="487" type="line"/>
      <point x="304" y="525"/>
      <point x="311" y="562"/>
      <point x="319" y="607" type="curve"/>
      <point x="287" y="610" type="line"/>
      <point x="266" y="542" type="line"/>
      <point x="302" y="573" type="line"/>
      <point x="278" y="569"/>
      <point x="249" y="566"/>
      <point x="243" y="566" type="curve" smooth="yes"/>
      <point x="155" y="566" type="line"/>
      <point x="178" y="538" type="line"/>
      <point x="195" y="652" type="line" smooth="yes"/>
      <point x="198" y="670"/>
      <point x="210" y="716"/>
      <point x="212" y="729" type="curve"/>
      <point x="180" y="710" type="line"/>
      <point x="280" y="710" type="line" smooth="yes"/>
      <point x="295" y="710"/>
      <point x="342" y="707"/>
      <point x="352" y="706" type="curve"/>
      <point x="316" y="734" type="line"/>
      <point x="325" y="719"/>
      <point x="335" y="692"/>
      <point x="335" y="687" type="curve" smooth="yes"/>
      <point x="335" y="680"/>
      <point x="336" y="666"/>
      <point x="336" y="656" type="curve"/>
      <point x="374" y="659" type="line"/>
      <point x="382" y="742" type="line"/>
      <point x="373" y="753" type="line"/>
      <point x="352" y="752"/>
      <point x="319" y="750"/>
      <point x="303" y="750" type="curve" smooth="yes"/>
      <point x="166" y="750" type="line" smooth="yes"/>
      <point x="149" y="750"/>
      <point x="115" y="752"/>
      <point x="95" y="753" type="curve"/>
      <point x="86" y="716" type="line"/>
      <point x="156" y="703" type="line"/>
      <point x="129" y="724" type="line"/>
      <point x="129" y="718"/>
      <point x="128" y="672"/>
      <point x="125" y="654" type="curve" smooth="yes"/>
      <point x="90" y="418" type="line" smooth="yes"/>
      <point x="88" y="404"/>
      <point x="75" y="362"/>
      <point x="72" y="349" type="curve"/>
      <point x="106" y="375" type="line"/>
      <point x="33" y="362" type="line"/>
    </contour>
  </outline>
</glyph>
<glyph name="H.sups" format="2">
  <advance width="466.9"/>
  <anchor x="241" y="330" name="bottom"/>
  <anchor x="285" y="640" name="center"/>
  <anchor x="302" y="759" name="top"/>
  <anchor x="83" y="750" name="topleft"/>
  <outline>
    <contour>
      <point x="285" y="327" type="line"/>
      <point x="314" y="328"/>
      <point x="353" y="330"/>
      <point x="372" y="330" type="curve" smooth="yes"/>
      <point x="451" y="330" type="line"/>
      <point x="459" y="366" type="line"/>
      <point x="383" y="373" type="line"/>
      <point x="413" y="351" type="line"/>
      <point x="412" y="369"/>
      <point x="414" y="405"/>
      <point x="418" y="436" type="curve" smooth="yes"/>
      <point x="448" y="652" type="line" smooth="yes"/>
      <point x="451" y="673"/>
      <point x="464" y="719"/>
      <point x="467" y="731" type="curve"/>
      <point x="434" y="706" type="line"/>
      <point x="506" y="713" type="line"/>
      <point x="509" y="753" type="line"/>
      <point x="483" y="752"/>
      <point x="447" y="750"/>
      <point x="420" y="750" type="curve" smooth="yes"/>
      <point x="408" y="750"/>
      <point x="365" y="752"/>
      <point x="348" y="753" type="curve"/>
      <point x="340" y="716" type="line"/>
      <point x="410" y="703" type="line"/>
      <point x="383" y="731" type="line"/>
      <point x="383" y="714"/>
      <point x="383" y="676"/>
      <point x="380" y="654" type="curve" smooth="yes"/>
      <point x="345" y="418" type="line" smooth="yes"/>
      <point x="343" y="407"/>
      <point x="332" y="369"/>
      <point x="327" y="352" type="curve"/>
      <point x="360" y="375" type="line"/>
      <point x="287" y="362" type="line"/>
    </contour>
    <contour>
      <point x="31" y="327" type="line"/>
      <point x="30" y="327"/>
      <point x="98" y="330"/>
      <point x="117" y="330" type="curve" smooth="yes"/>
      <point x="196" y="330" type="line"/>
      <point x="205" y="366" type="line"/>
      <point x="130" y="373" type="line"/>
      <point x="158" y="351" type="line"/>
      <point x="158" y="365"/>
      <point x="160" y="410"/>
      <point x="164" y="436" type="curve" smooth="yes"/>
      <point x="195" y="652" type="line" smooth="yes"/>
      <point x="198" y="672"/>
      <point x="209" y="713"/>
      <point x="214" y="731" type="curve"/>
      <point x="180" y="706" type="line"/>
      <point x="253" y="713" type="line"/>
      <point x="256" y="753" type="line"/>
      <point x="257" y="753"/>
      <point x="193" y="750"/>
      <point x="166" y="750" type="curve" smooth="yes"/>
      <point x="154" y="750"/>
      <point x="112" y="752"/>
      <point x="95" y="753" type="curve"/>
      <point x="86" y="716" type="line"/>
      <point x="156" y="703" type="line"/>
      <point x="128" y="731" type="line"/>
      <point x="129" y="718"/>
      <point x="128" y="672"/>
      <point x="125" y="654" type="curve" smooth="yes"/>
      <point x="90" y="418" type="line" smooth="yes"/>
      <point x="88" y="404"/>
      <point x="78" y="370"/>
      <point x="73" y="352" type="curve"/>
      <point x="106" y="375" type="line"/>
      <point x="33" y="362" type="line"/>
    </contour>
    <contour>
      <point x="160" y="518" type="line"/>
      <point x="375" y="518" type="line"/>
      <point x="380" y="561" type="line"/>
      <point x="166" y="558" type="line"/>
    </contour>
  </outline>
</glyph>
<glyph name="I.ss02" format="2">
  <advance width="462.5"/>
  <anchor x="191" y="34" name="bottom"/>
  <anchor x="191" y="34" name="ogonek"/>
  <anchor x="288" y="669" name="top"/>
  <outline>
    <contour>
      <point x="132" y="36" type="curve"/>
      <point x="249" y="36" type="line"/>
      <point x="248" y="57"/>
      <point x="254" y="138"/>
      <point x="261" y="188" type="curve" smooth="yes"/>
      <point x="310" y="515" type="line" smooth="yes"/>
      <point x="317" y="561"/>
      <point x="338" y="651"/>
      <point x="345" y="672" type="curve"/>
      <point x="229" y="671" type="line"/>
      <point x="230" y="650"/>
      <point x="224" y="563"/>
      <point x="221" y="542" type="curve" smooth="yes"/>
      <point x="164" y="161" type="line" smooth="yes"/>
      <point x="161" y="140"/>
      <point x="138" y="54"/>
    </contour>
    <contour>
      <point x="6" y="0" type="line"/>
      <point x="379" y="0" type="line"/>
      <point x="390" y="42" type="line"/>
      <point x="8" y="42" type="line"/>
    </contour>
    <contour>
      <point x="104" y="659" type="line"/>
      <point x="484" y="659" type="line"/>
      <point x="487" y="705" type="line"/>
      <point x="114" y="705" type="line"/>
    </contour>
  </outline>
</glyph>
